<?xml version="1.0" encoding="utf-8" standalone="no"?>
<!DOCTYPE svg PUBLIC "-//W3C//DTD SVG 1.1//EN"
  "http://www.w3.org/Graphics/SVG/1.1/DTD/svg11.dtd">
<svg xmlns:xlink="http://www.w3.org/1999/xlink" width="432pt" height="288pt" viewBox="0 0 432 288" xmlns="http://www.w3.org/2000/svg" version="1.1">
 <metadata>
  <rdf:RDF xmlns:dc="http://purl.org/dc/elements/1.1/" xmlns:cc="http://creativecommons.org/ns#" xmlns:rdf="http://www.w3.org/1999/02/22-rdf-syntax-ns#">
   <cc:Work>
    <dc:type rdf:resource="http://purl.org/dc/dcmitype/StillImage"/>
    <dc:date>2022-04-23T15:46:11.532556</dc:date>
    <dc:format>image/svg+xml</dc:format>
    <dc:creator>
     <cc:Agent>
      <dc:title>Matplotlib v3.5.1, https://matplotlib.org/</dc:title>
     </cc:Agent>
    </dc:creator>
   </cc:Work>
  </rdf:RDF>
 </metadata>
 <defs>
  <style type="text/css">*{stroke-linejoin: round; stroke-linecap: butt}</style>
 </defs>
 <g id="figure_1">
  <g id="patch_1">
   <path d="M 0 288 
L 432 288 
L 432 0 
L 0 0 
L 0 288 
z
" style="fill: none"/>
  </g>
  <g id="axes_1">
   <g id="patch_2">
    <path d="M 92.317004 273.7 
L 339.682996 273.7 
L 339.682996 10.8 
L 92.317004 10.8 
z
" style="fill: #ffffff"/>
   </g>
   <g id="patch_3">
    <path d="M 255.264443 168.39954 
L 253.565169 158.495447 
" clip-path="url(#p5eff576f0b)" style="fill: #1f77b4; stroke: #000000; stroke-linejoin: miter"/>
   </g>
   <g id="patch_4">
    <path d="M 173.216246 250.447738 
L 163.312152 248.748464 
" clip-path="url(#p5eff576f0b)" style="fill: #1f77b4; stroke: #000000; stroke-linejoin: miter"/>
   </g>
   <g id="patch_5">
    <path d="M 251.865896 148.591353 
L 250.166622 138.68726 
" clip-path="url(#p5eff576f0b)" style="fill: #1f77b4; stroke: #000000; stroke-linejoin: miter"/>
   </g>
   <g id="patch_6">
    <path d="M 248.467348 128.783166 
L 246.768074 118.879073 
" clip-path="url(#p5eff576f0b)" style="fill: #1f77b4; stroke: #000000; stroke-linejoin: miter"/>
   </g>
   <g id="patch_7">
    <path d="M 123.695778 241.951369 
L 121.996504 232.047275 
" clip-path="url(#p5eff576f0b)" style="fill: #1f77b4; stroke: #000000; stroke-linejoin: miter"/>
   </g>
   <g id="patch_8">
    <path d="M 120.29723 222.143182 
L 118.597956 212.239088 
" clip-path="url(#p5eff576f0b)" style="fill: #1f77b4; stroke: #000000; stroke-linejoin: miter"/>
   </g>
   <g id="patch_9">
    <path d="M 116.898682 202.334995 
L 115.199409 192.430901 
" clip-path="url(#p5eff576f0b)" style="fill: #1f77b4; stroke: #000000; stroke-linejoin: miter"/>
   </g>
   <g id="patch_10">
    <path d="M 207.1517 112.081977 
L 197.247606 110.382704 
" clip-path="url(#p5eff576f0b)" style="fill: #1f77b4; stroke: #000000; stroke-linejoin: miter"/>
   </g>
   <g id="patch_11">
    <path d="M 226.959887 115.480525 
L 217.055793 113.781251 
" clip-path="url(#p5eff576f0b)" style="fill: #1f77b4; stroke: #000000; stroke-linejoin: miter"/>
   </g>
   <g id="patch_12">
    <path d="M 187.343513 108.68343 
L 177.439419 106.984156 
" clip-path="url(#p5eff576f0b)" style="fill: #1f77b4; stroke: #000000; stroke-linejoin: miter"/>
   </g>
   <g id="patch_13">
    <path d="M 147.727138 101.886334 
L 137.823045 100.187061 
" clip-path="url(#p5eff576f0b)" style="fill: #1f77b4; stroke: #000000; stroke-linejoin: miter"/>
   </g>
   <g id="patch_14">
    <path d="M 127.918951 98.487787 
L 118.014858 96.788513 
" clip-path="url(#p5eff576f0b)" style="fill: #1f77b4; stroke: #000000; stroke-linejoin: miter"/>
   </g>
   <g id="patch_15">
    <path d="M 108.110764 95.089239 
L 98.206671 93.389965 
" clip-path="url(#p5eff576f0b)" style="fill: #1f77b4; stroke: #000000; stroke-linejoin: miter"/>
   </g>
   <g id="patch_16">
    <path d="M 113.500135 182.526808 
L 111.800861 172.622714 
" clip-path="url(#p5eff576f0b)" style="fill: #1f77b4; stroke: #000000; stroke-linejoin: miter"/>
   </g>
   <g id="patch_17">
    <path d="M 110.101587 162.71862 
L 108.402313 152.814527 
" clip-path="url(#p5eff576f0b)" style="fill: #1f77b4; stroke: #000000; stroke-linejoin: miter"/>
   </g>
   <g id="patch_18">
    <path d="M 106.70304 142.910433 
L 105.003766 133.00634 
" clip-path="url(#p5eff576f0b)" style="fill: #1f77b4; stroke: #000000; stroke-linejoin: miter"/>
   </g>
   <g id="patch_19">
    <path d="M 103.304492 123.102246 
L 101.605218 113.198153 
" clip-path="url(#p5eff576f0b)" style="fill: #1f77b4; stroke: #000000; stroke-linejoin: miter"/>
   </g>
   <g id="patch_20">
    <path d="M 167.535326 105.284882 
L 157.631232 103.585608 
" clip-path="url(#p5eff576f0b)" style="fill: #1f77b4; stroke: #000000; stroke-linejoin: miter"/>
   </g>
   <g id="patch_21">
    <path d="M 246.768074 118.879073 
L 236.863981 117.179799 
" clip-path="url(#p5eff576f0b)" style="fill: #1f77b4; stroke: #000000; stroke-linejoin: miter"/>
   </g>
   <g id="patch_22">
    <path d="M 272.257181 267.440476 
L 262.353088 265.741202 
" clip-path="url(#p5eff576f0b)" style="fill: #1f77b4; stroke: #000000; stroke-linejoin: miter"/>
   </g>
   <g id="patch_23">
    <path d="M 258.662991 188.207728 
L 256.963717 178.303634 
" clip-path="url(#p5eff576f0b)" style="fill: #1f77b4; stroke: #000000; stroke-linejoin: miter"/>
   </g>
   <g id="patch_24">
    <path d="M 232.640807 260.643381 
L 222.736713 258.944107 
" clip-path="url(#p5eff576f0b)" style="fill: #1f77b4; stroke: #000000; stroke-linejoin: miter"/>
   </g>
   <g id="patch_25">
    <path d="M 212.83262 257.244833 
L 202.928526 255.54556 
" clip-path="url(#p5eff576f0b)" style="fill: #1f77b4; stroke: #000000; stroke-linejoin: miter"/>
   </g>
   <g id="patch_26">
    <path d="M 133.599871 243.650643 
L 123.695778 241.951369 
" clip-path="url(#p5eff576f0b)" style="fill: #1f77b4; stroke: #000000; stroke-linejoin: miter"/>
   </g>
   <g id="patch_27">
    <path d="M 252.448994 264.041929 
L 242.544901 262.342655 
" clip-path="url(#p5eff576f0b)" style="fill: #1f77b4; stroke: #000000; stroke-linejoin: miter"/>
   </g>
   <g id="patch_28">
    <path d="M 193.024433 253.846286 
L 183.120339 252.147012 
" clip-path="url(#p5eff576f0b)" style="fill: #1f77b4; stroke: #000000; stroke-linejoin: miter"/>
   </g>
   <g id="patch_29">
    <path d="M 153.408058 247.04919 
L 143.503965 245.349917 
" clip-path="url(#p5eff576f0b)" style="fill: #1f77b4; stroke: #000000; stroke-linejoin: miter"/>
   </g>
   <g id="patch_30">
    <path d="M 99.905944 103.294059 
L 98.206671 93.389965 
" clip-path="url(#p5eff576f0b)" style="fill: #1f77b4; stroke: #000000; stroke-linejoin: miter"/>
   </g>
   <g id="patch_31">
    <path d="M 272.257181 267.440476 
L 270.557907 257.536383 
" clip-path="url(#p5eff576f0b)" style="fill: #1f77b4; stroke: #000000; stroke-linejoin: miter"/>
   </g>
   <g id="patch_32">
    <path d="M 268.858634 247.632289 
L 267.15936 237.728195 
" clip-path="url(#p5eff576f0b)" style="fill: #1f77b4; stroke: #000000; stroke-linejoin: miter"/>
   </g>
   <g id="patch_33">
    <path d="M 265.460086 227.824102 
L 263.760812 217.920008 
" clip-path="url(#p5eff576f0b)" style="fill: #1f77b4; stroke: #000000; stroke-linejoin: miter"/>
   </g>
   <g id="patch_34">
    <path d="M 262.061538 208.015915 
L 260.362265 198.111821 
" clip-path="url(#p5eff576f0b)" style="fill: #1f77b4; stroke: #000000; stroke-linejoin: miter"/>
   </g>
   <g id="patch_35">
    <path d="M 98.206671 93.389965 
L 102.30908 89.287556 
" clip-path="url(#p5eff576f0b)" style="fill: #1f77b4; stroke: #000000; stroke-linejoin: miter"/>
   </g>
   <g id="patch_36">
    <path d="M 272.257181 267.440476 
L 276.359591 263.338066 
" clip-path="url(#p5eff576f0b)" style="fill: #1f77b4; stroke: #000000; stroke-linejoin: miter"/>
   </g>
   <g id="patch_37">
    <path d="M 246.768074 118.879073 
L 250.870484 114.776663 
" clip-path="url(#p5eff576f0b)" style="fill: #1f77b4; stroke: #000000; stroke-linejoin: miter"/>
   </g>
   <g id="patch_38">
    <path d="M 123.695778 241.951369 
L 127.798188 237.848959 
" clip-path="url(#p5eff576f0b)" style="fill: #1f77b4; stroke: #000000; stroke-linejoin: miter"/>
   </g>
   <g id="patch_39">
    <path d="M 106.41149 85.185146 
L 110.5139 81.082736 
" clip-path="url(#p5eff576f0b)" style="fill: #1f77b4; stroke: #000000; stroke-linejoin: miter"/>
   </g>
   <g id="patch_40">
    <path d="M 280.462001 259.235656 
L 284.564411 255.133247 
" clip-path="url(#p5eff576f0b)" style="fill: #1f77b4; stroke: #000000; stroke-linejoin: miter"/>
   </g>
   <g id="patch_41">
    <path d="M 254.972894 110.674253 
L 259.075304 106.571843 
" clip-path="url(#p5eff576f0b)" style="fill: #1f77b4; stroke: #000000; stroke-linejoin: miter"/>
   </g>
   <g id="patch_42">
    <path d="M 131.900597 233.746549 
L 136.003007 229.644139 
" clip-path="url(#p5eff576f0b)" style="fill: #1f77b4; stroke: #000000; stroke-linejoin: miter"/>
   </g>
   <g id="patch_43">
    <path d="M 140.105417 225.54173 
L 144.207827 221.43932 
" clip-path="url(#p5eff576f0b)" style="fill: #1f77b4; stroke: #000000; stroke-linejoin: miter"/>
   </g>
   <g id="patch_44">
    <path d="M 263.177714 102.469433 
L 267.280124 98.367023 
" clip-path="url(#p5eff576f0b)" style="fill: #1f77b4; stroke: #000000; stroke-linejoin: miter"/>
   </g>
   <g id="patch_45">
    <path d="M 288.666821 251.030837 
L 292.769231 246.928427 
" clip-path="url(#p5eff576f0b)" style="fill: #1f77b4; stroke: #000000; stroke-linejoin: miter"/>
   </g>
   <g id="patch_46">
    <path d="M 226.256025 154.185415 
C 230.179517 154.185415 233.942842 152.626595 236.71717 149.852267 
C 239.491498 147.077939 241.050318 143.314614 241.050318 139.391122 
C 241.050318 135.46763 239.491498 131.704305 236.71717 128.929977 
C 233.942842 126.155649 230.179517 124.596829 226.256025 124.596829 
C 222.332532 124.596829 218.569208 126.155649 215.79488 128.929977 
C 213.020551 131.704305 211.461731 135.46763 211.461731 139.391122 
C 211.461731 143.314614 213.020551 147.077939 215.79488 149.852267 
C 218.569208 152.626595 222.332532 154.185415 226.256025 154.185415 
z
" clip-path="url(#p5eff576f0b)" style="fill: #fa8072; stroke: #000000; stroke-linejoin: miter"/>
   </g>
   <g id="patch_47">
    <path d="M 217.759656 104.664948 
C 221.683148 104.664948 225.446473 103.106127 228.220801 100.331799 
C 230.995129 97.557471 232.553949 93.794147 232.553949 89.870654 
C 232.553949 85.947162 230.995129 82.183837 228.220801 79.409509 
C 225.446473 76.635181 221.683148 75.076361 217.759656 75.076361 
C 213.836163 75.076361 210.072839 76.635181 207.29851 79.409509 
C 204.524182 82.183837 202.965362 85.947162 202.965362 89.870654 
C 202.965362 93.794147 204.524182 97.557471 207.29851 100.331799 
C 210.072839 103.106127 213.836163 104.664948 217.759656 104.664948 
z
" clip-path="url(#p5eff576f0b)" style="fill: #fa8072; stroke: #000000; stroke-linejoin: miter"/>
   </g>
   <g id="patch_48">
    <path d="M 127.215089 137.192677 
C 131.138581 137.192677 134.901906 135.633857 137.676234 132.859529 
C 140.450562 130.085201 142.009382 126.321876 142.009382 122.398384 
C 142.009382 118.474891 140.450562 114.711567 137.676234 111.937239 
C 134.901906 109.162911 131.138581 107.60409 127.215089 107.60409 
C 123.291597 107.60409 119.528272 109.162911 116.753944 111.937239 
C 113.979616 114.711567 112.420796 118.474891 112.420796 122.398384 
C 112.420796 126.321876 113.979616 130.085201 116.753944 132.859529 
C 119.528272 135.633857 123.291597 137.192677 127.215089 137.192677 
z
" clip-path="url(#p5eff576f0b)" style="fill: #fa8072; stroke: #000000; stroke-linejoin: miter"/>
   </g>
   <g id="patch_49">
    <path d="M 176.735557 145.689046 
C 180.659049 145.689046 184.422374 144.130226 187.196702 141.355898 
C 189.97103 138.58157 191.52985 134.818245 191.52985 130.894753 
C 191.52985 126.97126 189.97103 123.207936 187.196702 120.433608 
C 184.422374 117.65928 180.659049 116.10046 176.735557 116.10046 
C 172.812064 116.10046 169.04874 117.65928 166.274412 120.433608 
C 163.500084 123.207936 161.941263 126.97126 161.941263 130.894753 
C 161.941263 134.818245 163.500084 138.58157 166.274412 141.355898 
C 169.04874 144.130226 172.812064 145.689046 176.735557 145.689046 
z
" clip-path="url(#p5eff576f0b)" style="fill: #fa8072; stroke: #000000; stroke-linejoin: miter"/>
   </g>
   <g id="patch_50">
    <path d="M 168.239188 96.168579 
C 172.16268 96.168579 175.926005 94.609758 178.700333 91.83543 
C 181.474661 89.061102 183.033481 85.297778 183.033481 81.374285 
C 183.033481 77.450793 181.474661 73.687468 178.700333 70.91314 
C 175.926005 68.138812 172.16268 66.579992 168.239188 66.579992 
C 164.315695 66.579992 160.552371 68.138812 157.778043 70.91314 
C 155.003714 73.687468 153.444894 77.450793 153.444894 81.374285 
C 153.444894 85.297778 155.003714 89.061102 157.778043 91.83543 
C 160.552371 94.609758 164.315695 96.168579 168.239188 96.168579 
z
" clip-path="url(#p5eff576f0b)" style="fill: #fa8072; stroke: #000000; stroke-linejoin: miter"/>
   </g>
   <g id="patch_51">
    <path d="M 135.711458 186.713145 
C 139.634951 186.713145 143.398275 185.154325 146.172603 182.379997 
C 148.946931 179.605669 150.505751 175.842344 150.505751 171.918852 
C 150.505751 167.995359 148.946931 164.232035 146.172603 161.457707 
C 143.398275 158.683378 139.634951 157.124558 135.711458 157.124558 
C 131.787966 157.124558 128.024641 158.683378 125.250313 161.457707 
C 122.475985 164.232035 120.917165 167.995359 120.917165 171.918852 
C 120.917165 175.842344 122.475985 179.605669 125.250313 182.379997 
C 128.024641 185.154325 131.787966 186.713145 135.711458 186.713145 
z
" clip-path="url(#p5eff576f0b)" style="fill: #fa8072; stroke: #000000; stroke-linejoin: miter"/>
   </g>
   <g id="patch_52">
    <path d="M 118.71872 87.672209 
C 122.642212 87.672209 126.405537 86.113389 129.179865 83.339061 
C 131.954193 80.564733 133.513013 76.801409 133.513013 72.877916 
C 133.513013 68.954424 131.954193 65.191099 129.179865 62.416771 
C 126.405537 59.642443 122.642212 58.083623 118.71872 58.083623 
C 114.795227 58.083623 111.031903 59.642443 108.257575 62.416771 
C 105.483247 65.191099 103.924427 68.954424 103.924427 72.877916 
C 103.924427 76.801409 105.483247 80.564733 108.257575 83.339061 
C 111.031903 86.113389 114.795227 87.672209 118.71872 87.672209 
z
" clip-path="url(#p5eff576f0b)" style="fill: #fa8072; stroke: #000000; stroke-linejoin: miter"/>
   </g>
   <g id="patch_53">
    <path d="M 234.752394 203.705883 
C 238.675886 203.705883 242.439211 202.147063 245.213539 199.372735 
C 247.987867 196.598407 249.546687 192.835082 249.546687 188.91159 
C 249.546687 184.988097 247.987867 181.224773 245.213539 178.450445 
C 242.439211 175.676117 238.675886 174.117296 234.752394 174.117296 
C 230.828901 174.117296 227.065577 175.676117 224.291249 178.450445 
C 221.51692 181.224773 219.9581 184.988097 219.9581 188.91159 
C 219.9581 192.835082 221.51692 196.598407 224.291249 199.372735 
C 227.065577 202.147063 230.828901 203.705883 234.752394 203.705883 
z
" clip-path="url(#p5eff576f0b)" style="fill: #fa8072; stroke: #000000; stroke-linejoin: miter"/>
   </g>
   <g id="patch_54">
    <path d="M 185.231926 195.209514 
C 189.155418 195.209514 192.918743 193.650694 195.693071 190.876366 
C 198.467399 188.102038 200.026219 184.338713 200.026219 180.415221 
C 200.026219 176.491728 198.467399 172.728404 195.693071 169.954076 
C 192.918743 167.179747 189.155418 165.620927 185.231926 165.620927 
C 181.308433 165.620927 177.545109 167.179747 174.770781 169.954076 
C 171.996453 172.728404 170.437632 176.491728 170.437632 180.415221 
C 170.437632 184.338713 171.996453 188.102038 174.770781 190.876366 
C 177.545109 193.650694 181.308433 195.209514 185.231926 195.209514 
z
" clip-path="url(#p5eff576f0b)" style="fill: #fa8072; stroke: #000000; stroke-linejoin: miter"/>
   </g>
   <g id="patch_55">
    <path d="M 122.82113 68.775506 
L 126.92354 64.673096 
" clip-path="url(#p5eff576f0b)" style="fill: #1f77b4; stroke: #000000; stroke-linejoin: miter"/>
   </g>
   <g id="patch_56">
    <path d="M 148.310237 217.33691 
L 152.412647 213.2345 
" clip-path="url(#p5eff576f0b)" style="fill: #1f77b4; stroke: #000000; stroke-linejoin: miter"/>
   </g>
   <g id="patch_57">
    <path d="M 296.871641 242.826017 
L 300.97405 238.723607 
" clip-path="url(#p5eff576f0b)" style="fill: #1f77b4; stroke: #000000; stroke-linejoin: miter"/>
   </g>
   <g id="patch_58">
    <path d="M 271.382533 94.264613 
L 275.484943 90.162203 
" clip-path="url(#p5eff576f0b)" style="fill: #1f77b4; stroke: #000000; stroke-linejoin: miter"/>
   </g>
   <g id="patch_59">
    <path d="M 131.02595 60.570686 
L 135.128359 56.468277 
" clip-path="url(#p5eff576f0b)" style="fill: #1f77b4; stroke: #000000; stroke-linejoin: miter"/>
   </g>
   <g id="patch_60">
    <path d="M 279.587353 86.059794 
L 283.689763 81.957384 
" clip-path="url(#p5eff576f0b)" style="fill: #1f77b4; stroke: #000000; stroke-linejoin: miter"/>
   </g>
   <g id="patch_61">
    <path d="M 156.515057 209.13209 
L 160.617467 205.02968 
" clip-path="url(#p5eff576f0b)" style="fill: #1f77b4; stroke: #000000; stroke-linejoin: miter"/>
   </g>
   <g id="patch_62">
    <path d="M 305.07646 234.621197 
L 309.17887 230.518787 
" clip-path="url(#p5eff576f0b)" style="fill: #1f77b4; stroke: #000000; stroke-linejoin: miter"/>
   </g>
   <g id="patch_63">
    <path d="M 139.230769 67.16016 
C 143.154262 67.16016 146.917586 65.60134 149.691915 62.827012 
C 152.466243 60.052684 154.025063 56.289359 154.025063 52.365867 
C 154.025063 48.442374 152.466243 44.67905 149.691915 41.904721 
C 146.917586 39.130393 143.154262 37.571573 139.230769 37.571573 
C 135.307277 37.571573 131.543952 39.130393 128.769624 41.904721 
C 125.995296 44.67905 124.436476 48.442374 124.436476 52.365867 
C 124.436476 56.289359 125.995296 60.052684 128.769624 62.827012 
C 131.543952 65.60134 135.307277 67.16016 139.230769 67.16016 
z
" clip-path="url(#p5eff576f0b)" style="fill: #fa8072; stroke: #000000; stroke-linejoin: miter"/>
   </g>
   <g id="patch_64">
    <path d="M 188.751237 75.656529 
C 192.67473 75.656529 196.438054 74.097709 199.212382 71.323381 
C 201.986711 68.549053 203.545531 64.785728 203.545531 60.862236 
C 203.545531 56.938743 201.986711 53.175419 199.212382 50.40109 
C 196.438054 47.626762 192.67473 46.067942 188.751237 46.067942 
C 184.827745 46.067942 181.06442 47.626762 178.290092 50.40109 
C 175.515764 53.175419 173.956944 56.938743 173.956944 60.862236 
C 173.956944 64.785728 175.515764 68.549053 178.290092 71.323381 
C 181.06442 74.097709 184.827745 75.656529 188.751237 75.656529 
z
" clip-path="url(#p5eff576f0b)" style="fill: #fa8072; stroke: #000000; stroke-linejoin: miter"/>
   </g>
   <g id="patch_65">
    <path d="M 238.271705 84.152898 
C 242.195198 84.152898 245.958522 82.594078 248.73285 79.81975 
C 251.507178 77.045422 253.065998 73.282097 253.065998 69.358605 
C 253.065998 65.435112 251.507178 61.671788 248.73285 58.89746 
C 245.958522 56.123131 242.195198 54.564311 238.271705 54.564311 
C 234.348213 54.564311 230.584888 56.123131 227.81056 58.89746 
C 225.036232 61.671788 223.477412 65.435112 223.477412 69.358605 
C 223.477412 73.282097 225.036232 77.045422 227.81056 79.81975 
C 230.584888 82.594078 234.348213 84.152898 238.271705 84.152898 
z
" clip-path="url(#p5eff576f0b)" style="fill: #fa8072; stroke: #000000; stroke-linejoin: miter"/>
   </g>
   <g id="patch_66">
    <path d="M 197.247606 125.176997 
C 201.171099 125.176997 204.934423 123.618177 207.708751 120.843849 
C 210.48308 118.069521 212.0419 114.306196 212.0419 110.382704 
C 212.0419 106.459211 210.48308 102.695886 207.708751 99.921558 
C 204.934423 97.14723 201.171099 95.58841 197.247606 95.58841 
C 193.324114 95.58841 189.560789 97.14723 186.786461 99.921558 
C 184.012133 102.695886 182.453313 106.459211 182.453313 110.382704 
C 182.453313 114.306196 184.012133 118.069521 186.786461 120.843849 
C 189.560789 123.618177 193.324114 125.176997 197.247606 125.176997 
z
" clip-path="url(#p5eff576f0b)" style="fill: #fa8072; stroke: #000000; stroke-linejoin: miter"/>
   </g>
   <g id="patch_67">
    <path d="M 147.727138 116.680628 
C 151.650631 116.680628 155.413955 115.121808 158.188284 112.34748 
C 160.962612 109.573152 162.521432 105.809827 162.521432 101.886334 
C 162.521432 97.962842 160.962612 94.199517 158.188284 91.425189 
C 155.413955 88.650861 151.650631 87.092041 147.727138 87.092041 
C 143.803646 87.092041 140.040321 88.650861 137.265993 91.425189 
C 134.491665 94.199517 132.932845 97.962842 132.932845 101.886334 
C 132.932845 105.809827 134.491665 109.573152 137.265993 112.34748 
C 140.040321 115.121808 143.803646 116.680628 147.727138 116.680628 
z
" clip-path="url(#p5eff576f0b)" style="fill: #fa8072; stroke: #000000; stroke-linejoin: miter"/>
   </g>
   <g id="patch_68">
    <path d="M 246.768074 133.673366 
C 250.691567 133.673366 254.454891 132.114546 257.229219 129.340218 
C 260.003547 126.56589 261.562368 122.802565 261.562368 118.879073 
C 261.562368 114.95558 260.003547 111.192256 257.229219 108.417927 
C 254.454891 105.643599 250.691567 104.084779 246.768074 104.084779 
C 242.844582 104.084779 239.081257 105.643599 236.306929 108.417927 
C 233.532601 111.192256 231.973781 114.95558 231.973781 118.879073 
C 231.973781 122.802565 233.532601 126.56589 236.306929 129.340218 
C 239.081257 132.114546 242.844582 133.673366 246.768074 133.673366 
z
" clip-path="url(#p5eff576f0b)" style="fill: #fa8072; stroke: #000000; stroke-linejoin: miter"/>
   </g>
   <g id="patch_69">
    <path d="M 205.743975 174.697465 
C 209.667468 174.697465 213.430792 173.138645 216.20512 170.364317 
C 218.979449 167.589988 220.538269 163.826664 220.538269 159.903171 
C 220.538269 155.979679 218.979449 152.216354 216.20512 149.442026 
C 213.430792 146.667698 209.667468 145.108878 205.743975 145.108878 
C 201.820483 145.108878 198.057158 146.667698 195.28283 149.442026 
C 192.508502 152.216354 190.949682 155.979679 190.949682 159.903171 
C 190.949682 163.826664 192.508502 167.589988 195.28283 170.364317 
C 198.057158 173.138645 201.820483 174.697465 205.743975 174.697465 
z
" clip-path="url(#p5eff576f0b)" style="fill: #fa8072; stroke: #000000; stroke-linejoin: miter"/>
   </g>
   <g id="patch_70">
    <path d="M 156.223507 166.201096 
C 160.147 166.201096 163.910324 164.642276 166.684653 161.867948 
C 169.458981 159.093619 171.017801 155.330295 171.017801 151.406802 
C 171.017801 147.48331 169.458981 143.719985 166.684653 140.945657 
C 163.910324 138.171329 160.147 136.612509 156.223507 136.612509 
C 152.300015 136.612509 148.53669 138.171329 145.762362 140.945657 
C 142.988034 143.719985 141.429214 147.48331 141.429214 151.406802 
C 141.429214 155.330295 142.988034 159.093619 145.762362 161.867948 
C 148.53669 164.642276 152.300015 166.201096 156.223507 166.201096 
z
" clip-path="url(#p5eff576f0b)" style="fill: #fa8072; stroke: #000000; stroke-linejoin: miter"/>
   </g>
   <g id="patch_71">
    <path d="M 255.264443 183.193834 
C 259.187936 183.193834 262.95126 181.635014 265.725588 178.860686 
C 268.499916 176.086358 270.058737 172.323033 270.058737 168.39954 
C 270.058737 164.476048 268.499916 160.712723 265.725588 157.938395 
C 262.95126 155.164067 259.187936 153.605247 255.264443 153.605247 
C 251.340951 153.605247 247.577626 155.164067 244.803298 157.938395 
C 242.02897 160.712723 240.47015 164.476048 240.47015 168.39954 
C 240.47015 172.323033 242.02897 176.086358 244.803298 178.860686 
C 247.577626 181.635014 251.340951 183.193834 255.264443 183.193834 
z
" clip-path="url(#p5eff576f0b)" style="fill: #fa8072; stroke: #000000; stroke-linejoin: miter"/>
   </g>
   <g id="patch_72">
    <path d="M 313.28128 226.416377 
L 317.38369 222.313968 
" clip-path="url(#p5eff576f0b)" style="fill: #1f77b4; stroke: #000000; stroke-linejoin: miter"/>
   </g>
   <g id="patch_73">
    <path d="M 287.792173 77.854974 
L 291.894583 73.752564 
" clip-path="url(#p5eff576f0b)" style="fill: #1f77b4; stroke: #000000; stroke-linejoin: miter"/>
   </g>
   <g id="patch_74">
    <path d="M 164.719876 200.92727 
L 168.822286 196.82486 
" clip-path="url(#p5eff576f0b)" style="fill: #1f77b4; stroke: #000000; stroke-linejoin: miter"/>
   </g>
   <g id="patch_75">
    <path d="M 147.435589 44.161047 
L 151.537999 40.058637 
" clip-path="url(#p5eff576f0b)" style="fill: #1f77b4; stroke: #000000; stroke-linejoin: miter"/>
   </g>
   <g id="patch_76">
    <path d="M 295.996993 69.650154 
L 300.099403 65.547744 
" clip-path="url(#p5eff576f0b)" style="fill: #1f77b4; stroke: #000000; stroke-linejoin: miter"/>
   </g>
   <g id="patch_77">
    <path d="M 321.4861 218.211558 
L 325.58851 214.109148 
" clip-path="url(#p5eff576f0b)" style="fill: #1f77b4; stroke: #000000; stroke-linejoin: miter"/>
   </g>
   <g id="patch_78">
    <path d="M 172.924696 192.72245 
L 177.027106 188.620041 
" clip-path="url(#p5eff576f0b)" style="fill: #1f77b4; stroke: #000000; stroke-linejoin: miter"/>
   </g>
   <g id="patch_79">
    <path d="M 304.201812 61.445334 
L 308.304222 57.342924 
" clip-path="url(#p5eff576f0b)" style="fill: #1f77b4; stroke: #000000; stroke-linejoin: miter"/>
   </g>
   <g id="patch_80">
    <path d="M 181.129516 184.517631 
L 185.231926 180.415221 
" clip-path="url(#p5eff576f0b)" style="fill: #1f77b4; stroke: #000000; stroke-linejoin: miter"/>
   </g>
   <g id="patch_81">
    <path d="M 329.69092 210.006738 
L 333.793329 205.904328 
" clip-path="url(#p5eff576f0b)" style="fill: #1f77b4; stroke: #000000; stroke-linejoin: miter"/>
   </g>
   <g id="patch_82">
    <path d="M 159.742819 46.648111 
C 163.666311 46.648111 167.429636 45.089291 170.203964 42.314962 
C 172.978292 39.540634 174.537112 35.77731 174.537112 31.853817 
C 174.537112 27.930325 172.978292 24.167 170.203964 21.392672 
C 167.429636 18.618344 163.666311 17.059524 159.742819 17.059524 
C 155.819326 17.059524 152.056002 18.618344 149.281674 21.392672 
C 146.507345 24.167 144.948525 27.930325 144.948525 31.853817 
C 144.948525 35.77731 146.507345 39.540634 149.281674 42.314962 
C 152.056002 45.089291 155.819326 46.648111 159.742819 46.648111 
z
" clip-path="url(#p5eff576f0b)" style="fill: #fa8072; stroke: #000000; stroke-linejoin: miter"/>
   </g>
   <g id="patch_83">
    <path d="M 189.455099 36.951639 
L 179.551006 35.252365 
" clip-path="url(#p5eff576f0b)" style="fill: #1f77b4; stroke: #000000; stroke-linejoin: miter"/>
   </g>
   <g id="patch_84">
    <path d="M 248.879661 47.147282 
L 238.975567 45.448008 
" clip-path="url(#p5eff576f0b)" style="fill: #1f77b4; stroke: #000000; stroke-linejoin: miter"/>
   </g>
   <g id="patch_85">
    <path d="M 209.263287 55.14448 
C 213.186779 55.14448 216.950104 53.58566 219.724432 50.811331 
C 222.49876 48.037003 224.05758 44.273679 224.05758 40.350186 
C 224.05758 36.426694 222.49876 32.663369 219.724432 29.889041 
C 216.950104 27.114713 213.186779 25.555893 209.263287 25.555893 
C 205.339794 25.555893 201.57647 27.114713 198.802141 29.889041 
C 196.027813 32.663369 194.468993 36.426694 194.468993 40.350186 
C 194.468993 44.273679 196.027813 48.037003 198.802141 50.811331 
C 201.57647 53.58566 205.339794 55.14448 209.263287 55.14448 
z
" clip-path="url(#p5eff576f0b)" style="fill: #fa8072; stroke: #000000; stroke-linejoin: miter"/>
   </g>
   <g id="patch_86">
    <path d="M 229.071474 43.748734 
L 219.16738 42.04946 
" clip-path="url(#p5eff576f0b)" style="fill: #1f77b4; stroke: #000000; stroke-linejoin: miter"/>
   </g>
   <g id="patch_87">
    <path d="M 164.84064 61.566098 
L 163.141366 51.662004 
" clip-path="url(#p5eff576f0b)" style="fill: #1f77b4; stroke: #000000; stroke-linejoin: miter"/>
   </g>
   <g id="patch_88">
    <path d="M 258.783754 63.640849 
C 262.707247 63.640849 266.470572 62.082029 269.2449 59.307701 
C 272.019228 56.533372 273.578048 52.770048 273.578048 48.846555 
C 273.578048 44.923063 272.019228 41.159738 269.2449 38.38541 
C 266.470572 35.611082 262.707247 34.052262 258.783754 34.052262 
C 254.860262 34.052262 251.096937 35.611082 248.322609 38.38541 
C 245.548281 41.159738 243.989461 44.923063 243.989461 48.846555 
C 243.989461 52.770048 245.548281 56.533372 248.322609 59.307701 
C 251.096937 62.082029 254.860262 63.640849 258.783754 63.640849 
z
" clip-path="url(#p5eff576f0b)" style="fill: #fa8072; stroke: #000000; stroke-linejoin: miter"/>
   </g>
   <g id="patch_89">
    <path d="M 316.800591 106.863392 
L 315.101318 96.959299 
" clip-path="url(#p5eff576f0b)" style="fill: #1f77b4; stroke: #000000; stroke-linejoin: miter"/>
   </g>
   <g id="patch_90">
    <path d="M 168.239188 96.168579 
C 172.16268 96.168579 175.926005 94.609758 178.700333 91.83543 
C 181.474661 89.061102 183.033481 85.297778 183.033481 81.374285 
C 183.033481 77.450793 181.474661 73.687468 178.700333 70.91314 
C 175.926005 68.138812 172.16268 66.579992 168.239188 66.579992 
C 164.315695 66.579992 160.552371 68.138812 157.778043 70.91314 
C 155.003714 73.687468 153.444894 77.450793 153.444894 81.374285 
C 153.444894 85.297778 155.003714 89.061102 157.778043 91.83543 
C 160.552371 94.609758 164.315695 96.168579 168.239188 96.168579 
z
" clip-path="url(#p5eff576f0b)" style="fill: #fa8072; stroke: #000000; stroke-linejoin: miter"/>
   </g>
   <g id="patch_91">
    <path d="M 288.496035 53.944377 
L 278.591942 52.245103 
" clip-path="url(#p5eff576f0b)" style="fill: #1f77b4; stroke: #000000; stroke-linejoin: miter"/>
   </g>
   <g id="patch_92">
    <path d="M 171.637735 101.182472 
L 169.938462 91.278379 
" clip-path="url(#p5eff576f0b)" style="fill: #1f77b4; stroke: #000000; stroke-linejoin: miter"/>
   </g>
   <g id="patch_93">
    <path d="M 175.036283 120.990659 
L 173.337009 111.086566 
" clip-path="url(#p5eff576f0b)" style="fill: #1f77b4; stroke: #000000; stroke-linejoin: miter"/>
   </g>
   <g id="patch_94">
    <path d="M 217.759656 104.664948 
C 221.683148 104.664948 225.446473 103.106127 228.220801 100.331799 
C 230.995129 97.557471 232.553949 93.794147 232.553949 89.870654 
C 232.553949 85.947162 230.995129 82.183837 228.220801 79.409509 
C 225.446473 76.635181 221.683148 75.076361 217.759656 75.076361 
C 213.836163 75.076361 210.072839 76.635181 207.29851 79.409509 
C 204.524182 82.183837 202.965362 85.947162 202.965362 89.870654 
C 202.965362 93.794147 204.524182 97.557471 207.29851 100.331799 
C 210.072839 103.106127 213.836163 104.664948 217.759656 104.664948 
z
" clip-path="url(#p5eff576f0b)" style="fill: #fa8072; stroke: #000000; stroke-linejoin: miter"/>
   </g>
   <g id="patch_95">
    <path d="M 320.199139 126.671579 
L 318.499865 116.767486 
" clip-path="url(#p5eff576f0b)" style="fill: #1f77b4; stroke: #000000; stroke-linejoin: miter"/>
   </g>
   <g id="patch_96">
    <path d="M 267.280124 113.161317 
C 271.203616 113.161317 274.966941 111.602497 277.741269 108.828168 
C 280.515597 106.05384 282.074417 102.290516 282.074417 98.367023 
C 282.074417 94.443531 280.515597 90.680206 277.741269 87.905878 
C 274.966941 85.13155 271.203616 83.57273 267.280124 83.57273 
C 263.356631 83.57273 259.593306 85.13155 256.818978 87.905878 
C 254.04465 90.680206 252.48583 94.443531 252.48583 98.367023 
C 252.48583 102.290516 254.04465 106.05384 256.818978 108.828168 
C 259.593306 111.602497 263.356631 113.161317 267.280124 113.161317 
z
" clip-path="url(#p5eff576f0b)" style="fill: #fa8072; stroke: #000000; stroke-linejoin: miter"/>
   </g>
   <g id="patch_97">
    <path d="M 176.735557 145.689046 
C 180.659049 145.689046 184.422374 144.130226 187.196702 141.355898 
C 189.97103 138.58157 191.52985 134.818245 191.52985 130.894753 
C 191.52985 126.97126 189.97103 123.207936 187.196702 120.433608 
C 184.422374 117.65928 180.659049 116.10046 176.735557 116.10046 
C 172.812064 116.10046 169.04874 117.65928 166.274412 120.433608 
C 163.500084 123.207936 161.941263 126.97126 161.941263 130.894753 
C 161.941263 134.818245 163.500084 138.58157 166.274412 141.355898 
C 169.04874 144.130226 172.812064 145.689046 176.735557 145.689046 
z
" clip-path="url(#p5eff576f0b)" style="fill: #fa8072; stroke: #000000; stroke-linejoin: miter"/>
   </g>
   <g id="patch_98">
    <path d="M 308.304222 57.342924 
L 298.400129 55.643651 
" clip-path="url(#p5eff576f0b)" style="fill: #1f77b4; stroke: #000000; stroke-linejoin: miter"/>
   </g>
   <g id="patch_99">
    <path d="M 234.752394 188.91159 
L 224.8483 187.212316 
" clip-path="url(#p5eff576f0b)" style="fill: #1f77b4; stroke: #000000; stroke-linejoin: miter"/>
   </g>
   <g id="patch_100">
    <path d="M 226.256025 154.185415 
C 230.179517 154.185415 233.942842 152.626595 236.71717 149.852267 
C 239.491498 147.077939 241.050318 143.314614 241.050318 139.391122 
C 241.050318 135.46763 239.491498 131.704305 236.71717 128.929977 
C 233.942842 126.155649 230.179517 124.596829 226.256025 124.596829 
C 222.332532 124.596829 218.569208 126.155649 215.79488 128.929977 
C 213.020551 131.704305 211.461731 135.46763 211.461731 139.391122 
C 211.461731 143.314614 213.020551 147.077939 215.79488 149.852267 
C 218.569208 152.626595 222.332532 154.185415 226.256025 154.185415 
z
" clip-path="url(#p5eff576f0b)" style="fill: #fa8072; stroke: #000000; stroke-linejoin: miter"/>
   </g>
   <g id="patch_101">
    <path d="M 254.560581 192.310137 
L 244.656487 190.610864 
" clip-path="url(#p5eff576f0b)" style="fill: #1f77b4; stroke: #000000; stroke-linejoin: miter"/>
   </g>
   <g id="patch_102">
    <path d="M 181.833378 160.607034 
L 180.134104 150.70294 
" clip-path="url(#p5eff576f0b)" style="fill: #1f77b4; stroke: #000000; stroke-linejoin: miter"/>
   </g>
   <g id="patch_103">
    <path d="M 326.996234 166.287954 
L 325.29696 156.38386 
" clip-path="url(#p5eff576f0b)" style="fill: #1f77b4; stroke: #000000; stroke-linejoin: miter"/>
   </g>
   <g id="patch_104">
    <path d="M 310.003496 67.247018 
L 308.304222 57.342924 
" clip-path="url(#p5eff576f0b)" style="fill: #1f77b4; stroke: #000000; stroke-linejoin: miter"/>
   </g>
   <g id="patch_105">
    <path d="M 275.776493 162.681784 
C 279.699985 162.681784 283.46331 161.122964 286.237638 158.348636 
C 289.011966 155.574308 290.570786 151.810984 290.570786 147.887491 
C 290.570786 143.963999 289.011966 140.200674 286.237638 137.426346 
C 283.46331 134.652018 279.699985 133.093198 275.776493 133.093198 
C 271.853 133.093198 268.089676 134.652018 265.315347 137.426346 
C 262.541019 140.200674 260.982199 143.963999 260.982199 147.887491 
C 260.982199 151.810984 262.541019 155.574308 265.315347 158.348636 
C 268.089676 161.122964 271.853 162.681784 275.776493 162.681784 
z
" clip-path="url(#p5eff576f0b)" style="fill: #fa8072; stroke: #000000; stroke-linejoin: miter"/>
   </g>
   <g id="patch_106">
    <path d="M 294.176955 199.107233 
L 284.272862 197.407959 
" clip-path="url(#p5eff576f0b)" style="fill: #1f77b4; stroke: #000000; stroke-linejoin: miter"/>
   </g>
   <g id="patch_107">
    <path d="M 313.402044 87.055205 
L 311.70277 77.151112 
" clip-path="url(#p5eff576f0b)" style="fill: #1f77b4; stroke: #000000; stroke-linejoin: miter"/>
   </g>
   <g id="patch_108">
    <path d="M 185.231926 180.415221 
L 183.532652 170.511127 
" clip-path="url(#p5eff576f0b)" style="fill: #1f77b4; stroke: #000000; stroke-linejoin: miter"/>
   </g>
   <g id="patch_109">
    <path d="M 323.597687 146.479767 
L 321.898413 136.575673 
" clip-path="url(#p5eff576f0b)" style="fill: #1f77b4; stroke: #000000; stroke-linejoin: miter"/>
   </g>
   <g id="patch_110">
    <path d="M 195.136019 182.114495 
L 185.231926 180.415221 
" clip-path="url(#p5eff576f0b)" style="fill: #1f77b4; stroke: #000000; stroke-linejoin: miter"/>
   </g>
   <g id="patch_111">
    <path d="M 214.944207 185.513042 
L 205.040113 183.813768 
" clip-path="url(#p5eff576f0b)" style="fill: #1f77b4; stroke: #000000; stroke-linejoin: miter"/>
   </g>
   <g id="patch_112">
    <path d="M 274.368768 195.708685 
L 264.464674 194.009411 
" clip-path="url(#p5eff576f0b)" style="fill: #1f77b4; stroke: #000000; stroke-linejoin: miter"/>
   </g>
   <g id="patch_113">
    <path d="M 333.793329 205.904328 
L 332.094056 196.000234 
" clip-path="url(#p5eff576f0b)" style="fill: #1f77b4; stroke: #000000; stroke-linejoin: miter"/>
   </g>
   <g id="patch_114">
    <path d="M 333.793329 205.904328 
L 323.889236 204.205054 
" clip-path="url(#p5eff576f0b)" style="fill: #1f77b4; stroke: #000000; stroke-linejoin: miter"/>
   </g>
   <g id="patch_115">
    <path d="M 330.394782 186.096141 
L 328.695508 176.192047 
" clip-path="url(#p5eff576f0b)" style="fill: #1f77b4; stroke: #000000; stroke-linejoin: miter"/>
   </g>
   <g id="patch_116">
    <path d="M 313.985142 202.50578 
L 304.081049 200.806507 
" clip-path="url(#p5eff576f0b)" style="fill: #1f77b4; stroke: #000000; stroke-linejoin: miter"/>
   </g>
   <g id="matplotlib.axis_1"/>
   <g id="matplotlib.axis_2"/>
   <g id="patch_117">
    <path d="M 92.317004 273.7 
L 92.317004 10.8 
" style="fill: none; stroke: #000000; stroke-width: 0.8; stroke-linejoin: miter; stroke-linecap: square"/>
   </g>
   <g id="patch_118">
    <path d="M 339.682996 273.7 
L 339.682996 10.8 
" style="fill: none; stroke: #000000; stroke-width: 0.8; stroke-linejoin: miter; stroke-linecap: square"/>
   </g>
   <g id="patch_119">
    <path d="M 92.317004 273.7 
L 339.682996 273.7 
" style="fill: none; stroke: #000000; stroke-width: 0.8; stroke-linejoin: miter; stroke-linecap: square"/>
   </g>
   <g id="patch_120">
    <path d="M 92.317004 10.8 
L 339.682996 10.8 
" style="fill: none; stroke: #000000; stroke-width: 0.8; stroke-linejoin: miter; stroke-linecap: square"/>
   </g>
  </g>
 </g>
 <defs>
  <clipPath id="p5eff576f0b">
   <rect x="92.317004" y="10.8" width="247.365992" height="262.9"/>
  </clipPath>
 </defs>
</svg>
