<?xml version="1.0" encoding="utf-8" standalone="no"?>
<!DOCTYPE svg PUBLIC "-//W3C//DTD SVG 1.1//EN"
  "http://www.w3.org/Graphics/SVG/1.1/DTD/svg11.dtd">
<svg xmlns:xlink="http://www.w3.org/1999/xlink" width="432pt" height="288pt" viewBox="0 0 432 288" xmlns="http://www.w3.org/2000/svg" version="1.1">
 <metadata>
  <rdf:RDF xmlns:dc="http://purl.org/dc/elements/1.1/" xmlns:cc="http://creativecommons.org/ns#" xmlns:rdf="http://www.w3.org/1999/02/22-rdf-syntax-ns#">
   <cc:Work>
    <dc:type rdf:resource="http://purl.org/dc/dcmitype/StillImage"/>
    <dc:date>2022-04-24T21:02:06.673552</dc:date>
    <dc:format>image/svg+xml</dc:format>
    <dc:creator>
     <cc:Agent>
      <dc:title>Matplotlib v3.5.1, https://matplotlib.org/</dc:title>
     </cc:Agent>
    </dc:creator>
   </cc:Work>
  </rdf:RDF>
 </metadata>
 <defs>
  <style type="text/css">*{stroke-linejoin: round; stroke-linecap: butt}</style>
 </defs>
 <g id="figure_1">
  <g id="patch_1">
   <path d="M 0 288 
L 432 288 
L 432 0 
L 0 0 
L 0 288 
z
" style="fill: none"/>
  </g>
  <g id="axes_1">
   <g id="patch_2">
    <path d="M 14.3 273.23474 
L 421.2 273.23474 
L 421.2 14.451503 
L 14.3 14.451503 
z
" style="fill: #ffffff"/>
   </g>
   <g id="patch_3">
    <path d="M 222.621686 127.380349 
L 212.127785 125.57988 
" clip-path="url(#p3b1c39c594)" style="fill: #1f77b4; stroke: #000000; stroke-linejoin: miter"/>
   </g>
   <g id="patch_4">
    <path d="M 212.127785 125.57988 
L 206.481236 131.22643 
" clip-path="url(#p3b1c39c594)" style="fill: #1f77b4; stroke: #000000; stroke-linejoin: miter"/>
   </g>
   <g id="patch_5">
    <path d="M 207.872246 120.055308 
L 212.127785 125.57988 
" clip-path="url(#p3b1c39c594)" style="fill: #1f77b4; stroke: #000000; stroke-linejoin: miter"/>
   </g>
   <g id="patch_6">
    <path d="M 243.609488 130.981287 
L 233.115587 129.180818 
" clip-path="url(#p3b1c39c594)" style="fill: #1f77b4; stroke: #000000; stroke-linejoin: miter"/>
   </g>
   <g id="patch_7">
    <path d="M 200.834686 136.87298 
L 195.188136 142.51953 
" clip-path="url(#p3b1c39c594)" style="fill: #1f77b4; stroke: #000000; stroke-linejoin: miter"/>
   </g>
   <g id="patch_8">
    <path d="M 199.361168 109.006164 
L 203.616707 114.530736 
" clip-path="url(#p3b1c39c594)" style="fill: #1f77b4; stroke: #000000; stroke-linejoin: miter"/>
   </g>
   <g id="patch_9">
    <path d="M 264.59729 134.582224 
L 254.103389 132.781755 
" clip-path="url(#p3b1c39c594)" style="fill: #1f77b4; stroke: #000000; stroke-linejoin: miter"/>
   </g>
   <g id="patch_10">
    <path d="M 189.541586 148.16608 
L 183.895036 153.81263 
" clip-path="url(#p3b1c39c594)" style="fill: #1f77b4; stroke: #000000; stroke-linejoin: miter"/>
   </g>
   <g id="patch_11">
    <path d="M 285.585093 138.183162 
L 275.091192 136.382693 
" clip-path="url(#p3b1c39c594)" style="fill: #1f77b4; stroke: #000000; stroke-linejoin: miter"/>
   </g>
   <g id="patch_12">
    <path d="M 190.85009 97.957019 
L 195.105629 103.481592 
" clip-path="url(#p3b1c39c594)" style="fill: #1f77b4; stroke: #000000; stroke-linejoin: miter"/>
   </g>
   <g id="patch_13">
    <path d="M 176.366303 176.46847 
C 180.378059 176.46847 184.226043 174.874583 187.062783 172.037843 
C 189.899523 169.201103 191.49341 165.353119 191.49341 161.341363 
C 191.49341 157.329607 189.899523 153.481623 187.062783 150.644883 
C 184.226043 147.808143 180.378059 146.214256 176.366303 146.214256 
C 172.354547 146.214256 168.506562 147.808143 165.669823 150.644883 
C 162.833083 153.481623 161.239196 157.329607 161.239196 161.341363 
C 161.239196 165.353119 162.833083 169.201103 165.669823 172.037843 
C 168.506562 174.874583 172.354547 176.46847 176.366303 176.46847 
z
" clip-path="url(#p3b1c39c594)" style="fill: #fa8072; stroke: #000000; stroke-linejoin: miter"/>
   </g>
   <g id="patch_14">
    <path d="M 306.572895 141.784099 
L 296.078994 139.98363 
" clip-path="url(#p3b1c39c594)" style="fill: #1f77b4; stroke: #000000; stroke-linejoin: miter"/>
   </g>
   <g id="patch_15">
    <path d="M 182.339012 86.907875 
L 186.594551 92.432447 
" clip-path="url(#p3b1c39c594)" style="fill: #1f77b4; stroke: #000000; stroke-linejoin: miter"/>
   </g>
   <g id="patch_16">
    <path d="M 327.560697 145.385037 
L 317.066796 143.584568 
" clip-path="url(#p3b1c39c594)" style="fill: #1f77b4; stroke: #000000; stroke-linejoin: miter"/>
   </g>
   <g id="patch_17">
    <path d="M 166.955386 170.752279 
L 161.308836 176.398829 
" clip-path="url(#p3b1c39c594)" style="fill: #1f77b4; stroke: #000000; stroke-linejoin: miter"/>
   </g>
   <g id="patch_18">
    <path d="M 173.827934 75.858731 
L 178.083473 81.383303 
" clip-path="url(#p3b1c39c594)" style="fill: #1f77b4; stroke: #000000; stroke-linejoin: miter"/>
   </g>
   <g id="patch_19">
    <path d="M 348.548499 148.985974 
L 338.054598 147.185506 
" clip-path="url(#p3b1c39c594)" style="fill: #1f77b4; stroke: #000000; stroke-linejoin: miter"/>
   </g>
   <g id="patch_20">
    <path d="M 155.662287 182.045379 
L 150.015737 187.691929 
" clip-path="url(#p3b1c39c594)" style="fill: #1f77b4; stroke: #000000; stroke-linejoin: miter"/>
   </g>
   <g id="patch_21">
    <path d="M 369.536301 152.586912 
L 359.0424 150.786443 
" clip-path="url(#p3b1c39c594)" style="fill: #1f77b4; stroke: #000000; stroke-linejoin: miter"/>
   </g>
   <g id="patch_22">
    <path d="M 165.316856 64.809586 
L 169.572395 70.334158 
" clip-path="url(#p3b1c39c594)" style="fill: #1f77b4; stroke: #000000; stroke-linejoin: miter"/>
   </g>
   <g id="patch_23">
    <path d="M 220.164995 149.774231 
C 224.176751 149.774231 228.024736 148.180344 230.861475 145.343604 
C 233.698215 142.506864 235.292102 138.65888 235.292102 134.647124 
C 235.292102 130.635368 233.698215 126.787383 230.861475 123.950644 
C 228.024736 121.113904 224.176751 119.520017 220.164995 119.520017 
C 216.15324 119.520017 212.305255 121.113904 209.468515 123.950644 
C 206.631776 126.787383 205.037888 130.635368 205.037888 134.647124 
C 205.037888 138.65888 206.631776 142.506864 209.468515 145.343604 
C 212.305255 148.180344 216.15324 149.774231 220.164995 149.774231 
z
" clip-path="url(#p3b1c39c594)" style="fill: #fa8072; stroke: #000000; stroke-linejoin: miter"/>
   </g>
   <g id="patch_24">
    <path d="M 140.60482 212.229953 
C 144.616576 212.229953 148.464561 210.636065 151.3013 207.799326 
C 154.13804 204.962586 155.731927 201.114601 155.731927 197.102845 
C 155.731927 193.09109 154.13804 189.243105 151.3013 186.406365 
C 148.464561 183.569626 144.616576 181.975738 140.60482 181.975738 
C 136.593065 181.975738 132.74508 183.569626 129.90834 186.406365 
C 127.071601 189.243105 125.477713 193.09109 125.477713 197.102845 
C 125.477713 201.114601 127.071601 204.962586 129.90834 207.799326 
C 132.74508 210.636065 136.593065 212.229953 140.60482 212.229953 
z
" clip-path="url(#p3b1c39c594)" style="fill: #fa8072; stroke: #000000; stroke-linejoin: miter"/>
   </g>
   <g id="patch_25">
    <path d="M 390.524103 156.187849 
L 380.030202 154.387381 
" clip-path="url(#p3b1c39c594)" style="fill: #1f77b4; stroke: #000000; stroke-linejoin: miter"/>
   </g>
   <g id="patch_26">
    <path d="M 149.414555 141.479513 
C 153.426311 141.479513 157.274296 139.885625 160.111035 137.048886 
C 162.947775 134.212146 164.541662 130.364161 164.541662 126.352406 
C 164.541662 122.34065 162.947775 118.492665 160.111035 115.655926 
C 157.274296 112.819186 153.426311 111.225298 149.414555 111.225298 
C 145.4028 111.225298 141.554815 112.819186 138.718075 115.655926 
C 135.881336 118.492665 134.287448 122.34065 134.287448 126.352406 
C 134.287448 130.364161 135.881336 134.212146 138.718075 137.048886 
C 141.554815 139.885625 145.4028 141.479513 149.414555 141.479513 
z
" clip-path="url(#p3b1c39c594)" style="fill: #fa8072; stroke: #000000; stroke-linejoin: miter"/>
   </g>
   <g id="patch_27">
    <path d="M 276.058363 193.572923 
C 280.070118 193.572923 283.918103 191.979036 286.754843 189.142296 
C 289.591582 186.305557 291.18547 182.457572 291.18547 178.445816 
C 291.18547 174.434061 289.591582 170.586076 286.754843 167.749336 
C 283.918103 164.912597 280.070118 163.318709 276.058363 163.318709 
C 272.046607 163.318709 268.198622 164.912597 265.361882 167.749336 
C 262.525143 170.586076 260.931255 174.434061 260.931255 178.445816 
C 260.931255 182.457572 262.525143 186.305557 265.361882 189.142296 
C 268.198622 191.979036 272.046607 193.572923 276.058363 193.572923 
z
" clip-path="url(#p3b1c39c594)" style="fill: #fa8072; stroke: #000000; stroke-linejoin: miter"/>
   </g>
   <g id="patch_28">
    <path d="M 156.805777 53.760442 
L 161.061316 59.285014 
" clip-path="url(#p3b1c39c594)" style="fill: #1f77b4; stroke: #000000; stroke-linejoin: miter"/>
   </g>
   <g id="patch_29">
    <path d="M 411.511905 159.788787 
L 401.018004 157.988318 
" clip-path="url(#p3b1c39c594)" style="fill: #1f77b4; stroke: #000000; stroke-linejoin: miter"/>
   </g>
   <g id="patch_30">
    <path d="M 133.076087 204.631579 
L 127.429537 210.278129 
" clip-path="url(#p3b1c39c594)" style="fill: #1f77b4; stroke: #000000; stroke-linejoin: miter"/>
   </g>
   <g id="patch_31">
    <path d="M 411.511905 159.788787 
L 405.865355 165.435337 
" clip-path="url(#p3b1c39c594)" style="fill: #1f77b4; stroke: #000000; stroke-linejoin: miter"/>
   </g>
   <g id="patch_32">
    <path d="M 407.256366 154.264215 
L 411.511905 159.788787 
" clip-path="url(#p3b1c39c594)" style="fill: #1f77b4; stroke: #000000; stroke-linejoin: miter"/>
   </g>
   <g id="patch_33">
    <path d="M 148.294699 42.711297 
L 152.550238 48.235869 
" clip-path="url(#p3b1c39c594)" style="fill: #1f77b4; stroke: #000000; stroke-linejoin: miter"/>
   </g>
   <g id="patch_34">
    <path d="M 121.782987 215.924678 
L 116.136437 221.571228 
" clip-path="url(#p3b1c39c594)" style="fill: #1f77b4; stroke: #000000; stroke-linejoin: miter"/>
   </g>
   <g id="patch_35">
    <path d="M 400.218805 171.081887 
L 394.572255 176.728437 
" clip-path="url(#p3b1c39c594)" style="fill: #1f77b4; stroke: #000000; stroke-linejoin: miter"/>
   </g>
   <g id="patch_36">
    <path d="M 398.745288 143.21507 
L 403.000827 148.739643 
" clip-path="url(#p3b1c39c594)" style="fill: #1f77b4; stroke: #000000; stroke-linejoin: miter"/>
   </g>
   <g id="patch_37">
    <path d="M 139.783621 31.662153 
L 144.03916 37.186725 
" clip-path="url(#p3b1c39c594)" style="fill: #1f77b4; stroke: #000000; stroke-linejoin: miter"/>
   </g>
   <g id="patch_38">
    <path d="M 184.403513 185.535714 
C 188.415268 185.535714 192.263253 183.941826 195.099993 181.105086 
C 197.936732 178.268347 199.53062 174.420362 199.53062 170.408606 
C 199.53062 166.396851 197.936732 162.548866 195.099993 159.712126 
C 192.263253 156.875387 188.415268 155.281499 184.403513 155.281499 
C 180.391757 155.281499 176.543772 156.875387 173.707033 159.712126 
C 170.870293 162.548866 169.276406 166.396851 169.276406 170.408606 
C 169.276406 174.420362 170.870293 178.268347 173.707033 181.105086 
C 176.543772 183.941826 180.391757 185.535714 184.403513 185.535714 
z
" clip-path="url(#p3b1c39c594)" style="fill: #fa8072; stroke: #000000; stroke-linejoin: miter"/>
   </g>
   <g id="patch_39">
    <path d="M 104.843338 247.991435 
C 108.855093 247.991435 112.703078 246.397548 115.539818 243.560808 
C 118.376557 240.724068 119.970445 236.876084 119.970445 232.864328 
C 119.970445 228.852572 118.376557 225.004588 115.539818 222.167848 
C 112.703078 219.331108 108.855093 217.737221 104.843338 217.737221 
C 100.831582 217.737221 96.983597 219.331108 94.146858 222.167848 
C 91.310118 225.004588 89.716231 228.852572 89.716231 232.864328 
C 89.716231 236.876084 91.310118 240.724068 94.146858 243.560808 
C 96.983597 246.397548 100.831582 247.991435 104.843338 247.991435 
z
" clip-path="url(#p3b1c39c594)" style="fill: #fa8072; stroke: #000000; stroke-linejoin: miter"/>
   </g>
   <g id="patch_40">
    <path d="M 388.925705 182.374986 
L 383.279155 188.021536 
" clip-path="url(#p3b1c39c594)" style="fill: #1f77b4; stroke: #000000; stroke-linejoin: miter"/>
   </g>
   <g id="patch_41">
    <path d="M 193.213248 114.785274 
C 197.225003 114.785274 201.072988 113.191386 203.909728 110.354647 
C 206.746467 107.517907 208.340355 103.669922 208.340355 99.658167 
C 208.340355 95.646411 206.746467 91.798426 203.909728 88.961687 
C 201.072988 86.124947 197.225003 84.531059 193.213248 84.531059 
C 189.201492 84.531059 185.353507 86.124947 182.516768 88.961687 
C 179.680028 91.798426 178.086141 95.646411 178.086141 99.658167 
C 178.086141 103.669922 179.680028 107.517907 182.516768 110.354647 
C 185.353507 113.191386 189.201492 114.785274 193.213248 114.785274 
z
" clip-path="url(#p3b1c39c594)" style="fill: #fa8072; stroke: #000000; stroke-linejoin: miter"/>
   </g>
   <g id="patch_42">
    <path d="M 390.234209 132.165926 
L 394.489748 137.690498 
" clip-path="url(#p3b1c39c594)" style="fill: #1f77b4; stroke: #000000; stroke-linejoin: miter"/>
   </g>
   <g id="patch_43">
    <path d="M 113.653073 177.240995 
C 117.664828 177.240995 121.512813 175.647108 124.349553 172.810368 
C 127.186292 169.973629 128.78018 166.125644 128.78018 162.113888 
C 128.78018 158.102132 127.186292 154.254148 124.349553 151.417408 
C 121.512813 148.580669 117.664828 146.986781 113.653073 146.986781 
C 109.641317 146.986781 105.793332 148.580669 102.956593 151.417408 
C 100.119853 154.254148 98.525966 158.102132 98.525966 162.113888 
C 98.525966 166.125644 100.119853 169.973629 102.956593 172.810368 
C 105.793332 175.647108 109.641317 177.240995 113.653073 177.240995 
z
" clip-path="url(#p3b1c39c594)" style="fill: #fa8072; stroke: #000000; stroke-linejoin: miter"/>
   </g>
   <g id="patch_44">
    <path d="M 319.857055 166.878684 
C 323.868811 166.878684 327.716795 165.284797 330.553535 162.448057 
C 333.390275 159.611318 334.984162 155.763333 334.984162 151.751577 
C 334.984162 147.739821 333.390275 143.891837 330.553535 141.055097 
C 327.716795 138.218357 323.868811 136.62447 319.857055 136.62447 
C 315.845299 136.62447 311.997315 138.218357 309.160575 141.055097 
C 306.323835 143.891837 304.729948 147.739821 304.729948 151.751577 
C 304.729948 155.763333 306.323835 159.611318 309.160575 162.448057 
C 311.997315 165.284797 315.845299 166.878684 319.857055 166.878684 
z
" clip-path="url(#p3b1c39c594)" style="fill: #fa8072; stroke: #000000; stroke-linejoin: miter"/>
   </g>
   <g id="patch_45">
    <path d="M 240.29688 229.334406 
C 244.308636 229.334406 248.15662 227.740518 250.99336 224.903779 
C 253.8301 222.067039 255.423987 218.219055 255.423987 214.207299 
C 255.423987 210.195543 253.8301 206.347558 250.99336 203.510819 
C 248.15662 200.674079 244.308636 199.080192 240.29688 199.080192 
C 236.285124 199.080192 232.43714 200.674079 229.6004 203.510819 
C 226.76366 206.347558 225.169773 210.195543 225.169773 214.207299 
C 225.169773 218.219055 226.76366 222.067039 229.6004 224.903779 
C 232.43714 227.740518 236.285124 229.334406 240.29688 229.334406 
z
" clip-path="url(#p3b1c39c594)" style="fill: #fa8072; stroke: #000000; stroke-linejoin: miter"/>
   </g>
   <g id="patch_46">
    <path d="M 122.462808 106.490555 
C 126.474564 106.490555 130.322548 104.896668 133.159288 102.059928 
C 135.996028 99.223189 137.589915 95.375204 137.589915 91.363448 
C 137.589915 87.351693 135.996028 83.503708 133.159288 80.666968 
C 130.322548 77.830229 126.474564 76.236341 122.462808 76.236341 
C 118.451052 76.236341 114.603067 77.830229 111.766328 80.666968 
C 108.929588 83.503708 107.335701 87.351693 107.335701 91.363448 
C 107.335701 95.375204 108.929588 99.223189 111.766328 102.059928 
C 114.603067 104.896668 118.451052 106.490555 122.462808 106.490555 
z
" clip-path="url(#p3b1c39c594)" style="fill: #fa8072; stroke: #000000; stroke-linejoin: miter"/>
   </g>
   <g id="patch_47">
    <path d="M 131.272543 20.613008 
L 135.528082 26.137581 
" clip-path="url(#p3b1c39c594)" style="fill: #1f77b4; stroke: #000000; stroke-linejoin: miter"/>
   </g>
   <g id="patch_48">
    <path d="M 249.106615 158.583966 
C 253.118371 158.583966 256.966355 156.990079 259.803095 154.153339 
C 262.639835 151.316599 264.233722 147.468615 264.233722 143.456859 
C 264.233722 139.445103 262.639835 135.597119 259.803095 132.760379 
C 256.966355 129.923639 253.118371 128.329752 249.106615 128.329752 
C 245.094859 128.329752 241.246875 129.923639 238.410135 132.760379 
C 235.573395 135.597119 233.979508 139.445103 233.979508 143.456859 
C 233.979508 147.468615 235.573395 151.316599 238.410135 154.153339 
C 241.246875 156.990079 245.094859 158.583966 249.106615 158.583966 
z
" clip-path="url(#p3b1c39c594)" style="fill: #fa8072; stroke: #000000; stroke-linejoin: miter"/>
   </g>
   <g id="patch_49">
    <path d="M 136.325041 238.265734 
L 125.83114 236.465266 
" clip-path="url(#p3b1c39c594)" style="fill: #1f77b4; stroke: #000000; stroke-linejoin: miter"/>
   </g>
   <g id="patch_50">
    <path d="M 377.632605 193.668086 
L 371.986056 199.314636 
" clip-path="url(#p3b1c39c594)" style="fill: #1f77b4; stroke: #000000; stroke-linejoin: miter"/>
   </g>
   <g id="patch_51">
    <path d="M 141.766444 22.413477 
L 131.272543 20.613008 
" clip-path="url(#p3b1c39c594)" style="fill: #1f77b4; stroke: #000000; stroke-linejoin: miter"/>
   </g>
   <g id="patch_52">
    <path d="M 131.272543 20.613008 
L 125.625993 26.259558 
" clip-path="url(#p3b1c39c594)" style="fill: #1f77b4; stroke: #000000; stroke-linejoin: miter"/>
   </g>
   <g id="patch_53">
    <path d="M 92.07672 216.290611 
L 96.33226 221.815184 
" clip-path="url(#p3b1c39c594)" style="fill: #1f77b4; stroke: #000000; stroke-linejoin: miter"/>
   </g>
   <g id="patch_54">
    <path d="M 381.723131 121.116782 
L 385.97867 126.641354 
" clip-path="url(#p3b1c39c594)" style="fill: #1f77b4; stroke: #000000; stroke-linejoin: miter"/>
   </g>
   <g id="patch_55">
    <path d="M 157.312843 241.866672 
L 146.818942 240.066203 
" clip-path="url(#p3b1c39c594)" style="fill: #1f77b4; stroke: #000000; stroke-linejoin: miter"/>
   </g>
   <g id="patch_56">
    <path d="M 162.754246 26.014415 
L 152.260345 24.213946 
" clip-path="url(#p3b1c39c594)" style="fill: #1f77b4; stroke: #000000; stroke-linejoin: miter"/>
   </g>
   <g id="patch_57">
    <path d="M 366.339506 204.961186 
L 360.692956 210.607736 
" clip-path="url(#p3b1c39c594)" style="fill: #1f77b4; stroke: #000000; stroke-linejoin: miter"/>
   </g>
   <g id="patch_58">
    <path d="M 119.979443 31.906108 
L 114.332893 37.552658 
" clip-path="url(#p3b1c39c594)" style="fill: #1f77b4; stroke: #000000; stroke-linejoin: miter"/>
   </g>
   <g id="patch_59">
    <path d="M 178.300645 245.467609 
L 167.806744 243.667141 
" clip-path="url(#p3b1c39c594)" style="fill: #1f77b4; stroke: #000000; stroke-linejoin: miter"/>
   </g>
   <g id="patch_60">
    <path d="M 83.565642 205.241467 
L 87.821181 210.766039 
" clip-path="url(#p3b1c39c594)" style="fill: #1f77b4; stroke: #000000; stroke-linejoin: miter"/>
   </g>
   <g id="patch_61">
    <path d="M 373.212053 110.067637 
L 377.467592 115.592209 
" clip-path="url(#p3b1c39c594)" style="fill: #1f77b4; stroke: #000000; stroke-linejoin: miter"/>
   </g>
   <g id="patch_62">
    <path d="M 183.742048 29.615352 
L 173.248147 27.814884 
" clip-path="url(#p3b1c39c594)" style="fill: #1f77b4; stroke: #000000; stroke-linejoin: miter"/>
   </g>
   <g id="patch_63">
    <path d="M 355.046406 216.254286 
L 349.399856 221.900836 
" clip-path="url(#p3b1c39c594)" style="fill: #1f77b4; stroke: #000000; stroke-linejoin: miter"/>
   </g>
   <g id="patch_64">
    <path d="M 148.64203 221.297196 
C 152.653786 221.297196 156.50177 219.703309 159.33851 216.866569 
C 162.17525 214.029829 163.769137 210.181845 163.769137 206.170089 
C 163.769137 202.158333 162.17525 198.310349 159.33851 195.473609 
C 156.50177 192.636869 152.653786 191.042982 148.64203 191.042982 
C 144.630274 191.042982 140.78229 192.636869 137.94555 195.473609 
C 135.10881 198.310349 133.514923 202.158333 133.514923 206.170089 
C 133.514923 210.181845 135.10881 214.029829 137.94555 216.866569 
C 140.78229 219.703309 144.630274 221.297196 148.64203 221.297196 
z
" clip-path="url(#p3b1c39c594)" style="fill: #fa8072; stroke: #000000; stroke-linejoin: miter"/>
   </g>
   <g id="patch_65">
    <path d="M 199.288447 249.068547 
L 188.794546 247.268078 
" clip-path="url(#p3b1c39c594)" style="fill: #1f77b4; stroke: #000000; stroke-linejoin: miter"/>
   </g>
   <g id="patch_66">
    <path d="M 108.686343 43.199208 
L 103.039794 48.845758 
" clip-path="url(#p3b1c39c594)" style="fill: #1f77b4; stroke: #000000; stroke-linejoin: miter"/>
   </g>
   <g id="patch_67">
    <path d="M 157.451765 150.546756 
C 161.463521 150.546756 165.311506 148.952869 168.148245 146.116129 
C 170.984985 143.27939 172.578872 139.431405 172.578872 135.419649 
C 172.578872 131.407893 170.984985 127.559909 168.148245 124.723169 
C 165.311506 121.886429 161.463521 120.292542 157.451765 120.292542 
C 153.440009 120.292542 149.592025 121.886429 146.755285 124.723169 
C 143.918545 127.559909 142.324658 131.407893 142.324658 135.419649 
C 142.324658 139.431405 143.918545 143.27939 146.755285 146.116129 
C 149.592025 148.952869 153.440009 150.546756 157.451765 150.546756 
z
" clip-path="url(#p3b1c39c594)" style="fill: #fa8072; stroke: #000000; stroke-linejoin: miter"/>
   </g>
   <g id="patch_68">
    <path d="M 77.89159 213.002478 
C 81.903346 213.002478 85.751331 211.40859 88.58807 208.571851 
C 91.42481 205.735111 93.018697 201.887126 93.018697 197.875371 
C 93.018697 193.863615 91.42481 190.01563 88.58807 187.178891 
C 85.751331 184.342151 81.903346 182.748264 77.89159 182.748264 
C 73.879835 182.748264 70.03185 184.342151 67.19511 187.178891 
C 64.358371 190.01563 62.764483 193.863615 62.764483 197.875371 
C 62.764483 201.887126 64.358371 205.735111 67.19511 208.571851 
C 70.03185 211.40859 73.879835 213.002478 77.89159 213.002478 
z
" clip-path="url(#p3b1c39c594)" style="fill: #fa8072; stroke: #000000; stroke-linejoin: miter"/>
   </g>
   <g id="patch_69">
    <path d="M 204.72985 33.21629 
L 194.235949 31.415821 
" clip-path="url(#p3b1c39c594)" style="fill: #1f77b4; stroke: #000000; stroke-linejoin: miter"/>
   </g>
   <g id="patch_70">
    <path d="M 284.095572 202.640167 
C 288.107328 202.640167 291.955313 201.046279 294.792052 198.20954 
C 297.628792 195.3728 299.222679 191.524815 299.222679 187.51306 
C 299.222679 183.501304 297.628792 179.653319 294.792052 176.81658 
C 291.955313 173.97984 288.107328 172.385953 284.095572 172.385953 
C 280.083817 172.385953 276.235832 173.97984 273.399092 176.81658 
C 270.562353 179.653319 268.968465 183.501304 268.968465 187.51306 
C 268.968465 191.524815 270.562353 195.3728 273.399092 198.20954 
C 276.235832 201.046279 280.083817 202.640167 284.095572 202.640167 
z
" clip-path="url(#p3b1c39c594)" style="fill: #fa8072; stroke: #000000; stroke-linejoin: miter"/>
   </g>
   <g id="patch_71">
    <path d="M 364.700975 99.018493 
L 368.956514 104.543065 
" clip-path="url(#p3b1c39c594)" style="fill: #1f77b4; stroke: #000000; stroke-linejoin: miter"/>
   </g>
   <g id="patch_72">
    <path d="M 204.535397 265.095888 
C 208.547153 265.095888 212.395138 263.502001 215.231877 260.665261 
C 218.068617 257.828522 219.662504 253.980537 219.662504 249.968781 
C 219.662504 245.957026 218.068617 242.109041 215.231877 239.272301 
C 212.395138 236.435562 208.547153 234.841674 204.535397 234.841674 
C 200.523642 234.841674 196.675657 236.435562 193.838917 239.272301 
C 191.002178 242.109041 189.40829 245.957026 189.40829 249.968781 
C 189.40829 253.980537 191.002178 257.828522 193.838917 260.665261 
C 196.675657 263.502001 200.523642 265.095888 204.535397 265.095888 
z
" clip-path="url(#p3b1c39c594)" style="fill: #fa8072; stroke: #000000; stroke-linejoin: miter"/>
   </g>
   <g id="patch_73">
    <path d="M 166.2615 79.796316 
C 170.273256 79.796316 174.121241 78.202429 176.95798 75.365689 
C 179.79472 72.52895 181.388607 68.680965 181.388607 64.669209 
C 181.388607 60.657454 179.79472 56.809469 176.95798 53.972729 
C 174.121241 51.13599 170.273256 49.542102 166.2615 49.542102 
C 162.249745 49.542102 158.40176 51.13599 155.56502 53.972729 
C 152.728281 56.809469 151.134393 60.657454 151.134393 64.669209 
C 151.134393 68.680965 152.728281 72.52895 155.56502 75.365689 
C 158.40176 78.202429 162.249745 79.796316 166.2615 79.796316 
z
" clip-path="url(#p3b1c39c594)" style="fill: #fa8072; stroke: #000000; stroke-linejoin: miter"/>
   </g>
   <g id="patch_74">
    <path d="M 86.701325 142.252038 
C 90.713081 142.252038 94.561066 140.658151 97.397805 137.821411 
C 100.234545 134.984671 101.828432 131.136687 101.828432 127.124931 
C 101.828432 123.113175 100.234545 119.265191 97.397805 116.428451 
C 94.561066 113.591711 90.713081 111.997824 86.701325 111.997824 
C 82.68957 111.997824 78.841585 113.591711 76.004845 116.428451 
C 73.168106 119.265191 71.574218 123.113175 71.574218 127.124931 
C 71.574218 131.136687 73.168106 134.984671 76.004845 137.821411 
C 78.841585 140.658151 82.68957 142.252038 86.701325 142.252038 
z
" clip-path="url(#p3b1c39c594)" style="fill: #fa8072; stroke: #000000; stroke-linejoin: miter"/>
   </g>
   <g id="patch_75">
    <path d="M 292.905307 131.889727 
C 296.917063 131.889727 300.765048 130.29584 303.601787 127.4591 
C 306.438527 124.62236 308.032415 120.774376 308.032415 116.76262 
C 308.032415 112.750864 306.438527 108.90288 303.601787 106.06614 
C 300.765048 103.2294 296.917063 101.635513 292.905307 101.635513 
C 288.893552 101.635513 285.045567 103.2294 282.208827 106.06614 
C 279.372088 108.90288 277.7782 112.750864 277.7782 116.76262 
C 277.7782 120.774376 279.372088 124.62236 282.208827 127.4591 
C 285.045567 130.29584 288.893552 131.889727 292.905307 131.889727 
z
" clip-path="url(#p3b1c39c594)" style="fill: #fa8072; stroke: #000000; stroke-linejoin: miter"/>
   </g>
   <g id="patch_76">
    <path d="M 213.345132 194.345449 
C 217.356888 194.345449 221.204873 192.751561 224.041612 189.914822 
C 226.878352 187.078082 228.47224 183.230097 228.47224 179.218342 
C 228.47224 175.206586 226.878352 171.358601 224.041612 168.521861 
C 221.204873 165.685122 217.356888 164.091234 213.345132 164.091234 
C 209.333377 164.091234 205.485392 165.685122 202.648652 168.521861 
C 199.811913 171.358601 198.218025 175.206586 198.218025 179.218342 
C 198.218025 183.230097 199.811913 187.078082 202.648652 189.914822 
C 205.485392 192.751561 209.333377 194.345449 213.345132 194.345449 
z
" clip-path="url(#p3b1c39c594)" style="fill: #fa8072; stroke: #000000; stroke-linejoin: miter"/>
   </g>
   <g id="patch_77">
    <path d="M 220.276249 252.669485 
L 209.782348 250.869016 
" clip-path="url(#p3b1c39c594)" style="fill: #1f77b4; stroke: #000000; stroke-linejoin: miter"/>
   </g>
   <g id="patch_78">
    <path d="M 343.753306 227.547386 
L 338.106756 233.193935 
" clip-path="url(#p3b1c39c594)" style="fill: #1f77b4; stroke: #000000; stroke-linejoin: miter"/>
   </g>
   <g id="patch_79">
    <path d="M 97.393244 54.492308 
L 91.746694 60.138858 
" clip-path="url(#p3b1c39c594)" style="fill: #1f77b4; stroke: #000000; stroke-linejoin: miter"/>
   </g>
   <g id="patch_80">
    <path d="M 225.717652 36.817227 
L 215.223751 35.016759 
" clip-path="url(#p3b1c39c594)" style="fill: #1f77b4; stroke: #000000; stroke-linejoin: miter"/>
   </g>
   <g id="patch_81">
    <path d="M 222.154868 123.595009 
C 226.166623 123.595009 230.014608 122.001121 232.851348 119.164382 
C 235.688087 116.327642 237.281975 112.479657 237.281975 108.467902 
C 237.281975 104.456146 235.688087 100.608161 232.851348 97.771422 
C 230.014608 94.934682 226.166623 93.340795 222.154868 93.340795 
C 218.143112 93.340795 214.295127 94.934682 211.458388 97.771422 
C 208.621648 100.608161 207.02776 104.456146 207.02776 108.467902 
C 207.02776 112.479657 208.621648 116.327642 211.458388 119.164382 
C 214.295127 122.001121 218.143112 123.595009 222.154868 123.595009 
z
" clip-path="url(#p3b1c39c594)" style="fill: #fa8072; stroke: #000000; stroke-linejoin: miter"/>
   </g>
   <g id="patch_82">
    <path d="M 66.543486 183.143178 
L 70.799025 188.66775 
" clip-path="url(#p3b1c39c594)" style="fill: #1f77b4; stroke: #000000; stroke-linejoin: miter"/>
   </g>
   <g id="patch_83">
    <path d="M 356.189897 87.969348 
L 360.445436 93.493921 
" clip-path="url(#p3b1c39c594)" style="fill: #1f77b4; stroke: #000000; stroke-linejoin: miter"/>
   </g>
   <g id="patch_84">
    <path d="M 241.264051 256.270422 
L 230.77015 254.469953 
" clip-path="url(#p3b1c39c594)" style="fill: #1f77b4; stroke: #000000; stroke-linejoin: miter"/>
   </g>
   <g id="patch_85">
    <path d="M 332.460206 238.840485 
L 326.813657 244.487035 
" clip-path="url(#p3b1c39c594)" style="fill: #1f77b4; stroke: #000000; stroke-linejoin: miter"/>
   </g>
   <g id="patch_86">
    <path d="M 246.705454 40.418165 
L 236.211553 38.617696 
" clip-path="url(#p3b1c39c594)" style="fill: #1f77b4; stroke: #000000; stroke-linejoin: miter"/>
   </g>
   <g id="patch_87">
    <path d="M 86.100144 65.785408 
L 80.453594 71.431957 
" clip-path="url(#p3b1c39c594)" style="fill: #1f77b4; stroke: #000000; stroke-linejoin: miter"/>
   </g>
   <g id="patch_88">
    <path d="M 262.251853 259.87136 
L 251.757952 258.070891 
" clip-path="url(#p3b1c39c594)" style="fill: #1f77b4; stroke: #000000; stroke-linejoin: miter"/>
   </g>
   <g id="patch_89">
    <path d="M 58.032408 172.094034 
L 62.287947 177.618606 
" clip-path="url(#p3b1c39c594)" style="fill: #1f77b4; stroke: #000000; stroke-linejoin: miter"/>
   </g>
   <g id="patch_90">
    <path d="M 347.678819 76.920204 
L 351.934358 82.444776 
" clip-path="url(#p3b1c39c594)" style="fill: #1f77b4; stroke: #000000; stroke-linejoin: miter"/>
   </g>
   <g id="patch_91">
    <path d="M 267.693256 44.019102 
L 257.199355 42.218634 
" clip-path="url(#p3b1c39c594)" style="fill: #1f77b4; stroke: #000000; stroke-linejoin: miter"/>
   </g>
   <g id="patch_92">
    <path d="M 321.167107 250.133585 
L 315.520557 255.780135 
" clip-path="url(#p3b1c39c594)" style="fill: #1f77b4; stroke: #000000; stroke-linejoin: miter"/>
   </g>
   <g id="patch_93">
    <path d="M 74.807044 77.078507 
L 69.160494 82.725057 
" clip-path="url(#p3b1c39c594)" style="fill: #1f77b4; stroke: #000000; stroke-linejoin: miter"/>
   </g>
   <g id="patch_94">
    <path d="M 283.239655 263.472297 
L 272.745754 261.671828 
" clip-path="url(#p3b1c39c594)" style="fill: #1f77b4; stroke: #000000; stroke-linejoin: miter"/>
   </g>
   <g id="patch_95">
    <path d="M 121.690283 186.308239 
C 125.702038 186.308239 129.550023 184.714351 132.386763 181.877612 
C 135.223502 179.040872 136.81739 175.192887 136.81739 171.181132 
C 136.81739 167.169376 135.223502 163.321391 132.386763 160.484652 
C 129.550023 157.647912 125.702038 156.054025 121.690283 156.054025 
C 117.678527 156.054025 113.830542 157.647912 110.993803 160.484652 
C 108.157063 163.321391 106.563175 167.169376 106.563175 171.181132 
C 106.563175 175.192887 108.157063 179.040872 110.993803 181.877612 
C 113.830542 184.714351 117.678527 186.308239 121.690283 186.308239 
z
" clip-path="url(#p3b1c39c594)" style="fill: #fa8072; stroke: #000000; stroke-linejoin: miter"/>
   </g>
   <g id="patch_96">
    <path d="M 288.681058 47.62004 
L 278.187157 45.819571 
" clip-path="url(#p3b1c39c594)" style="fill: #1f77b4; stroke: #000000; stroke-linejoin: miter"/>
   </g>
   <g id="patch_97">
    <path d="M 248.33409 238.401649 
C 252.345845 238.401649 256.19383 236.807762 259.03057 233.971022 
C 261.867309 231.134283 263.461197 227.286298 263.461197 223.274542 
C 263.461197 219.262787 261.867309 215.414802 259.03057 212.578062 
C 256.19383 209.741323 252.345845 208.147435 248.33409 208.147435 
C 244.322334 208.147435 240.474349 209.741323 237.63761 212.578062 
C 234.80087 215.414802 233.206983 219.262787 233.206983 223.274542 
C 233.206983 227.286298 234.80087 231.134283 237.63761 233.971022 
C 240.474349 236.807762 244.322334 238.401649 248.33409 238.401649 
z
" clip-path="url(#p3b1c39c594)" style="fill: #fa8072; stroke: #000000; stroke-linejoin: miter"/>
   </g>
   <g id="patch_98">
    <path d="M 339.16774 65.87106 
L 343.42328 71.395632 
" clip-path="url(#p3b1c39c594)" style="fill: #1f77b4; stroke: #000000; stroke-linejoin: miter"/>
   </g>
   <g id="patch_99">
    <path d="M 130.500018 115.557799 
C 134.511773 115.557799 138.359758 113.963912 141.196498 111.127172 
C 144.033237 108.290432 145.627125 104.442448 145.627125 100.430692 
C 145.627125 96.418936 144.033237 92.570951 141.196498 89.734212 
C 138.359758 86.897472 134.511773 85.303585 130.500018 85.303585 
C 126.488262 85.303585 122.640277 86.897472 119.803538 89.734212 
C 116.966798 92.570951 115.372911 96.418936 115.372911 100.430692 
C 115.372911 104.442448 116.966798 108.290432 119.803538 111.127172 
C 122.640277 113.963912 126.488262 115.557799 130.500018 115.557799 
z
" clip-path="url(#p3b1c39c594)" style="fill: #fa8072; stroke: #000000; stroke-linejoin: miter"/>
   </g>
   <g id="patch_100">
    <path d="M 50.939843 178.013521 
C 54.951598 178.013521 58.799583 176.419633 61.636323 173.582894 
C 64.473062 170.746154 66.06695 166.898169 66.06695 162.886413 
C 66.06695 158.874658 64.473062 155.026673 61.636323 152.189933 
C 58.799583 149.353194 54.951598 147.759306 50.939843 147.759306 
C 46.928087 147.759306 43.080102 149.353194 40.243363 152.189933 
C 37.406623 155.026673 35.812736 158.874658 35.812736 162.886413 
C 35.812736 166.898169 37.406623 170.746154 40.243363 173.582894 
C 43.080102 176.419633 46.928087 178.013521 50.939843 178.013521 
z
" clip-path="url(#p3b1c39c594)" style="fill: #fa8072; stroke: #000000; stroke-linejoin: miter"/>
   </g>
   <g id="patch_101">
    <path d="M 309.874007 261.426685 
L 304.227457 267.073235 
" clip-path="url(#p3b1c39c594)" style="fill: #1f77b4; stroke: #000000; stroke-linejoin: miter"/>
   </g>
   <g id="patch_102">
    <path d="M 304.227457 267.073235 
L 293.733556 265.272766 
" clip-path="url(#p3b1c39c594)" style="fill: #1f77b4; stroke: #000000; stroke-linejoin: miter"/>
   </g>
   <g id="patch_103">
    <path d="M 257.143825 167.65121 
C 261.155581 167.65121 265.003565 166.057322 267.840305 163.220582 
C 270.677045 160.383843 272.270932 156.535858 272.270932 152.524102 
C 272.270932 148.512347 270.677045 144.664362 267.840305 141.827622 
C 265.003565 138.990883 261.155581 137.396995 257.143825 137.396995 
C 253.132069 137.396995 249.284084 138.990883 246.447345 141.827622 
C 243.610605 144.664362 242.016718 148.512347 242.016718 152.524102 
C 242.016718 156.535858 243.610605 160.383843 246.447345 163.220582 
C 249.284084 166.057322 253.132069 167.65121 257.143825 167.65121 
z
" clip-path="url(#p3b1c39c594)" style="fill: #fa8072; stroke: #000000; stroke-linejoin: miter"/>
   </g>
   <g id="patch_104">
    <path d="M 177.58365 230.106931 
C 181.595406 230.106931 185.44339 228.513044 188.28013 225.676304 
C 191.11687 222.839564 192.710757 218.99158 192.710757 214.979824 
C 192.710757 210.968068 191.11687 207.120084 188.28013 204.283344 
C 185.44339 201.446604 181.595406 199.852717 177.58365 199.852717 
C 173.571894 199.852717 169.72391 201.446604 166.88717 204.283344 
C 164.05043 207.120084 162.456543 210.968068 162.456543 214.979824 
C 162.456543 218.99158 164.05043 222.839564 166.88717 225.676304 
C 169.72391 228.513044 173.571894 230.106931 177.58365 230.106931 
z
" clip-path="url(#p3b1c39c594)" style="fill: #fa8072; stroke: #000000; stroke-linejoin: miter"/>
   </g>
   <g id="patch_105">
    <path d="M 63.513944 88.371607 
L 57.867395 94.018157 
" clip-path="url(#p3b1c39c594)" style="fill: #1f77b4; stroke: #000000; stroke-linejoin: miter"/>
   </g>
   <g id="patch_106">
    <path d="M 309.66886 51.220978 
L 299.174959 49.420509 
" clip-path="url(#p3b1c39c594)" style="fill: #1f77b4; stroke: #000000; stroke-linejoin: miter"/>
   </g>
   <g id="patch_107">
    <path d="M 265.95356 96.90077 
C 269.965316 96.90077 273.8133 95.306882 276.65004 92.470143 
C 279.48678 89.633403 281.080667 85.785418 281.080667 81.773663 
C 281.080667 77.761907 279.48678 73.913922 276.65004 71.077183 
C 273.8133 68.240443 269.965316 66.646555 265.95356 66.646555 
C 261.941804 66.646555 258.09382 68.240443 255.25708 71.077183 
C 252.42034 73.913922 250.826453 77.761907 250.826453 81.773663 
C 250.826453 85.785418 252.42034 89.633403 255.25708 92.470143 
C 258.09382 95.306882 261.941804 96.90077 265.95356 96.90077 
z
" clip-path="url(#p3b1c39c594)" style="fill: #fa8072; stroke: #000000; stroke-linejoin: miter"/>
   </g>
   <g id="patch_108">
    <path d="M 186.393385 159.356491 
C 190.405141 159.356491 194.253125 157.762604 197.089865 154.925864 
C 199.926605 152.089125 201.520492 148.24114 201.520492 144.229384 
C 201.520492 140.217629 199.926605 136.369644 197.089865 133.532904 
C 194.253125 130.696165 190.405141 129.102277 186.393385 129.102277 
C 182.381629 129.102277 178.533645 130.696165 175.696905 133.532904 
C 172.860165 136.369644 171.266278 140.217629 171.266278 144.229384 
C 171.266278 148.24114 172.860165 152.089125 175.696905 154.925864 
C 178.533645 157.762604 182.381629 159.356491 186.393385 159.356491 
z
" clip-path="url(#p3b1c39c594)" style="fill: #fa8072; stroke: #000000; stroke-linejoin: miter"/>
   </g>
   <g id="patch_109">
    <path d="M 299.971918 261.548662 
L 304.227457 267.073235 
" clip-path="url(#p3b1c39c594)" style="fill: #1f77b4; stroke: #000000; stroke-linejoin: miter"/>
   </g>
   <g id="patch_110">
    <path d="M 41.010252 149.995745 
L 45.265791 155.520317 
" clip-path="url(#p3b1c39c594)" style="fill: #1f77b4; stroke: #000000; stroke-linejoin: miter"/>
   </g>
   <g id="patch_111">
    <path d="M 330.656662 54.821915 
L 334.912201 60.346487 
" clip-path="url(#p3b1c39c594)" style="fill: #1f77b4; stroke: #000000; stroke-linejoin: miter"/>
   </g>
   <g id="patch_112">
    <path d="M 330.656662 54.821915 
L 320.162761 53.021446 
" clip-path="url(#p3b1c39c594)" style="fill: #1f77b4; stroke: #000000; stroke-linejoin: miter"/>
   </g>
   <g id="patch_113">
    <path d="M 52.220845 99.664707 
L 46.574295 105.311257 
" clip-path="url(#p3b1c39c594)" style="fill: #1f77b4; stroke: #000000; stroke-linejoin: miter"/>
   </g>
   <g id="patch_114">
    <path d="M 330.656662 54.821915 
L 325.010112 60.468465 
" clip-path="url(#p3b1c39c594)" style="fill: #1f77b4; stroke: #000000; stroke-linejoin: miter"/>
   </g>
   <g id="patch_115">
    <path d="M 291.46084 250.499518 
L 295.716379 256.02409 
" clip-path="url(#p3b1c39c594)" style="fill: #1f77b4; stroke: #000000; stroke-linejoin: miter"/>
   </g>
   <g id="patch_116">
    <path d="M 32.499173 138.946601 
L 36.754712 144.471173 
" clip-path="url(#p3b1c39c594)" style="fill: #1f77b4; stroke: #000000; stroke-linejoin: miter"/>
   </g>
   <g id="patch_117">
    <path d="M 40.927745 110.957807 
L 35.281195 116.604356 
" clip-path="url(#p3b1c39c594)" style="fill: #1f77b4; stroke: #000000; stroke-linejoin: miter"/>
   </g>
   <g id="patch_118">
    <path d="M 319.363563 66.115015 
L 313.717013 71.761565 
" clip-path="url(#p3b1c39c594)" style="fill: #1f77b4; stroke: #000000; stroke-linejoin: miter"/>
   </g>
   <g id="patch_119">
    <path d="M 282.949762 239.450374 
L 287.205301 244.974946 
" clip-path="url(#p3b1c39c594)" style="fill: #1f77b4; stroke: #000000; stroke-linejoin: miter"/>
   </g>
   <g id="patch_120">
    <path d="M 94.738535 151.319282 
C 98.750291 151.319282 102.598275 149.725394 105.435015 146.888654 
C 108.271755 144.051915 109.865642 140.20393 109.865642 136.192174 
C 109.865642 132.180419 108.271755 128.332434 105.435015 125.495694 
C 102.598275 122.658955 98.750291 121.065067 94.738535 121.065067 
C 90.726779 121.065067 86.878795 122.658955 84.042055 125.495694 
C 81.205315 128.332434 79.611428 132.180419 79.611428 136.192174 
C 79.611428 140.20393 81.205315 144.051915 84.042055 146.888654 
C 86.878795 149.725394 90.726779 151.319282 94.738535 151.319282 
z
" clip-path="url(#p3b1c39c594)" style="fill: #fa8072; stroke: #000000; stroke-linejoin: miter"/>
   </g>
   <g id="patch_121">
    <path d="M 23.988095 127.897456 
L 28.243634 133.422028 
" clip-path="url(#p3b1c39c594)" style="fill: #1f77b4; stroke: #000000; stroke-linejoin: miter"/>
   </g>
   <g id="patch_122">
    <path d="M 221.382342 203.412692 
C 225.394098 203.412692 229.242083 201.818805 232.078822 198.982065 
C 234.915562 196.145325 236.509449 192.297341 236.509449 188.285585 
C 236.509449 184.273829 234.915562 180.425845 232.078822 177.589105 
C 229.242083 174.752365 225.394098 173.158478 221.382342 173.158478 
C 217.370587 173.158478 213.522602 174.752365 210.685862 177.589105 
C 207.849123 180.425845 206.255235 184.273829 206.255235 188.285585 
C 206.255235 192.297341 207.849123 196.145325 210.685862 198.982065 
C 213.522602 201.818805 217.370587 203.412692 221.382342 203.412692 
z
" clip-path="url(#p3b1c39c594)" style="fill: #fa8072; stroke: #000000; stroke-linejoin: miter"/>
   </g>
   <g id="patch_123">
    <path d="M 29.634645 122.250906 
L 23.988095 127.897456 
" clip-path="url(#p3b1c39c594)" style="fill: #1f77b4; stroke: #000000; stroke-linejoin: miter"/>
   </g>
   <g id="patch_124">
    <path d="M 308.070463 77.408115 
L 302.423913 83.054665 
" clip-path="url(#p3b1c39c594)" style="fill: #1f77b4; stroke: #000000; stroke-linejoin: miter"/>
   </g>
   <g id="patch_125">
    <path d="M 230.192077 132.662252 
C 234.203833 132.662252 238.051818 131.068365 240.888557 128.231625 
C 243.725297 125.394886 245.319184 121.546901 245.319184 117.535145 
C 245.319184 113.523389 243.725297 109.675405 240.888557 106.838665 
C 238.051818 104.001925 234.203833 102.408038 230.192077 102.408038 
C 226.180322 102.408038 222.332337 104.001925 219.495597 106.838665 
C 216.658858 109.675405 215.06497 113.523389 215.06497 117.535145 
C 215.06497 121.546901 216.658858 125.394886 219.495597 128.231625 
C 222.332337 131.068365 226.180322 132.662252 230.192077 132.662252 
z
" clip-path="url(#p3b1c39c594)" style="fill: #fa8072; stroke: #000000; stroke-linejoin: miter"/>
   </g>
   <g id="patch_126">
    <path d="M 150.631902 195.117974 
C 154.643658 195.117974 158.491643 193.524086 161.328382 190.687347 
C 164.165122 187.850607 165.75901 184.002623 165.75901 179.990867 
C 165.75901 175.979111 164.165122 172.131126 161.328382 169.294387 
C 158.491643 166.457647 154.643658 164.86376 150.631902 164.86376 
C 146.620147 164.86376 142.772162 166.457647 139.935422 169.294387 
C 137.098683 172.131126 135.504795 175.979111 135.504795 179.990867 
C 135.504795 184.002623 137.098683 187.850607 139.935422 190.687347 
C 142.772162 193.524086 146.620147 195.117974 150.631902 195.117974 
z
" clip-path="url(#p3b1c39c594)" style="fill: #fa8072; stroke: #000000; stroke-linejoin: miter"/>
   </g>
   <g id="patch_127">
    <path d="M 34.481996 129.697925 
L 23.988095 127.897456 
" clip-path="url(#p3b1c39c594)" style="fill: #1f77b4; stroke: #000000; stroke-linejoin: miter"/>
   </g>
   <g id="patch_128">
    <path d="M 274.438684 228.401229 
L 278.694223 233.925801 
" clip-path="url(#p3b1c39c594)" style="fill: #1f77b4; stroke: #000000; stroke-linejoin: miter"/>
   </g>
   <g id="patch_129">
    <path d="M 55.469798 133.298863 
L 44.975897 131.498394 
" clip-path="url(#p3b1c39c594)" style="fill: #1f77b4; stroke: #000000; stroke-linejoin: miter"/>
   </g>
   <g id="patch_130">
    <path d="M 296.777363 88.701214 
L 291.130813 94.347764 
" clip-path="url(#p3b1c39c594)" style="fill: #1f77b4; stroke: #000000; stroke-linejoin: miter"/>
   </g>
   <g id="patch_131">
    <path d="M 265.927605 217.352085 
L 270.183144 222.876657 
" clip-path="url(#p3b1c39c594)" style="fill: #1f77b4; stroke: #000000; stroke-linejoin: miter"/>
   </g>
   <g id="patch_132">
    <path d="M 76.4576 136.8998 
L 65.963699 135.099331 
" clip-path="url(#p3b1c39c594)" style="fill: #1f77b4; stroke: #000000; stroke-linejoin: miter"/>
   </g>
   <g id="patch_133">
    <path d="M 285.484263 99.994314 
L 279.837713 105.640864 
" clip-path="url(#p3b1c39c594)" style="fill: #1f77b4; stroke: #000000; stroke-linejoin: miter"/>
   </g>
   <g id="patch_134">
    <path d="M 97.445402 140.500738 
L 86.951501 138.700269 
" clip-path="url(#p3b1c39c594)" style="fill: #1f77b4; stroke: #000000; stroke-linejoin: miter"/>
   </g>
   <g id="patch_135">
    <path d="M 257.416527 206.30294 
L 261.672066 211.827513 
" clip-path="url(#p3b1c39c594)" style="fill: #1f77b4; stroke: #000000; stroke-linejoin: miter"/>
   </g>
   <g id="patch_136">
    <path d="M 274.191164 111.287414 
L 268.544614 116.933964 
" clip-path="url(#p3b1c39c594)" style="fill: #1f77b4; stroke: #000000; stroke-linejoin: miter"/>
   </g>
   <g id="patch_137">
    <path d="M 194.430595 168.423735 
C 198.44235 168.423735 202.290335 166.829847 205.127075 163.993108 
C 207.963814 161.156368 209.557702 157.308383 209.557702 153.296628 
C 209.557702 149.284872 207.963814 145.436887 205.127075 142.600148 
C 202.290335 139.763408 198.44235 138.169521 194.430595 138.169521 
C 190.418839 138.169521 186.570854 139.763408 183.734115 142.600148 
C 180.897375 145.436887 179.303488 149.284872 179.303488 153.296628 
C 179.303488 157.308383 180.897375 161.156368 183.734115 163.993108 
C 186.570854 166.829847 190.418839 168.423735 194.430595 168.423735 
z
" clip-path="url(#p3b1c39c594)" style="fill: #fa8072; stroke: #000000; stroke-linejoin: miter"/>
   </g>
   <g id="patch_138">
    <path d="M 118.433204 144.101675 
L 107.939303 142.301206 
" clip-path="url(#p3b1c39c594)" style="fill: #1f77b4; stroke: #000000; stroke-linejoin: miter"/>
   </g>
   <g id="patch_139">
    <path d="M 248.905449 195.253796 
L 253.160988 200.778368 
" clip-path="url(#p3b1c39c594)" style="fill: #1f77b4; stroke: #000000; stroke-linejoin: miter"/>
   </g>
   <g id="patch_140">
    <path d="M 139.421006 147.702613 
L 128.927105 145.902144 
" clip-path="url(#p3b1c39c594)" style="fill: #1f77b4; stroke: #000000; stroke-linejoin: miter"/>
   </g>
   <g id="patch_141">
    <path d="M 262.898064 122.580514 
L 257.251514 128.227064 
" clip-path="url(#p3b1c39c594)" style="fill: #1f77b4; stroke: #000000; stroke-linejoin: miter"/>
   </g>
   <g id="patch_142">
    <path d="M 240.394371 184.204652 
L 244.64991 189.729224 
" clip-path="url(#p3b1c39c594)" style="fill: #1f77b4; stroke: #000000; stroke-linejoin: miter"/>
   </g>
   <g id="patch_143">
    <path d="M 160.408808 151.30355 
L 149.914907 149.503081 
" clip-path="url(#p3b1c39c594)" style="fill: #1f77b4; stroke: #000000; stroke-linejoin: miter"/>
   </g>
   <g id="patch_144">
    <path d="M 251.604964 133.873613 
L 245.958414 139.520163 
" clip-path="url(#p3b1c39c594)" style="fill: #1f77b4; stroke: #000000; stroke-linejoin: miter"/>
   </g>
   <g id="patch_145">
    <path d="M 181.396611 154.904488 
L 170.90271 153.104019 
" clip-path="url(#p3b1c39c594)" style="fill: #1f77b4; stroke: #000000; stroke-linejoin: miter"/>
   </g>
   <g id="patch_146">
    <path d="M 231.883293 173.155507 
L 236.138832 178.680079 
" clip-path="url(#p3b1c39c594)" style="fill: #1f77b4; stroke: #000000; stroke-linejoin: miter"/>
   </g>
   <g id="patch_147">
    <path d="M 240.311864 145.166713 
L 234.665314 150.813263 
" clip-path="url(#p3b1c39c594)" style="fill: #1f77b4; stroke: #000000; stroke-linejoin: miter"/>
   </g>
   <g id="patch_148">
    <path d="M 202.384413 158.505425 
L 191.890512 156.704957 
" clip-path="url(#p3b1c39c594)" style="fill: #1f77b4; stroke: #000000; stroke-linejoin: miter"/>
   </g>
   <g id="patch_149">
    <path d="M 223.372215 162.106363 
L 227.627754 167.630935 
" clip-path="url(#p3b1c39c594)" style="fill: #1f77b4; stroke: #000000; stroke-linejoin: miter"/>
   </g>
   <g id="patch_150">
    <path d="M 229.018764 156.459813 
L 223.372215 162.106363 
" clip-path="url(#p3b1c39c594)" style="fill: #1f77b4; stroke: #000000; stroke-linejoin: miter"/>
   </g>
   <g id="patch_151">
    <path d="M 223.372215 162.106363 
L 212.878314 160.305894 
" clip-path="url(#p3b1c39c594)" style="fill: #1f77b4; stroke: #000000; stroke-linejoin: miter"/>
   </g>
   <g id="patch_152">
    <path d="M 222.621686 127.380349 
L 212.127785 125.57988 
" clip-path="url(#p3b1c39c594)" style="fill: #1f77b4; stroke: #000000; stroke-linejoin: miter"/>
   </g>
   <g id="patch_153">
    <path d="M 212.127785 125.57988 
L 206.481236 131.22643 
" clip-path="url(#p3b1c39c594)" style="fill: #1f77b4; stroke: #000000; stroke-linejoin: miter"/>
   </g>
   <g id="patch_154">
    <path d="M 207.872246 120.055308 
L 212.127785 125.57988 
" clip-path="url(#p3b1c39c594)" style="fill: #1f77b4; stroke: #000000; stroke-linejoin: miter"/>
   </g>
   <g id="patch_155">
    <path d="M 243.609488 130.981287 
L 233.115587 129.180818 
" clip-path="url(#p3b1c39c594)" style="fill: #1f77b4; stroke: #000000; stroke-linejoin: miter"/>
   </g>
   <g id="patch_156">
    <path d="M 200.834686 136.87298 
L 195.188136 142.51953 
" clip-path="url(#p3b1c39c594)" style="fill: #1f77b4; stroke: #000000; stroke-linejoin: miter"/>
   </g>
   <g id="patch_157">
    <path d="M 199.361168 109.006164 
L 203.616707 114.530736 
" clip-path="url(#p3b1c39c594)" style="fill: #1f77b4; stroke: #000000; stroke-linejoin: miter"/>
   </g>
   <g id="patch_158">
    <path d="M 264.59729 134.582224 
L 254.103389 132.781755 
" clip-path="url(#p3b1c39c594)" style="fill: #1f77b4; stroke: #000000; stroke-linejoin: miter"/>
   </g>
   <g id="patch_159">
    <path d="M 189.541586 148.16608 
L 183.895036 153.81263 
" clip-path="url(#p3b1c39c594)" style="fill: #1f77b4; stroke: #000000; stroke-linejoin: miter"/>
   </g>
   <g id="patch_160">
    <path d="M 285.585093 138.183162 
L 275.091192 136.382693 
" clip-path="url(#p3b1c39c594)" style="fill: #1f77b4; stroke: #000000; stroke-linejoin: miter"/>
   </g>
   <g id="patch_161">
    <path d="M 190.85009 97.957019 
L 195.105629 103.481592 
" clip-path="url(#p3b1c39c594)" style="fill: #1f77b4; stroke: #000000; stroke-linejoin: miter"/>
   </g>
   <g id="patch_162">
    <path d="M 176.366303 176.46847 
C 180.378059 176.46847 184.226043 174.874583 187.062783 172.037843 
C 189.899523 169.201103 191.49341 165.353119 191.49341 161.341363 
C 191.49341 157.329607 189.899523 153.481623 187.062783 150.644883 
C 184.226043 147.808143 180.378059 146.214256 176.366303 146.214256 
C 172.354547 146.214256 168.506562 147.808143 165.669823 150.644883 
C 162.833083 153.481623 161.239196 157.329607 161.239196 161.341363 
C 161.239196 165.353119 162.833083 169.201103 165.669823 172.037843 
C 168.506562 174.874583 172.354547 176.46847 176.366303 176.46847 
z
" clip-path="url(#p3b1c39c594)" style="fill: #fa8072; stroke: #000000; stroke-linejoin: miter"/>
   </g>
   <g id="patch_163">
    <path d="M 306.572895 141.784099 
L 296.078994 139.98363 
" clip-path="url(#p3b1c39c594)" style="fill: #1f77b4; stroke: #000000; stroke-linejoin: miter"/>
   </g>
   <g id="patch_164">
    <path d="M 182.339012 86.907875 
L 186.594551 92.432447 
" clip-path="url(#p3b1c39c594)" style="fill: #1f77b4; stroke: #000000; stroke-linejoin: miter"/>
   </g>
   <g id="patch_165">
    <path d="M 327.560697 145.385037 
L 317.066796 143.584568 
" clip-path="url(#p3b1c39c594)" style="fill: #1f77b4; stroke: #000000; stroke-linejoin: miter"/>
   </g>
   <g id="patch_166">
    <path d="M 166.955386 170.752279 
L 161.308836 176.398829 
" clip-path="url(#p3b1c39c594)" style="fill: #1f77b4; stroke: #000000; stroke-linejoin: miter"/>
   </g>
   <g id="patch_167">
    <path d="M 173.827934 75.858731 
L 178.083473 81.383303 
" clip-path="url(#p3b1c39c594)" style="fill: #1f77b4; stroke: #000000; stroke-linejoin: miter"/>
   </g>
   <g id="patch_168">
    <path d="M 348.548499 148.985974 
L 338.054598 147.185506 
" clip-path="url(#p3b1c39c594)" style="fill: #1f77b4; stroke: #000000; stroke-linejoin: miter"/>
   </g>
   <g id="patch_169">
    <path d="M 155.662287 182.045379 
L 150.015737 187.691929 
" clip-path="url(#p3b1c39c594)" style="fill: #1f77b4; stroke: #000000; stroke-linejoin: miter"/>
   </g>
   <g id="patch_170">
    <path d="M 369.536301 152.586912 
L 359.0424 150.786443 
" clip-path="url(#p3b1c39c594)" style="fill: #1f77b4; stroke: #000000; stroke-linejoin: miter"/>
   </g>
   <g id="patch_171">
    <path d="M 165.316856 64.809586 
L 169.572395 70.334158 
" clip-path="url(#p3b1c39c594)" style="fill: #1f77b4; stroke: #000000; stroke-linejoin: miter"/>
   </g>
   <g id="patch_172">
    <path d="M 220.164995 149.774231 
C 224.176751 149.774231 228.024736 148.180344 230.861475 145.343604 
C 233.698215 142.506864 235.292102 138.65888 235.292102 134.647124 
C 235.292102 130.635368 233.698215 126.787383 230.861475 123.950644 
C 228.024736 121.113904 224.176751 119.520017 220.164995 119.520017 
C 216.15324 119.520017 212.305255 121.113904 209.468515 123.950644 
C 206.631776 126.787383 205.037888 130.635368 205.037888 134.647124 
C 205.037888 138.65888 206.631776 142.506864 209.468515 145.343604 
C 212.305255 148.180344 216.15324 149.774231 220.164995 149.774231 
z
" clip-path="url(#p3b1c39c594)" style="fill: #fa8072; stroke: #000000; stroke-linejoin: miter"/>
   </g>
   <g id="patch_173">
    <path d="M 140.60482 212.229953 
C 144.616576 212.229953 148.464561 210.636065 151.3013 207.799326 
C 154.13804 204.962586 155.731927 201.114601 155.731927 197.102845 
C 155.731927 193.09109 154.13804 189.243105 151.3013 186.406365 
C 148.464561 183.569626 144.616576 181.975738 140.60482 181.975738 
C 136.593065 181.975738 132.74508 183.569626 129.90834 186.406365 
C 127.071601 189.243105 125.477713 193.09109 125.477713 197.102845 
C 125.477713 201.114601 127.071601 204.962586 129.90834 207.799326 
C 132.74508 210.636065 136.593065 212.229953 140.60482 212.229953 
z
" clip-path="url(#p3b1c39c594)" style="fill: #fa8072; stroke: #000000; stroke-linejoin: miter"/>
   </g>
   <g id="patch_174">
    <path d="M 390.524103 156.187849 
L 380.030202 154.387381 
" clip-path="url(#p3b1c39c594)" style="fill: #1f77b4; stroke: #000000; stroke-linejoin: miter"/>
   </g>
   <g id="patch_175">
    <path d="M 149.414555 141.479513 
C 153.426311 141.479513 157.274296 139.885625 160.111035 137.048886 
C 162.947775 134.212146 164.541662 130.364161 164.541662 126.352406 
C 164.541662 122.34065 162.947775 118.492665 160.111035 115.655926 
C 157.274296 112.819186 153.426311 111.225298 149.414555 111.225298 
C 145.4028 111.225298 141.554815 112.819186 138.718075 115.655926 
C 135.881336 118.492665 134.287448 122.34065 134.287448 126.352406 
C 134.287448 130.364161 135.881336 134.212146 138.718075 137.048886 
C 141.554815 139.885625 145.4028 141.479513 149.414555 141.479513 
z
" clip-path="url(#p3b1c39c594)" style="fill: #fa8072; stroke: #000000; stroke-linejoin: miter"/>
   </g>
   <g id="patch_176">
    <path d="M 276.058363 193.572923 
C 280.070118 193.572923 283.918103 191.979036 286.754843 189.142296 
C 289.591582 186.305557 291.18547 182.457572 291.18547 178.445816 
C 291.18547 174.434061 289.591582 170.586076 286.754843 167.749336 
C 283.918103 164.912597 280.070118 163.318709 276.058363 163.318709 
C 272.046607 163.318709 268.198622 164.912597 265.361882 167.749336 
C 262.525143 170.586076 260.931255 174.434061 260.931255 178.445816 
C 260.931255 182.457572 262.525143 186.305557 265.361882 189.142296 
C 268.198622 191.979036 272.046607 193.572923 276.058363 193.572923 
z
" clip-path="url(#p3b1c39c594)" style="fill: #fa8072; stroke: #000000; stroke-linejoin: miter"/>
   </g>
   <g id="patch_177">
    <path d="M 156.805777 53.760442 
L 161.061316 59.285014 
" clip-path="url(#p3b1c39c594)" style="fill: #1f77b4; stroke: #000000; stroke-linejoin: miter"/>
   </g>
   <g id="patch_178">
    <path d="M 411.511905 159.788787 
L 401.018004 157.988318 
" clip-path="url(#p3b1c39c594)" style="fill: #1f77b4; stroke: #000000; stroke-linejoin: miter"/>
   </g>
   <g id="patch_179">
    <path d="M 133.076087 204.631579 
L 127.429537 210.278129 
" clip-path="url(#p3b1c39c594)" style="fill: #1f77b4; stroke: #000000; stroke-linejoin: miter"/>
   </g>
   <g id="patch_180">
    <path d="M 411.511905 159.788787 
L 405.865355 165.435337 
" clip-path="url(#p3b1c39c594)" style="fill: #1f77b4; stroke: #000000; stroke-linejoin: miter"/>
   </g>
   <g id="patch_181">
    <path d="M 407.256366 154.264215 
L 411.511905 159.788787 
" clip-path="url(#p3b1c39c594)" style="fill: #1f77b4; stroke: #000000; stroke-linejoin: miter"/>
   </g>
   <g id="patch_182">
    <path d="M 148.294699 42.711297 
L 152.550238 48.235869 
" clip-path="url(#p3b1c39c594)" style="fill: #1f77b4; stroke: #000000; stroke-linejoin: miter"/>
   </g>
   <g id="patch_183">
    <path d="M 121.782987 215.924678 
L 116.136437 221.571228 
" clip-path="url(#p3b1c39c594)" style="fill: #1f77b4; stroke: #000000; stroke-linejoin: miter"/>
   </g>
   <g id="patch_184">
    <path d="M 400.218805 171.081887 
L 394.572255 176.728437 
" clip-path="url(#p3b1c39c594)" style="fill: #1f77b4; stroke: #000000; stroke-linejoin: miter"/>
   </g>
   <g id="patch_185">
    <path d="M 398.745288 143.21507 
L 403.000827 148.739643 
" clip-path="url(#p3b1c39c594)" style="fill: #1f77b4; stroke: #000000; stroke-linejoin: miter"/>
   </g>
   <g id="patch_186">
    <path d="M 139.783621 31.662153 
L 144.03916 37.186725 
" clip-path="url(#p3b1c39c594)" style="fill: #1f77b4; stroke: #000000; stroke-linejoin: miter"/>
   </g>
   <g id="patch_187">
    <path d="M 184.403513 185.535714 
C 188.415268 185.535714 192.263253 183.941826 195.099993 181.105086 
C 197.936732 178.268347 199.53062 174.420362 199.53062 170.408606 
C 199.53062 166.396851 197.936732 162.548866 195.099993 159.712126 
C 192.263253 156.875387 188.415268 155.281499 184.403513 155.281499 
C 180.391757 155.281499 176.543772 156.875387 173.707033 159.712126 
C 170.870293 162.548866 169.276406 166.396851 169.276406 170.408606 
C 169.276406 174.420362 170.870293 178.268347 173.707033 181.105086 
C 176.543772 183.941826 180.391757 185.535714 184.403513 185.535714 
z
" clip-path="url(#p3b1c39c594)" style="fill: #fa8072; stroke: #000000; stroke-linejoin: miter"/>
   </g>
   <g id="patch_188">
    <path d="M 104.843338 248.527857 
C 108.997354 248.527857 112.981792 246.877449 115.919126 243.940116 
C 118.856459 241.002783 120.506867 237.018345 120.506867 232.864328 
C 120.506867 228.710312 118.856459 224.725873 115.919126 221.78854 
C 112.981792 218.851207 108.997354 217.200799 104.843338 217.200799 
C 100.689321 217.200799 96.704883 218.851207 93.76755 221.78854 
C 90.830217 224.725873 89.179808 228.710312 89.179808 232.864328 
C 89.179808 237.018345 90.830217 241.002783 93.76755 243.940116 
C 96.704883 246.877449 100.689321 248.527857 104.843338 248.527857 
z
" clip-path="url(#p3b1c39c594)" style="fill: #2e8b57; stroke: #000000; stroke-linejoin: miter"/>
   </g>
   <g id="patch_189">
    <path d="M 388.925705 182.374986 
L 383.279155 188.021536 
" clip-path="url(#p3b1c39c594)" style="fill: #1f77b4; stroke: #000000; stroke-linejoin: miter"/>
   </g>
   <g id="patch_190">
    <path d="M 193.213248 114.785274 
C 197.225003 114.785274 201.072988 113.191386 203.909728 110.354647 
C 206.746467 107.517907 208.340355 103.669922 208.340355 99.658167 
C 208.340355 95.646411 206.746467 91.798426 203.909728 88.961687 
C 201.072988 86.124947 197.225003 84.531059 193.213248 84.531059 
C 189.201492 84.531059 185.353507 86.124947 182.516768 88.961687 
C 179.680028 91.798426 178.086141 95.646411 178.086141 99.658167 
C 178.086141 103.669922 179.680028 107.517907 182.516768 110.354647 
C 185.353507 113.191386 189.201492 114.785274 193.213248 114.785274 
z
" clip-path="url(#p3b1c39c594)" style="fill: #fa8072; stroke: #000000; stroke-linejoin: miter"/>
   </g>
   <g id="patch_191">
    <path d="M 390.234209 132.165926 
L 394.489748 137.690498 
" clip-path="url(#p3b1c39c594)" style="fill: #1f77b4; stroke: #000000; stroke-linejoin: miter"/>
   </g>
   <g id="patch_192">
    <path d="M 113.653073 177.240995 
C 117.664828 177.240995 121.512813 175.647108 124.349553 172.810368 
C 127.186292 169.973629 128.78018 166.125644 128.78018 162.113888 
C 128.78018 158.102132 127.186292 154.254148 124.349553 151.417408 
C 121.512813 148.580669 117.664828 146.986781 113.653073 146.986781 
C 109.641317 146.986781 105.793332 148.580669 102.956593 151.417408 
C 100.119853 154.254148 98.525966 158.102132 98.525966 162.113888 
C 98.525966 166.125644 100.119853 169.973629 102.956593 172.810368 
C 105.793332 175.647108 109.641317 177.240995 113.653073 177.240995 
z
" clip-path="url(#p3b1c39c594)" style="fill: #fa8072; stroke: #000000; stroke-linejoin: miter"/>
   </g>
   <g id="patch_193">
    <path d="M 319.857055 166.878684 
C 323.868811 166.878684 327.716795 165.284797 330.553535 162.448057 
C 333.390275 159.611318 334.984162 155.763333 334.984162 151.751577 
C 334.984162 147.739821 333.390275 143.891837 330.553535 141.055097 
C 327.716795 138.218357 323.868811 136.62447 319.857055 136.62447 
C 315.845299 136.62447 311.997315 138.218357 309.160575 141.055097 
C 306.323835 143.891837 304.729948 147.739821 304.729948 151.751577 
C 304.729948 155.763333 306.323835 159.611318 309.160575 162.448057 
C 311.997315 165.284797 315.845299 166.878684 319.857055 166.878684 
z
" clip-path="url(#p3b1c39c594)" style="fill: #fa8072; stroke: #000000; stroke-linejoin: miter"/>
   </g>
   <g id="patch_194">
    <path d="M 240.29688 229.334406 
C 244.308636 229.334406 248.15662 227.740518 250.99336 224.903779 
C 253.8301 222.067039 255.423987 218.219055 255.423987 214.207299 
C 255.423987 210.195543 253.8301 206.347558 250.99336 203.510819 
C 248.15662 200.674079 244.308636 199.080192 240.29688 199.080192 
C 236.285124 199.080192 232.43714 200.674079 229.6004 203.510819 
C 226.76366 206.347558 225.169773 210.195543 225.169773 214.207299 
C 225.169773 218.219055 226.76366 222.067039 229.6004 224.903779 
C 232.43714 227.740518 236.285124 229.334406 240.29688 229.334406 
z
" clip-path="url(#p3b1c39c594)" style="fill: #fa8072; stroke: #000000; stroke-linejoin: miter"/>
   </g>
   <g id="patch_195">
    <path d="M 122.462808 106.490555 
C 126.474564 106.490555 130.322548 104.896668 133.159288 102.059928 
C 135.996028 99.223189 137.589915 95.375204 137.589915 91.363448 
C 137.589915 87.351693 135.996028 83.503708 133.159288 80.666968 
C 130.322548 77.830229 126.474564 76.236341 122.462808 76.236341 
C 118.451052 76.236341 114.603067 77.830229 111.766328 80.666968 
C 108.929588 83.503708 107.335701 87.351693 107.335701 91.363448 
C 107.335701 95.375204 108.929588 99.223189 111.766328 102.059928 
C 114.603067 104.896668 118.451052 106.490555 122.462808 106.490555 
z
" clip-path="url(#p3b1c39c594)" style="fill: #fa8072; stroke: #000000; stroke-linejoin: miter"/>
   </g>
   <g id="patch_196">
    <path d="M 131.272543 20.613008 
L 135.528082 26.137581 
" clip-path="url(#p3b1c39c594)" style="fill: #1f77b4; stroke: #000000; stroke-linejoin: miter"/>
   </g>
   <g id="patch_197">
    <path d="M 249.106615 158.583966 
C 253.118371 158.583966 256.966355 156.990079 259.803095 154.153339 
C 262.639835 151.316599 264.233722 147.468615 264.233722 143.456859 
C 264.233722 139.445103 262.639835 135.597119 259.803095 132.760379 
C 256.966355 129.923639 253.118371 128.329752 249.106615 128.329752 
C 245.094859 128.329752 241.246875 129.923639 238.410135 132.760379 
C 235.573395 135.597119 233.979508 139.445103 233.979508 143.456859 
C 233.979508 147.468615 235.573395 151.316599 238.410135 154.153339 
C 241.246875 156.990079 245.094859 158.583966 249.106615 158.583966 
z
" clip-path="url(#p3b1c39c594)" style="fill: #fa8072; stroke: #000000; stroke-linejoin: miter"/>
   </g>
   <g id="patch_198">
    <path d="M 136.325041 238.265734 
L 125.83114 236.465266 
" clip-path="url(#p3b1c39c594)" style="fill: #1f77b4; stroke: #000000; stroke-linejoin: miter"/>
   </g>
   <g id="patch_199">
    <path d="M 377.632605 193.668086 
L 371.986056 199.314636 
" clip-path="url(#p3b1c39c594)" style="fill: #1f77b4; stroke: #000000; stroke-linejoin: miter"/>
   </g>
   <g id="patch_200">
    <path d="M 141.766444 22.413477 
L 131.272543 20.613008 
" clip-path="url(#p3b1c39c594)" style="fill: #1f77b4; stroke: #000000; stroke-linejoin: miter"/>
   </g>
   <g id="patch_201">
    <path d="M 131.272543 20.613008 
L 125.625993 26.259558 
" clip-path="url(#p3b1c39c594)" style="fill: #1f77b4; stroke: #000000; stroke-linejoin: miter"/>
   </g>
   <g id="patch_202">
    <path d="M 92.07672 216.290611 
L 96.33226 221.815184 
" clip-path="url(#p3b1c39c594)" style="fill: #1f77b4; stroke: #000000; stroke-linejoin: miter"/>
   </g>
   <g id="patch_203">
    <path d="M 381.723131 121.116782 
L 385.97867 126.641354 
" clip-path="url(#p3b1c39c594)" style="fill: #1f77b4; stroke: #000000; stroke-linejoin: miter"/>
   </g>
   <g id="patch_204">
    <path d="M 157.312843 241.866672 
L 146.818942 240.066203 
" clip-path="url(#p3b1c39c594)" style="fill: #1f77b4; stroke: #000000; stroke-linejoin: miter"/>
   </g>
   <g id="patch_205">
    <path d="M 162.754246 26.014415 
L 152.260345 24.213946 
" clip-path="url(#p3b1c39c594)" style="fill: #1f77b4; stroke: #000000; stroke-linejoin: miter"/>
   </g>
   <g id="patch_206">
    <path d="M 366.339506 204.961186 
L 360.692956 210.607736 
" clip-path="url(#p3b1c39c594)" style="fill: #1f77b4; stroke: #000000; stroke-linejoin: miter"/>
   </g>
   <g id="patch_207">
    <path d="M 119.979443 31.906108 
L 114.332893 37.552658 
" clip-path="url(#p3b1c39c594)" style="fill: #1f77b4; stroke: #000000; stroke-linejoin: miter"/>
   </g>
   <g id="patch_208">
    <path d="M 178.300645 245.467609 
L 167.806744 243.667141 
" clip-path="url(#p3b1c39c594)" style="fill: #1f77b4; stroke: #000000; stroke-linejoin: miter"/>
   </g>
   <g id="patch_209">
    <path d="M 83.565642 205.241467 
L 87.821181 210.766039 
" clip-path="url(#p3b1c39c594)" style="fill: #1f77b4; stroke: #000000; stroke-linejoin: miter"/>
   </g>
   <g id="patch_210">
    <path d="M 373.212053 110.067637 
L 377.467592 115.592209 
" clip-path="url(#p3b1c39c594)" style="fill: #1f77b4; stroke: #000000; stroke-linejoin: miter"/>
   </g>
   <g id="patch_211">
    <path d="M 183.742048 29.615352 
L 173.248147 27.814884 
" clip-path="url(#p3b1c39c594)" style="fill: #1f77b4; stroke: #000000; stroke-linejoin: miter"/>
   </g>
   <g id="patch_212">
    <path d="M 355.046406 216.254286 
L 349.399856 221.900836 
" clip-path="url(#p3b1c39c594)" style="fill: #1f77b4; stroke: #000000; stroke-linejoin: miter"/>
   </g>
   <g id="patch_213">
    <path d="M 148.64203 221.297196 
C 152.653786 221.297196 156.50177 219.703309 159.33851 216.866569 
C 162.17525 214.029829 163.769137 210.181845 163.769137 206.170089 
C 163.769137 202.158333 162.17525 198.310349 159.33851 195.473609 
C 156.50177 192.636869 152.653786 191.042982 148.64203 191.042982 
C 144.630274 191.042982 140.78229 192.636869 137.94555 195.473609 
C 135.10881 198.310349 133.514923 202.158333 133.514923 206.170089 
C 133.514923 210.181845 135.10881 214.029829 137.94555 216.866569 
C 140.78229 219.703309 144.630274 221.297196 148.64203 221.297196 
z
" clip-path="url(#p3b1c39c594)" style="fill: #fa8072; stroke: #000000; stroke-linejoin: miter"/>
   </g>
   <g id="patch_214">
    <path d="M 199.288447 249.068547 
L 188.794546 247.268078 
" clip-path="url(#p3b1c39c594)" style="fill: #1f77b4; stroke: #000000; stroke-linejoin: miter"/>
   </g>
   <g id="patch_215">
    <path d="M 108.686343 43.199208 
L 103.039794 48.845758 
" clip-path="url(#p3b1c39c594)" style="fill: #1f77b4; stroke: #000000; stroke-linejoin: miter"/>
   </g>
   <g id="patch_216">
    <path d="M 157.451765 150.546756 
C 161.463521 150.546756 165.311506 148.952869 168.148245 146.116129 
C 170.984985 143.27939 172.578872 139.431405 172.578872 135.419649 
C 172.578872 131.407893 170.984985 127.559909 168.148245 124.723169 
C 165.311506 121.886429 161.463521 120.292542 157.451765 120.292542 
C 153.440009 120.292542 149.592025 121.886429 146.755285 124.723169 
C 143.918545 127.559909 142.324658 131.407893 142.324658 135.419649 
C 142.324658 139.431405 143.918545 143.27939 146.755285 146.116129 
C 149.592025 148.952869 153.440009 150.546756 157.451765 150.546756 
z
" clip-path="url(#p3b1c39c594)" style="fill: #fa8072; stroke: #000000; stroke-linejoin: miter"/>
   </g>
   <g id="patch_217">
    <path d="M 77.89159 213.002478 
C 81.903346 213.002478 85.751331 211.40859 88.58807 208.571851 
C 91.42481 205.735111 93.018697 201.887126 93.018697 197.875371 
C 93.018697 193.863615 91.42481 190.01563 88.58807 187.178891 
C 85.751331 184.342151 81.903346 182.748264 77.89159 182.748264 
C 73.879835 182.748264 70.03185 184.342151 67.19511 187.178891 
C 64.358371 190.01563 62.764483 193.863615 62.764483 197.875371 
C 62.764483 201.887126 64.358371 205.735111 67.19511 208.571851 
C 70.03185 211.40859 73.879835 213.002478 77.89159 213.002478 
z
" clip-path="url(#p3b1c39c594)" style="fill: #fa8072; stroke: #000000; stroke-linejoin: miter"/>
   </g>
   <g id="patch_218">
    <path d="M 204.72985 33.21629 
L 194.235949 31.415821 
" clip-path="url(#p3b1c39c594)" style="fill: #1f77b4; stroke: #000000; stroke-linejoin: miter"/>
   </g>
   <g id="patch_219">
    <path d="M 284.095572 202.640167 
C 288.107328 202.640167 291.955313 201.046279 294.792052 198.20954 
C 297.628792 195.3728 299.222679 191.524815 299.222679 187.51306 
C 299.222679 183.501304 297.628792 179.653319 294.792052 176.81658 
C 291.955313 173.97984 288.107328 172.385953 284.095572 172.385953 
C 280.083817 172.385953 276.235832 173.97984 273.399092 176.81658 
C 270.562353 179.653319 268.968465 183.501304 268.968465 187.51306 
C 268.968465 191.524815 270.562353 195.3728 273.399092 198.20954 
C 276.235832 201.046279 280.083817 202.640167 284.095572 202.640167 
z
" clip-path="url(#p3b1c39c594)" style="fill: #fa8072; stroke: #000000; stroke-linejoin: miter"/>
   </g>
   <g id="patch_220">
    <path d="M 364.700975 99.018493 
L 368.956514 104.543065 
" clip-path="url(#p3b1c39c594)" style="fill: #1f77b4; stroke: #000000; stroke-linejoin: miter"/>
   </g>
   <g id="patch_221">
    <path d="M 204.535397 265.095888 
C 208.547153 265.095888 212.395138 263.502001 215.231877 260.665261 
C 218.068617 257.828522 219.662504 253.980537 219.662504 249.968781 
C 219.662504 245.957026 218.068617 242.109041 215.231877 239.272301 
C 212.395138 236.435562 208.547153 234.841674 204.535397 234.841674 
C 200.523642 234.841674 196.675657 236.435562 193.838917 239.272301 
C 191.002178 242.109041 189.40829 245.957026 189.40829 249.968781 
C 189.40829 253.980537 191.002178 257.828522 193.838917 260.665261 
C 196.675657 263.502001 200.523642 265.095888 204.535397 265.095888 
z
" clip-path="url(#p3b1c39c594)" style="fill: #fa8072; stroke: #000000; stroke-linejoin: miter"/>
   </g>
   <g id="patch_222">
    <path d="M 166.2615 79.796316 
C 170.273256 79.796316 174.121241 78.202429 176.95798 75.365689 
C 179.79472 72.52895 181.388607 68.680965 181.388607 64.669209 
C 181.388607 60.657454 179.79472 56.809469 176.95798 53.972729 
C 174.121241 51.13599 170.273256 49.542102 166.2615 49.542102 
C 162.249745 49.542102 158.40176 51.13599 155.56502 53.972729 
C 152.728281 56.809469 151.134393 60.657454 151.134393 64.669209 
C 151.134393 68.680965 152.728281 72.52895 155.56502 75.365689 
C 158.40176 78.202429 162.249745 79.796316 166.2615 79.796316 
z
" clip-path="url(#p3b1c39c594)" style="fill: #fa8072; stroke: #000000; stroke-linejoin: miter"/>
   </g>
   <g id="patch_223">
    <path d="M 86.701325 142.252038 
C 90.713081 142.252038 94.561066 140.658151 97.397805 137.821411 
C 100.234545 134.984671 101.828432 131.136687 101.828432 127.124931 
C 101.828432 123.113175 100.234545 119.265191 97.397805 116.428451 
C 94.561066 113.591711 90.713081 111.997824 86.701325 111.997824 
C 82.68957 111.997824 78.841585 113.591711 76.004845 116.428451 
C 73.168106 119.265191 71.574218 123.113175 71.574218 127.124931 
C 71.574218 131.136687 73.168106 134.984671 76.004845 137.821411 
C 78.841585 140.658151 82.68957 142.252038 86.701325 142.252038 
z
" clip-path="url(#p3b1c39c594)" style="fill: #fa8072; stroke: #000000; stroke-linejoin: miter"/>
   </g>
   <g id="patch_224">
    <path d="M 292.905307 131.889727 
C 296.917063 131.889727 300.765048 130.29584 303.601787 127.4591 
C 306.438527 124.62236 308.032415 120.774376 308.032415 116.76262 
C 308.032415 112.750864 306.438527 108.90288 303.601787 106.06614 
C 300.765048 103.2294 296.917063 101.635513 292.905307 101.635513 
C 288.893552 101.635513 285.045567 103.2294 282.208827 106.06614 
C 279.372088 108.90288 277.7782 112.750864 277.7782 116.76262 
C 277.7782 120.774376 279.372088 124.62236 282.208827 127.4591 
C 285.045567 130.29584 288.893552 131.889727 292.905307 131.889727 
z
" clip-path="url(#p3b1c39c594)" style="fill: #fa8072; stroke: #000000; stroke-linejoin: miter"/>
   </g>
   <g id="patch_225">
    <path d="M 213.345132 194.345449 
C 217.356888 194.345449 221.204873 192.751561 224.041612 189.914822 
C 226.878352 187.078082 228.47224 183.230097 228.47224 179.218342 
C 228.47224 175.206586 226.878352 171.358601 224.041612 168.521861 
C 221.204873 165.685122 217.356888 164.091234 213.345132 164.091234 
C 209.333377 164.091234 205.485392 165.685122 202.648652 168.521861 
C 199.811913 171.358601 198.218025 175.206586 198.218025 179.218342 
C 198.218025 183.230097 199.811913 187.078082 202.648652 189.914822 
C 205.485392 192.751561 209.333377 194.345449 213.345132 194.345449 
z
" clip-path="url(#p3b1c39c594)" style="fill: #fa8072; stroke: #000000; stroke-linejoin: miter"/>
   </g>
   <g id="patch_226">
    <path d="M 220.276249 252.669485 
L 209.782348 250.869016 
" clip-path="url(#p3b1c39c594)" style="fill: #1f77b4; stroke: #000000; stroke-linejoin: miter"/>
   </g>
   <g id="patch_227">
    <path d="M 343.753306 227.547386 
L 338.106756 233.193935 
" clip-path="url(#p3b1c39c594)" style="fill: #1f77b4; stroke: #000000; stroke-linejoin: miter"/>
   </g>
   <g id="patch_228">
    <path d="M 97.393244 54.492308 
L 91.746694 60.138858 
" clip-path="url(#p3b1c39c594)" style="fill: #1f77b4; stroke: #000000; stroke-linejoin: miter"/>
   </g>
   <g id="patch_229">
    <path d="M 225.717652 36.817227 
L 215.223751 35.016759 
" clip-path="url(#p3b1c39c594)" style="fill: #1f77b4; stroke: #000000; stroke-linejoin: miter"/>
   </g>
   <g id="patch_230">
    <path d="M 222.154868 123.595009 
C 226.166623 123.595009 230.014608 122.001121 232.851348 119.164382 
C 235.688087 116.327642 237.281975 112.479657 237.281975 108.467902 
C 237.281975 104.456146 235.688087 100.608161 232.851348 97.771422 
C 230.014608 94.934682 226.166623 93.340795 222.154868 93.340795 
C 218.143112 93.340795 214.295127 94.934682 211.458388 97.771422 
C 208.621648 100.608161 207.02776 104.456146 207.02776 108.467902 
C 207.02776 112.479657 208.621648 116.327642 211.458388 119.164382 
C 214.295127 122.001121 218.143112 123.595009 222.154868 123.595009 
z
" clip-path="url(#p3b1c39c594)" style="fill: #fa8072; stroke: #000000; stroke-linejoin: miter"/>
   </g>
   <g id="patch_231">
    <path d="M 66.543486 183.143178 
L 70.799025 188.66775 
" clip-path="url(#p3b1c39c594)" style="fill: #1f77b4; stroke: #000000; stroke-linejoin: miter"/>
   </g>
   <g id="patch_232">
    <path d="M 356.189897 87.969348 
L 360.445436 93.493921 
" clip-path="url(#p3b1c39c594)" style="fill: #1f77b4; stroke: #000000; stroke-linejoin: miter"/>
   </g>
   <g id="patch_233">
    <path d="M 241.264051 256.270422 
L 230.77015 254.469953 
" clip-path="url(#p3b1c39c594)" style="fill: #1f77b4; stroke: #000000; stroke-linejoin: miter"/>
   </g>
   <g id="patch_234">
    <path d="M 332.460206 238.840485 
L 326.813657 244.487035 
" clip-path="url(#p3b1c39c594)" style="fill: #1f77b4; stroke: #000000; stroke-linejoin: miter"/>
   </g>
   <g id="patch_235">
    <path d="M 246.705454 40.418165 
L 236.211553 38.617696 
" clip-path="url(#p3b1c39c594)" style="fill: #1f77b4; stroke: #000000; stroke-linejoin: miter"/>
   </g>
   <g id="patch_236">
    <path d="M 86.100144 65.785408 
L 80.453594 71.431957 
" clip-path="url(#p3b1c39c594)" style="fill: #1f77b4; stroke: #000000; stroke-linejoin: miter"/>
   </g>
   <g id="patch_237">
    <path d="M 262.251853 259.87136 
L 251.757952 258.070891 
" clip-path="url(#p3b1c39c594)" style="fill: #1f77b4; stroke: #000000; stroke-linejoin: miter"/>
   </g>
   <g id="patch_238">
    <path d="M 58.032408 172.094034 
L 62.287947 177.618606 
" clip-path="url(#p3b1c39c594)" style="fill: #1f77b4; stroke: #000000; stroke-linejoin: miter"/>
   </g>
   <g id="patch_239">
    <path d="M 347.678819 76.920204 
L 351.934358 82.444776 
" clip-path="url(#p3b1c39c594)" style="fill: #1f77b4; stroke: #000000; stroke-linejoin: miter"/>
   </g>
   <g id="patch_240">
    <path d="M 267.693256 44.019102 
L 257.199355 42.218634 
" clip-path="url(#p3b1c39c594)" style="fill: #1f77b4; stroke: #000000; stroke-linejoin: miter"/>
   </g>
   <g id="patch_241">
    <path d="M 321.167107 250.133585 
L 315.520557 255.780135 
" clip-path="url(#p3b1c39c594)" style="fill: #1f77b4; stroke: #000000; stroke-linejoin: miter"/>
   </g>
   <g id="patch_242">
    <path d="M 74.807044 77.078507 
L 69.160494 82.725057 
" clip-path="url(#p3b1c39c594)" style="fill: #1f77b4; stroke: #000000; stroke-linejoin: miter"/>
   </g>
   <g id="patch_243">
    <path d="M 283.239655 263.472297 
L 272.745754 261.671828 
" clip-path="url(#p3b1c39c594)" style="fill: #1f77b4; stroke: #000000; stroke-linejoin: miter"/>
   </g>
   <g id="patch_244">
    <path d="M 121.690283 186.308239 
C 125.702038 186.308239 129.550023 184.714351 132.386763 181.877612 
C 135.223502 179.040872 136.81739 175.192887 136.81739 171.181132 
C 136.81739 167.169376 135.223502 163.321391 132.386763 160.484652 
C 129.550023 157.647912 125.702038 156.054025 121.690283 156.054025 
C 117.678527 156.054025 113.830542 157.647912 110.993803 160.484652 
C 108.157063 163.321391 106.563175 167.169376 106.563175 171.181132 
C 106.563175 175.192887 108.157063 179.040872 110.993803 181.877612 
C 113.830542 184.714351 117.678527 186.308239 121.690283 186.308239 
z
" clip-path="url(#p3b1c39c594)" style="fill: #fa8072; stroke: #000000; stroke-linejoin: miter"/>
   </g>
   <g id="patch_245">
    <path d="M 288.681058 47.62004 
L 278.187157 45.819571 
" clip-path="url(#p3b1c39c594)" style="fill: #1f77b4; stroke: #000000; stroke-linejoin: miter"/>
   </g>
   <g id="patch_246">
    <path d="M 248.33409 238.401649 
C 252.345845 238.401649 256.19383 236.807762 259.03057 233.971022 
C 261.867309 231.134283 263.461197 227.286298 263.461197 223.274542 
C 263.461197 219.262787 261.867309 215.414802 259.03057 212.578062 
C 256.19383 209.741323 252.345845 208.147435 248.33409 208.147435 
C 244.322334 208.147435 240.474349 209.741323 237.63761 212.578062 
C 234.80087 215.414802 233.206983 219.262787 233.206983 223.274542 
C 233.206983 227.286298 234.80087 231.134283 237.63761 233.971022 
C 240.474349 236.807762 244.322334 238.401649 248.33409 238.401649 
z
" clip-path="url(#p3b1c39c594)" style="fill: #fa8072; stroke: #000000; stroke-linejoin: miter"/>
   </g>
   <g id="patch_247">
    <path d="M 339.16774 65.87106 
L 343.42328 71.395632 
" clip-path="url(#p3b1c39c594)" style="fill: #1f77b4; stroke: #000000; stroke-linejoin: miter"/>
   </g>
   <g id="patch_248">
    <path d="M 130.500018 115.557799 
C 134.511773 115.557799 138.359758 113.963912 141.196498 111.127172 
C 144.033237 108.290432 145.627125 104.442448 145.627125 100.430692 
C 145.627125 96.418936 144.033237 92.570951 141.196498 89.734212 
C 138.359758 86.897472 134.511773 85.303585 130.500018 85.303585 
C 126.488262 85.303585 122.640277 86.897472 119.803538 89.734212 
C 116.966798 92.570951 115.372911 96.418936 115.372911 100.430692 
C 115.372911 104.442448 116.966798 108.290432 119.803538 111.127172 
C 122.640277 113.963912 126.488262 115.557799 130.500018 115.557799 
z
" clip-path="url(#p3b1c39c594)" style="fill: #fa8072; stroke: #000000; stroke-linejoin: miter"/>
   </g>
   <g id="patch_249">
    <path d="M 50.939843 178.013521 
C 54.951598 178.013521 58.799583 176.419633 61.636323 173.582894 
C 64.473062 170.746154 66.06695 166.898169 66.06695 162.886413 
C 66.06695 158.874658 64.473062 155.026673 61.636323 152.189933 
C 58.799583 149.353194 54.951598 147.759306 50.939843 147.759306 
C 46.928087 147.759306 43.080102 149.353194 40.243363 152.189933 
C 37.406623 155.026673 35.812736 158.874658 35.812736 162.886413 
C 35.812736 166.898169 37.406623 170.746154 40.243363 173.582894 
C 43.080102 176.419633 46.928087 178.013521 50.939843 178.013521 
z
" clip-path="url(#p3b1c39c594)" style="fill: #fa8072; stroke: #000000; stroke-linejoin: miter"/>
   </g>
   <g id="patch_250">
    <path d="M 309.874007 261.426685 
L 304.227457 267.073235 
" clip-path="url(#p3b1c39c594)" style="fill: #1f77b4; stroke: #000000; stroke-linejoin: miter"/>
   </g>
   <g id="patch_251">
    <path d="M 304.227457 267.073235 
L 293.733556 265.272766 
" clip-path="url(#p3b1c39c594)" style="fill: #1f77b4; stroke: #000000; stroke-linejoin: miter"/>
   </g>
   <g id="patch_252">
    <path d="M 257.143825 167.65121 
C 261.155581 167.65121 265.003565 166.057322 267.840305 163.220582 
C 270.677045 160.383843 272.270932 156.535858 272.270932 152.524102 
C 272.270932 148.512347 270.677045 144.664362 267.840305 141.827622 
C 265.003565 138.990883 261.155581 137.396995 257.143825 137.396995 
C 253.132069 137.396995 249.284084 138.990883 246.447345 141.827622 
C 243.610605 144.664362 242.016718 148.512347 242.016718 152.524102 
C 242.016718 156.535858 243.610605 160.383843 246.447345 163.220582 
C 249.284084 166.057322 253.132069 167.65121 257.143825 167.65121 
z
" clip-path="url(#p3b1c39c594)" style="fill: #fa8072; stroke: #000000; stroke-linejoin: miter"/>
   </g>
   <g id="patch_253">
    <path d="M 177.58365 230.106931 
C 181.595406 230.106931 185.44339 228.513044 188.28013 225.676304 
C 191.11687 222.839564 192.710757 218.99158 192.710757 214.979824 
C 192.710757 210.968068 191.11687 207.120084 188.28013 204.283344 
C 185.44339 201.446604 181.595406 199.852717 177.58365 199.852717 
C 173.571894 199.852717 169.72391 201.446604 166.88717 204.283344 
C 164.05043 207.120084 162.456543 210.968068 162.456543 214.979824 
C 162.456543 218.99158 164.05043 222.839564 166.88717 225.676304 
C 169.72391 228.513044 173.571894 230.106931 177.58365 230.106931 
z
" clip-path="url(#p3b1c39c594)" style="fill: #fa8072; stroke: #000000; stroke-linejoin: miter"/>
   </g>
   <g id="patch_254">
    <path d="M 63.513944 88.371607 
L 57.867395 94.018157 
" clip-path="url(#p3b1c39c594)" style="fill: #1f77b4; stroke: #000000; stroke-linejoin: miter"/>
   </g>
   <g id="patch_255">
    <path d="M 309.66886 51.220978 
L 299.174959 49.420509 
" clip-path="url(#p3b1c39c594)" style="fill: #1f77b4; stroke: #000000; stroke-linejoin: miter"/>
   </g>
   <g id="patch_256">
    <path d="M 265.95356 96.90077 
C 269.965316 96.90077 273.8133 95.306882 276.65004 92.470143 
C 279.48678 89.633403 281.080667 85.785418 281.080667 81.773663 
C 281.080667 77.761907 279.48678 73.913922 276.65004 71.077183 
C 273.8133 68.240443 269.965316 66.646555 265.95356 66.646555 
C 261.941804 66.646555 258.09382 68.240443 255.25708 71.077183 
C 252.42034 73.913922 250.826453 77.761907 250.826453 81.773663 
C 250.826453 85.785418 252.42034 89.633403 255.25708 92.470143 
C 258.09382 95.306882 261.941804 96.90077 265.95356 96.90077 
z
" clip-path="url(#p3b1c39c594)" style="fill: #fa8072; stroke: #000000; stroke-linejoin: miter"/>
   </g>
   <g id="patch_257">
    <path d="M 186.393385 159.356491 
C 190.405141 159.356491 194.253125 157.762604 197.089865 154.925864 
C 199.926605 152.089125 201.520492 148.24114 201.520492 144.229384 
C 201.520492 140.217629 199.926605 136.369644 197.089865 133.532904 
C 194.253125 130.696165 190.405141 129.102277 186.393385 129.102277 
C 182.381629 129.102277 178.533645 130.696165 175.696905 133.532904 
C 172.860165 136.369644 171.266278 140.217629 171.266278 144.229384 
C 171.266278 148.24114 172.860165 152.089125 175.696905 154.925864 
C 178.533645 157.762604 182.381629 159.356491 186.393385 159.356491 
z
" clip-path="url(#p3b1c39c594)" style="fill: #fa8072; stroke: #000000; stroke-linejoin: miter"/>
   </g>
   <g id="patch_258">
    <path d="M 299.971918 261.548662 
L 304.227457 267.073235 
" clip-path="url(#p3b1c39c594)" style="fill: #1f77b4; stroke: #000000; stroke-linejoin: miter"/>
   </g>
   <g id="patch_259">
    <path d="M 41.010252 149.995745 
L 45.265791 155.520317 
" clip-path="url(#p3b1c39c594)" style="fill: #1f77b4; stroke: #000000; stroke-linejoin: miter"/>
   </g>
   <g id="patch_260">
    <path d="M 330.656662 54.821915 
L 334.912201 60.346487 
" clip-path="url(#p3b1c39c594)" style="fill: #1f77b4; stroke: #000000; stroke-linejoin: miter"/>
   </g>
   <g id="patch_261">
    <path d="M 330.656662 54.821915 
L 320.162761 53.021446 
" clip-path="url(#p3b1c39c594)" style="fill: #1f77b4; stroke: #000000; stroke-linejoin: miter"/>
   </g>
   <g id="patch_262">
    <path d="M 52.220845 99.664707 
L 46.574295 105.311257 
" clip-path="url(#p3b1c39c594)" style="fill: #1f77b4; stroke: #000000; stroke-linejoin: miter"/>
   </g>
   <g id="patch_263">
    <path d="M 330.656662 54.821915 
L 325.010112 60.468465 
" clip-path="url(#p3b1c39c594)" style="fill: #1f77b4; stroke: #000000; stroke-linejoin: miter"/>
   </g>
   <g id="patch_264">
    <path d="M 291.46084 250.499518 
L 295.716379 256.02409 
" clip-path="url(#p3b1c39c594)" style="fill: #1f77b4; stroke: #000000; stroke-linejoin: miter"/>
   </g>
   <g id="patch_265">
    <path d="M 32.499173 138.946601 
L 36.754712 144.471173 
" clip-path="url(#p3b1c39c594)" style="fill: #1f77b4; stroke: #000000; stroke-linejoin: miter"/>
   </g>
   <g id="patch_266">
    <path d="M 40.927745 110.957807 
L 35.281195 116.604356 
" clip-path="url(#p3b1c39c594)" style="fill: #1f77b4; stroke: #000000; stroke-linejoin: miter"/>
   </g>
   <g id="patch_267">
    <path d="M 319.363563 66.115015 
L 313.717013 71.761565 
" clip-path="url(#p3b1c39c594)" style="fill: #1f77b4; stroke: #000000; stroke-linejoin: miter"/>
   </g>
   <g id="patch_268">
    <path d="M 282.949762 239.450374 
L 287.205301 244.974946 
" clip-path="url(#p3b1c39c594)" style="fill: #1f77b4; stroke: #000000; stroke-linejoin: miter"/>
   </g>
   <g id="patch_269">
    <path d="M 94.738535 151.319282 
C 98.750291 151.319282 102.598275 149.725394 105.435015 146.888654 
C 108.271755 144.051915 109.865642 140.20393 109.865642 136.192174 
C 109.865642 132.180419 108.271755 128.332434 105.435015 125.495694 
C 102.598275 122.658955 98.750291 121.065067 94.738535 121.065067 
C 90.726779 121.065067 86.878795 122.658955 84.042055 125.495694 
C 81.205315 128.332434 79.611428 132.180419 79.611428 136.192174 
C 79.611428 140.20393 81.205315 144.051915 84.042055 146.888654 
C 86.878795 149.725394 90.726779 151.319282 94.738535 151.319282 
z
" clip-path="url(#p3b1c39c594)" style="fill: #fa8072; stroke: #000000; stroke-linejoin: miter"/>
   </g>
   <g id="patch_270">
    <path d="M 23.988095 127.897456 
L 28.243634 133.422028 
" clip-path="url(#p3b1c39c594)" style="fill: #1f77b4; stroke: #000000; stroke-linejoin: miter"/>
   </g>
   <g id="patch_271">
    <path d="M 221.382342 203.412692 
C 225.394098 203.412692 229.242083 201.818805 232.078822 198.982065 
C 234.915562 196.145325 236.509449 192.297341 236.509449 188.285585 
C 236.509449 184.273829 234.915562 180.425845 232.078822 177.589105 
C 229.242083 174.752365 225.394098 173.158478 221.382342 173.158478 
C 217.370587 173.158478 213.522602 174.752365 210.685862 177.589105 
C 207.849123 180.425845 206.255235 184.273829 206.255235 188.285585 
C 206.255235 192.297341 207.849123 196.145325 210.685862 198.982065 
C 213.522602 201.818805 217.370587 203.412692 221.382342 203.412692 
z
" clip-path="url(#p3b1c39c594)" style="fill: #fa8072; stroke: #000000; stroke-linejoin: miter"/>
   </g>
   <g id="patch_272">
    <path d="M 29.634645 122.250906 
L 23.988095 127.897456 
" clip-path="url(#p3b1c39c594)" style="fill: #1f77b4; stroke: #000000; stroke-linejoin: miter"/>
   </g>
   <g id="patch_273">
    <path d="M 308.070463 77.408115 
L 302.423913 83.054665 
" clip-path="url(#p3b1c39c594)" style="fill: #1f77b4; stroke: #000000; stroke-linejoin: miter"/>
   </g>
   <g id="patch_274">
    <path d="M 230.192077 132.662252 
C 234.203833 132.662252 238.051818 131.068365 240.888557 128.231625 
C 243.725297 125.394886 245.319184 121.546901 245.319184 117.535145 
C 245.319184 113.523389 243.725297 109.675405 240.888557 106.838665 
C 238.051818 104.001925 234.203833 102.408038 230.192077 102.408038 
C 226.180322 102.408038 222.332337 104.001925 219.495597 106.838665 
C 216.658858 109.675405 215.06497 113.523389 215.06497 117.535145 
C 215.06497 121.546901 216.658858 125.394886 219.495597 128.231625 
C 222.332337 131.068365 226.180322 132.662252 230.192077 132.662252 
z
" clip-path="url(#p3b1c39c594)" style="fill: #fa8072; stroke: #000000; stroke-linejoin: miter"/>
   </g>
   <g id="patch_275">
    <path d="M 150.631902 195.117974 
C 154.643658 195.117974 158.491643 193.524086 161.328382 190.687347 
C 164.165122 187.850607 165.75901 184.002623 165.75901 179.990867 
C 165.75901 175.979111 164.165122 172.131126 161.328382 169.294387 
C 158.491643 166.457647 154.643658 164.86376 150.631902 164.86376 
C 146.620147 164.86376 142.772162 166.457647 139.935422 169.294387 
C 137.098683 172.131126 135.504795 175.979111 135.504795 179.990867 
C 135.504795 184.002623 137.098683 187.850607 139.935422 190.687347 
C 142.772162 193.524086 146.620147 195.117974 150.631902 195.117974 
z
" clip-path="url(#p3b1c39c594)" style="fill: #fa8072; stroke: #000000; stroke-linejoin: miter"/>
   </g>
   <g id="patch_276">
    <path d="M 34.481996 129.697925 
L 23.988095 127.897456 
" clip-path="url(#p3b1c39c594)" style="fill: #1f77b4; stroke: #000000; stroke-linejoin: miter"/>
   </g>
   <g id="patch_277">
    <path d="M 274.438684 228.401229 
L 278.694223 233.925801 
" clip-path="url(#p3b1c39c594)" style="fill: #1f77b4; stroke: #000000; stroke-linejoin: miter"/>
   </g>
   <g id="patch_278">
    <path d="M 55.469798 133.298863 
L 44.975897 131.498394 
" clip-path="url(#p3b1c39c594)" style="fill: #1f77b4; stroke: #000000; stroke-linejoin: miter"/>
   </g>
   <g id="patch_279">
    <path d="M 296.777363 88.701214 
L 291.130813 94.347764 
" clip-path="url(#p3b1c39c594)" style="fill: #1f77b4; stroke: #000000; stroke-linejoin: miter"/>
   </g>
   <g id="patch_280">
    <path d="M 265.927605 217.352085 
L 270.183144 222.876657 
" clip-path="url(#p3b1c39c594)" style="fill: #1f77b4; stroke: #000000; stroke-linejoin: miter"/>
   </g>
   <g id="patch_281">
    <path d="M 76.4576 136.8998 
L 65.963699 135.099331 
" clip-path="url(#p3b1c39c594)" style="fill: #1f77b4; stroke: #000000; stroke-linejoin: miter"/>
   </g>
   <g id="patch_282">
    <path d="M 285.484263 99.994314 
L 279.837713 105.640864 
" clip-path="url(#p3b1c39c594)" style="fill: #1f77b4; stroke: #000000; stroke-linejoin: miter"/>
   </g>
   <g id="patch_283">
    <path d="M 97.445402 140.500738 
L 86.951501 138.700269 
" clip-path="url(#p3b1c39c594)" style="fill: #1f77b4; stroke: #000000; stroke-linejoin: miter"/>
   </g>
   <g id="patch_284">
    <path d="M 257.416527 206.30294 
L 261.672066 211.827513 
" clip-path="url(#p3b1c39c594)" style="fill: #1f77b4; stroke: #000000; stroke-linejoin: miter"/>
   </g>
   <g id="patch_285">
    <path d="M 274.191164 111.287414 
L 268.544614 116.933964 
" clip-path="url(#p3b1c39c594)" style="fill: #1f77b4; stroke: #000000; stroke-linejoin: miter"/>
   </g>
   <g id="patch_286">
    <path d="M 194.430595 168.423735 
C 198.44235 168.423735 202.290335 166.829847 205.127075 163.993108 
C 207.963814 161.156368 209.557702 157.308383 209.557702 153.296628 
C 209.557702 149.284872 207.963814 145.436887 205.127075 142.600148 
C 202.290335 139.763408 198.44235 138.169521 194.430595 138.169521 
C 190.418839 138.169521 186.570854 139.763408 183.734115 142.600148 
C 180.897375 145.436887 179.303488 149.284872 179.303488 153.296628 
C 179.303488 157.308383 180.897375 161.156368 183.734115 163.993108 
C 186.570854 166.829847 190.418839 168.423735 194.430595 168.423735 
z
" clip-path="url(#p3b1c39c594)" style="fill: #fa8072; stroke: #000000; stroke-linejoin: miter"/>
   </g>
   <g id="patch_287">
    <path d="M 118.433204 144.101675 
L 107.939303 142.301206 
" clip-path="url(#p3b1c39c594)" style="fill: #1f77b4; stroke: #000000; stroke-linejoin: miter"/>
   </g>
   <g id="patch_288">
    <path d="M 248.905449 195.253796 
L 253.160988 200.778368 
" clip-path="url(#p3b1c39c594)" style="fill: #1f77b4; stroke: #000000; stroke-linejoin: miter"/>
   </g>
   <g id="patch_289">
    <path d="M 139.421006 147.702613 
L 128.927105 145.902144 
" clip-path="url(#p3b1c39c594)" style="fill: #1f77b4; stroke: #000000; stroke-linejoin: miter"/>
   </g>
   <g id="patch_290">
    <path d="M 262.898064 122.580514 
L 257.251514 128.227064 
" clip-path="url(#p3b1c39c594)" style="fill: #1f77b4; stroke: #000000; stroke-linejoin: miter"/>
   </g>
   <g id="patch_291">
    <path d="M 240.394371 184.204652 
L 244.64991 189.729224 
" clip-path="url(#p3b1c39c594)" style="fill: #1f77b4; stroke: #000000; stroke-linejoin: miter"/>
   </g>
   <g id="patch_292">
    <path d="M 160.408808 151.30355 
L 149.914907 149.503081 
" clip-path="url(#p3b1c39c594)" style="fill: #1f77b4; stroke: #000000; stroke-linejoin: miter"/>
   </g>
   <g id="patch_293">
    <path d="M 251.604964 133.873613 
L 245.958414 139.520163 
" clip-path="url(#p3b1c39c594)" style="fill: #1f77b4; stroke: #000000; stroke-linejoin: miter"/>
   </g>
   <g id="patch_294">
    <path d="M 181.396611 154.904488 
L 170.90271 153.104019 
" clip-path="url(#p3b1c39c594)" style="fill: #1f77b4; stroke: #000000; stroke-linejoin: miter"/>
   </g>
   <g id="patch_295">
    <path d="M 231.883293 173.155507 
L 236.138832 178.680079 
" clip-path="url(#p3b1c39c594)" style="fill: #1f77b4; stroke: #000000; stroke-linejoin: miter"/>
   </g>
   <g id="patch_296">
    <path d="M 240.311864 145.166713 
L 234.665314 150.813263 
" clip-path="url(#p3b1c39c594)" style="fill: #1f77b4; stroke: #000000; stroke-linejoin: miter"/>
   </g>
   <g id="patch_297">
    <path d="M 202.384413 158.505425 
L 191.890512 156.704957 
" clip-path="url(#p3b1c39c594)" style="fill: #1f77b4; stroke: #000000; stroke-linejoin: miter"/>
   </g>
   <g id="patch_298">
    <path d="M 223.372215 162.106363 
L 227.627754 167.630935 
" clip-path="url(#p3b1c39c594)" style="fill: #1f77b4; stroke: #000000; stroke-linejoin: miter"/>
   </g>
   <g id="patch_299">
    <path d="M 229.018764 156.459813 
L 223.372215 162.106363 
" clip-path="url(#p3b1c39c594)" style="fill: #1f77b4; stroke: #000000; stroke-linejoin: miter"/>
   </g>
   <g id="patch_300">
    <path d="M 223.372215 162.106363 
L 212.878314 160.305894 
" clip-path="url(#p3b1c39c594)" style="fill: #1f77b4; stroke: #000000; stroke-linejoin: miter"/>
   </g>
   <g id="matplotlib.axis_1"/>
   <g id="matplotlib.axis_2"/>
   <g id="patch_301">
    <path d="M 14.3 273.23474 
L 14.3 14.451503 
" style="fill: none; stroke: #000000; stroke-width: 0.8; stroke-linejoin: miter; stroke-linecap: square"/>
   </g>
   <g id="patch_302">
    <path d="M 421.2 273.23474 
L 421.2 14.451503 
" style="fill: none; stroke: #000000; stroke-width: 0.8; stroke-linejoin: miter; stroke-linecap: square"/>
   </g>
   <g id="patch_303">
    <path d="M 14.3 273.23474 
L 421.2 273.23474 
" style="fill: none; stroke: #000000; stroke-width: 0.8; stroke-linejoin: miter; stroke-linecap: square"/>
   </g>
   <g id="patch_304">
    <path d="M 14.3 14.451503 
L 421.2 14.451503 
" style="fill: none; stroke: #000000; stroke-width: 0.8; stroke-linejoin: miter; stroke-linecap: square"/>
   </g>
  </g>
 </g>
 <defs>
  <clipPath id="p3b1c39c594">
   <rect x="14.3" y="14.451503" width="406.9" height="258.783238"/>
  </clipPath>
 </defs>
</svg>
