<?xml version="1.0" encoding="utf-8" standalone="no"?>
<!DOCTYPE svg PUBLIC "-//W3C//DTD SVG 1.1//EN"
  "http://www.w3.org/Graphics/SVG/1.1/DTD/svg11.dtd">
<svg xmlns:xlink="http://www.w3.org/1999/xlink" width="432pt" height="288pt" viewBox="0 0 432 288" xmlns="http://www.w3.org/2000/svg" version="1.1">
 <metadata>
  <rdf:RDF xmlns:dc="http://purl.org/dc/elements/1.1/" xmlns:cc="http://creativecommons.org/ns#" xmlns:rdf="http://www.w3.org/1999/02/22-rdf-syntax-ns#">
   <cc:Work>
    <dc:type rdf:resource="http://purl.org/dc/dcmitype/StillImage"/>
    <dc:date>2022-04-24T19:51:58.421527</dc:date>
    <dc:format>image/svg+xml</dc:format>
    <dc:creator>
     <cc:Agent>
      <dc:title>Matplotlib v3.5.1, https://matplotlib.org/</dc:title>
     </cc:Agent>
    </dc:creator>
   </cc:Work>
  </rdf:RDF>
 </metadata>
 <defs>
  <style type="text/css">*{stroke-linejoin: round; stroke-linecap: butt}</style>
 </defs>
 <g id="figure_1">
  <g id="patch_1">
   <path d="M 0 288 
L 432 288 
L 432 0 
L 0 0 
L 0 288 
z
" style="fill: none"/>
  </g>
  <g id="axes_1">
   <g id="patch_2">
    <path d="M 84.55 273.7 
L 347.45 273.7 
L 347.45 10.8 
L 84.55 10.8 
z
" style="fill: #ffffff"/>
   </g>
   <g id="patch_3">
    <path d="M 271.902307 86.347693 
L 261.699818 89.012622 
" clip-path="url(#p1149933cf8)" style="fill: #1f77b4; stroke: #000000; stroke-linejoin: miter"/>
   </g>
   <g id="patch_4">
    <path d="M 271.902307 86.347693 
L 269.237378 96.550182 
" clip-path="url(#p1149933cf8)" style="fill: #1f77b4; stroke: #000000; stroke-linejoin: miter"/>
   </g>
   <g id="patch_5">
    <path d="M 277.232166 81.017834 
L 271.902307 86.347693 
" clip-path="url(#p1149933cf8)" style="fill: #1f77b4; stroke: #000000; stroke-linejoin: miter"/>
   </g>
   <g id="patch_6">
    <path d="M 251.49733 91.677552 
L 241.294841 94.342482 
" clip-path="url(#p1149933cf8)" style="fill: #1f77b4; stroke: #000000; stroke-linejoin: miter"/>
   </g>
   <g id="patch_7">
    <path d="M 266.572448 106.75267 
L 263.907518 116.955159 
" clip-path="url(#p1149933cf8)" style="fill: #1f77b4; stroke: #000000; stroke-linejoin: miter"/>
   </g>
   <g id="patch_8">
    <path d="M 231.092352 97.007411 
L 220.889864 99.672341 
" clip-path="url(#p1149933cf8)" style="fill: #1f77b4; stroke: #000000; stroke-linejoin: miter"/>
   </g>
   <g id="patch_9">
    <path d="M 261.242589 127.157648 
L 258.577659 137.360136 
" clip-path="url(#p1149933cf8)" style="fill: #1f77b4; stroke: #000000; stroke-linejoin: miter"/>
   </g>
   <g id="patch_10">
    <path d="M 210.687375 102.33727 
L 200.484886 105.0022 
" clip-path="url(#p1149933cf8)" style="fill: #1f77b4; stroke: #000000; stroke-linejoin: miter"/>
   </g>
   <g id="patch_11">
    <path d="M 255.91273 147.562625 
L 253.2478 157.765114 
" clip-path="url(#p1149933cf8)" style="fill: #1f77b4; stroke: #000000; stroke-linejoin: miter"/>
   </g>
   <g id="patch_12">
    <path d="M 190.282398 107.66713 
L 180.079909 110.332059 
" clip-path="url(#p1149933cf8)" style="fill: #1f77b4; stroke: #000000; stroke-linejoin: miter"/>
   </g>
   <g id="patch_13">
    <path d="M 250.58287 167.967602 
L 247.917941 178.170091 
" clip-path="url(#p1149933cf8)" style="fill: #1f77b4; stroke: #000000; stroke-linejoin: miter"/>
   </g>
   <g id="patch_14">
    <path d="M 216.143495 155.922851 
C 219.807632 155.922851 223.32219 154.467074 225.913126 151.876137 
C 228.504063 149.285201 229.95984 145.770643 229.95984 142.106505 
C 229.95984 138.442368 228.504063 134.92781 225.913126 132.336874 
C 223.32219 129.745937 219.807632 128.29016 216.143495 128.29016 
C 212.479357 128.29016 208.964799 129.745937 206.373863 132.336874 
C 203.782926 134.92781 202.327149 138.442368 202.327149 142.106505 
C 202.327149 145.770643 203.782926 149.285201 206.373863 151.876137 
C 208.964799 154.467074 212.479357 155.922851 216.143495 155.922851 
z
" clip-path="url(#p1149933cf8)" style="fill: #fa8072; stroke: #000000; stroke-linejoin: miter"/>
   </g>
   <g id="patch_15">
    <path d="M 169.87742 112.996989 
L 159.674932 115.661918 
" clip-path="url(#p1149933cf8)" style="fill: #1f77b4; stroke: #000000; stroke-linejoin: miter"/>
   </g>
   <g id="patch_16">
    <path d="M 245.253011 188.37258 
L 242.588082 198.575068 
" clip-path="url(#p1149933cf8)" style="fill: #1f77b4; stroke: #000000; stroke-linejoin: miter"/>
   </g>
   <g id="patch_17">
    <path d="M 287.891885 70.358115 
L 282.562025 75.687975 
" clip-path="url(#p1149933cf8)" style="fill: #1f77b4; stroke: #000000; stroke-linejoin: miter"/>
   </g>
   <g id="patch_18">
    <path d="M 149.472443 118.326848 
L 139.269954 120.991777 
" clip-path="url(#p1149933cf8)" style="fill: #1f77b4; stroke: #000000; stroke-linejoin: miter"/>
   </g>
   <g id="patch_19">
    <path d="M 239.923152 208.777557 
L 237.258223 218.980046 
" clip-path="url(#p1149933cf8)" style="fill: #1f77b4; stroke: #000000; stroke-linejoin: miter"/>
   </g>
   <g id="patch_20">
    <path d="M 171.93271 167.470879 
C 175.596848 167.470879 179.111406 166.015102 181.702342 163.424165 
C 184.293279 160.833229 185.749056 157.318671 185.749056 153.654534 
C 185.749056 149.990396 184.293279 146.475838 181.702342 143.884902 
C 179.111406 141.293965 175.596848 139.838188 171.93271 139.838188 
C 168.268573 139.838188 164.754015 141.293965 162.163078 143.884902 
C 159.572142 146.475838 158.116364 149.990396 158.116364 153.654534 
C 158.116364 157.318671 159.572142 160.833229 162.163078 163.424165 
C 164.754015 166.015102 168.268573 167.470879 171.93271 167.470879 
z
" clip-path="url(#p1149933cf8)" style="fill: #fa8072; stroke: #000000; stroke-linejoin: miter"/>
   </g>
   <g id="patch_21">
    <path d="M 204.595466 200.133636 
C 208.259604 200.133636 211.774162 198.677858 214.365098 196.086922 
C 216.956035 193.495985 218.411812 189.981427 218.411812 186.31729 
C 218.411812 182.653152 216.956035 179.138594 214.365098 176.547658 
C 211.774162 173.956721 208.259604 172.500944 204.595466 172.500944 
C 200.931329 172.500944 197.416771 173.956721 194.825835 176.547658 
C 192.234898 179.138594 190.779121 182.653152 190.779121 186.31729 
C 190.779121 189.981427 192.234898 193.495985 194.825835 196.086922 
C 197.416771 198.677858 200.931329 200.133636 204.595466 200.133636 
z
" clip-path="url(#p1149933cf8)" style="fill: #fa8072; stroke: #000000; stroke-linejoin: miter"/>
   </g>
   <g id="patch_22">
    <path d="M 139.269954 120.991777 
L 136.605025 131.194266 
" clip-path="url(#p1149933cf8)" style="fill: #1f77b4; stroke: #000000; stroke-linejoin: miter"/>
   </g>
   <g id="patch_23">
    <path d="M 237.258223 218.980046 
L 227.055734 221.644975 
" clip-path="url(#p1149933cf8)" style="fill: #1f77b4; stroke: #000000; stroke-linejoin: miter"/>
   </g>
   <g id="patch_24">
    <path d="M 144.599813 115.661918 
L 139.269954 120.991777 
" clip-path="url(#p1149933cf8)" style="fill: #1f77b4; stroke: #000000; stroke-linejoin: miter"/>
   </g>
   <g id="patch_25">
    <path d="M 242.588082 213.650187 
L 237.258223 218.980046 
" clip-path="url(#p1149933cf8)" style="fill: #1f77b4; stroke: #000000; stroke-linejoin: miter"/>
   </g>
   <g id="patch_26">
    <path d="M 133.940095 141.396755 
L 131.275165 151.599243 
" clip-path="url(#p1149933cf8)" style="fill: #1f77b4; stroke: #000000; stroke-linejoin: miter"/>
   </g>
   <g id="patch_27">
    <path d="M 216.853245 224.309905 
L 206.650757 226.974835 
" clip-path="url(#p1149933cf8)" style="fill: #1f77b4; stroke: #000000; stroke-linejoin: miter"/>
   </g>
   <g id="patch_28">
    <path d="M 127.721926 179.018908 
C 131.386064 179.018908 134.900621 177.56313 137.491558 174.972194 
C 140.082494 172.381257 141.538272 168.866699 141.538272 165.202562 
C 141.538272 161.538424 140.082494 158.023867 137.491558 155.43293 
C 134.900621 152.841993 131.386064 151.386216 127.721926 151.386216 
C 124.057788 151.386216 120.543231 152.841993 117.952294 155.43293 
C 115.361358 158.023867 113.90558 161.538424 113.90558 165.202562 
C 113.90558 168.866699 115.361358 172.381257 117.952294 174.972194 
C 120.543231 177.56313 124.057788 179.018908 127.721926 179.018908 
z
" clip-path="url(#p1149933cf8)" style="fill: #fa8072; stroke: #000000; stroke-linejoin: miter"/>
   </g>
   <g id="patch_29">
    <path d="M 160.384682 211.681664 
C 164.04882 211.681664 167.563377 210.225886 170.154314 207.63495 
C 172.745251 205.044013 174.201028 201.529456 174.201028 197.865318 
C 174.201028 194.20118 172.745251 190.686623 170.154314 188.095686 
C 167.563377 185.504749 164.04882 184.048972 160.384682 184.048972 
C 156.720544 184.048972 153.205987 185.504749 150.61505 188.095686 
C 148.024114 190.686623 146.568336 194.20118 146.568336 197.865318 
C 146.568336 201.529456 148.024114 205.044013 150.61505 207.63495 
C 153.205987 210.225886 156.720544 211.681664 160.384682 211.681664 
z
" clip-path="url(#p1149933cf8)" style="fill: #fa8072; stroke: #000000; stroke-linejoin: miter"/>
   </g>
   <g id="patch_30">
    <path d="M 193.047438 244.34442 
C 196.711576 244.34442 200.226133 242.888642 202.81707 240.297706 
C 205.408007 237.706769 206.863784 234.192212 206.863784 230.528074 
C 206.863784 226.863936 205.408007 223.349379 202.81707 220.758442 
C 200.226133 218.167506 196.711576 216.711728 193.047438 216.711728 
C 189.383301 216.711728 185.868743 218.167506 183.277806 220.758442 
C 180.68687 223.349379 179.231092 226.863936 179.231092 230.528074 
C 179.231092 234.192212 180.68687 237.706769 183.277806 240.297706 
C 185.868743 242.888642 189.383301 244.34442 193.047438 244.34442 
z
" clip-path="url(#p1149933cf8)" style="fill: #fa8072; stroke: #000000; stroke-linejoin: miter"/>
   </g>
   <g id="patch_31">
    <path d="M 123.280377 182.20671 
L 120.615447 192.409198 
" clip-path="url(#p1149933cf8)" style="fill: #1f77b4; stroke: #000000; stroke-linejoin: miter"/>
   </g>
   <g id="patch_32">
    <path d="M 176.04329 234.969623 
L 165.840802 237.634553 
" clip-path="url(#p1149933cf8)" style="fill: #1f77b4; stroke: #000000; stroke-linejoin: miter"/>
   </g>
   <g id="patch_33">
    <path d="M 116.173898 223.229692 
C 119.838036 223.229692 123.352593 221.773915 125.94353 219.182978 
C 128.534466 216.592041 129.990244 213.077484 129.990244 209.413346 
C 129.990244 205.749208 128.534466 202.234651 125.94353 199.643714 
C 123.352593 197.052778 119.838036 195.597 116.173898 195.597 
C 112.50976 195.597 108.995203 197.052778 106.404266 199.643714 
C 103.813329 202.234651 102.357552 205.749208 102.357552 209.413346 
C 102.357552 213.077484 103.813329 216.592041 106.404266 219.182978 
C 108.995203 221.773915 112.50976 223.229692 116.173898 223.229692 
z
" clip-path="url(#p1149933cf8)" style="fill: #fa8072; stroke: #000000; stroke-linejoin: miter"/>
   </g>
   <g id="patch_34">
    <path d="M 148.836654 255.892448 
C 152.500792 255.892448 156.015349 254.436671 158.606286 251.845734 
C 161.197222 249.254797 162.653 245.74024 162.653 242.076102 
C 162.653 238.411964 161.197222 234.897407 158.606286 232.30647 
C 156.015349 229.715534 152.500792 228.259756 148.836654 228.259756 
C 145.172516 228.259756 141.657959 229.715534 139.067022 232.30647 
C 136.476085 234.897407 135.020308 238.411964 135.020308 242.076102 
C 135.020308 245.74024 136.476085 249.254797 139.067022 251.845734 
C 141.657959 254.436671 145.172516 255.892448 148.836654 255.892448 
z
" clip-path="url(#p1149933cf8)" style="fill: #fa8072; stroke: #000000; stroke-linejoin: miter"/>
   </g>
   <g id="patch_35">
    <path d="M 298.551603 59.698397 
L 293.221744 65.028256 
" clip-path="url(#p1149933cf8)" style="fill: #1f77b4; stroke: #000000; stroke-linejoin: miter"/>
   </g>
   <g id="patch_36">
    <path d="M 112.620658 223.016664 
L 109.955729 233.219153 
" clip-path="url(#p1149933cf8)" style="fill: #1f77b4; stroke: #000000; stroke-linejoin: miter"/>
   </g>
   <g id="patch_37">
    <path d="M 135.233336 245.629342 
L 125.030847 248.294271 
" clip-path="url(#p1149933cf8)" style="fill: #1f77b4; stroke: #000000; stroke-linejoin: miter"/>
   </g>
   <g id="patch_38">
    <path d="M 155.259532 105.0022 
L 149.929673 110.332059 
" clip-path="url(#p1149933cf8)" style="fill: #1f77b4; stroke: #000000; stroke-linejoin: miter"/>
   </g>
   <g id="patch_39">
    <path d="M 253.2478 202.990468 
L 247.917941 208.320327 
" clip-path="url(#p1149933cf8)" style="fill: #1f77b4; stroke: #000000; stroke-linejoin: miter"/>
   </g>
   <g id="patch_40">
    <path d="M 104.62587 267.440476 
C 108.290007 267.440476 111.804565 265.984699 114.395501 263.393762 
C 116.986438 260.802826 118.442215 257.288268 118.442215 253.62413 
C 118.442215 249.959993 116.986438 246.445435 114.395501 243.854499 
C 111.804565 241.263562 108.290007 239.807785 104.62587 239.807785 
C 100.961732 239.807785 97.447174 241.263562 94.856238 243.854499 
C 92.265301 246.445435 90.809524 249.959993 90.809524 253.62413 
C 90.809524 257.288268 92.265301 260.802826 94.856238 263.393762 
C 97.447174 265.984699 100.961732 267.440476 104.62587 267.440476 
z
" clip-path="url(#p1149933cf8)" style="fill: #fa8072; stroke: #000000; stroke-linejoin: miter"/>
   </g>
   <g id="patch_41">
    <path d="M 239.239551 132.826795 
C 242.903689 132.826795 246.418246 131.371017 249.009183 128.780081 
C 251.600119 126.189144 253.055897 122.674587 253.055897 119.010449 
C 253.055897 115.346311 251.600119 111.831754 249.009183 109.240817 
C 246.418246 106.649881 242.903689 105.194103 239.239551 105.194103 
C 235.575413 105.194103 232.060856 106.649881 229.469919 109.240817 
C 226.878983 111.831754 225.423205 115.346311 225.423205 119.010449 
C 225.423205 122.674587 226.878983 126.189144 229.469919 128.780081 
C 232.060856 131.371017 235.575413 132.826795 239.239551 132.826795 
z
" clip-path="url(#p1149933cf8)" style="fill: #fa8072; stroke: #000000; stroke-linejoin: miter"/>
   </g>
   <g id="patch_42">
    <path d="M 309.211321 49.038679 
L 303.881462 54.368538 
" clip-path="url(#p1149933cf8)" style="fill: #1f77b4; stroke: #000000; stroke-linejoin: miter"/>
   </g>
   <g id="patch_43">
    <path d="M 195.028767 144.374823 
C 198.692904 144.374823 202.207462 142.919046 204.798399 140.328109 
C 207.389335 137.737172 208.845113 134.222615 208.845113 130.558477 
C 208.845113 126.894339 207.389335 123.379782 204.798399 120.788845 
C 202.207462 118.197909 198.692904 116.742131 195.028767 116.742131 
C 191.364629 116.742131 187.850071 118.197909 185.259135 120.788845 
C 182.668198 123.379782 181.212421 126.894339 181.212421 130.558477 
C 181.212421 134.222615 182.668198 137.737172 185.259135 140.328109 
C 187.850071 142.919046 191.364629 144.374823 195.028767 144.374823 
z
" clip-path="url(#p1149933cf8)" style="fill: #fa8072; stroke: #000000; stroke-linejoin: miter"/>
   </g>
   <g id="patch_44">
    <path d="M 227.691523 177.037579 
C 231.355661 177.037579 234.870218 175.581802 237.461155 172.990865 
C 240.052091 170.399929 241.507869 166.885371 241.507869 163.221233 
C 241.507869 159.557096 240.052091 156.042538 237.461155 153.451601 
C 234.870218 150.860665 231.355661 149.404887 227.691523 149.404887 
C 224.027385 149.404887 220.512828 150.860665 217.921891 153.451601 
C 215.330954 156.042538 213.875177 159.557096 213.875177 163.221233 
C 213.875177 166.885371 215.330954 170.399929 217.921891 172.990865 
C 220.512828 175.581802 224.027385 177.037579 227.691523 177.037579 
z
" clip-path="url(#p1149933cf8)" style="fill: #fa8072; stroke: #000000; stroke-linejoin: miter"/>
   </g>
   <g id="patch_45">
    <path d="M 165.91925 94.342482 
L 160.589391 99.672341 
" clip-path="url(#p1149933cf8)" style="fill: #1f77b4; stroke: #000000; stroke-linejoin: miter"/>
   </g>
   <g id="patch_46">
    <path d="M 263.907518 192.33075 
L 258.577659 197.660609 
" clip-path="url(#p1149933cf8)" style="fill: #1f77b4; stroke: #000000; stroke-linejoin: miter"/>
   </g>
   <g id="patch_47">
    <path d="M 120.615447 237.634553 
L 115.285588 242.964412 
" clip-path="url(#p1149933cf8)" style="fill: #1f77b4; stroke: #000000; stroke-linejoin: miter"/>
   </g>
   <g id="patch_48">
    <path d="M 150.817982 155.922851 
C 154.48212 155.922851 157.996678 154.467074 160.587614 151.876137 
C 163.178551 149.285201 164.634328 145.770643 164.634328 142.106505 
C 164.634328 138.442368 163.178551 134.92781 160.587614 132.336874 
C 157.996678 129.745937 154.48212 128.29016 150.817982 128.29016 
C 147.153845 128.29016 143.639287 129.745937 141.048351 132.336874 
C 138.457414 134.92781 137.001637 138.442368 137.001637 142.106505 
C 137.001637 145.770643 138.457414 149.285201 141.048351 151.876137 
C 143.639287 154.467074 147.153845 155.922851 150.817982 155.922851 
z
" clip-path="url(#p1149933cf8)" style="fill: #fa8072; stroke: #000000; stroke-linejoin: miter"/>
   </g>
   <g id="patch_49">
    <path d="M 183.480738 188.585607 
C 187.144876 188.585607 190.659434 187.12983 193.25037 184.538893 
C 195.841307 181.947957 197.297084 178.433399 197.297084 174.769262 
C 197.297084 171.105124 195.841307 167.590566 193.25037 164.99963 
C 190.659434 162.408693 187.144876 160.952916 183.480738 160.952916 
C 179.816601 160.952916 176.302043 162.408693 173.711107 164.99963 
C 171.12017 167.590566 169.664393 171.105124 169.664393 174.769262 
C 169.664393 178.433399 171.12017 181.947957 173.711107 184.538893 
C 176.302043 187.12983 179.816601 188.585607 183.480738 188.585607 
z
" clip-path="url(#p1149933cf8)" style="fill: #fa8072; stroke: #000000; stroke-linejoin: miter"/>
   </g>
   <g id="patch_50">
    <path d="M 216.143495 221.248363 
C 219.807632 221.248363 223.32219 219.792586 225.913126 217.201649 
C 228.504063 214.610713 229.95984 211.096155 229.95984 207.432018 
C 229.95984 203.76788 228.504063 200.253322 225.913126 197.662386 
C 223.32219 195.071449 219.807632 193.615672 216.143495 193.615672 
C 212.479357 193.615672 208.964799 195.071449 206.373863 197.662386 
C 203.782926 200.253322 202.327149 203.76788 202.327149 207.432018 
C 202.327149 211.096155 203.782926 214.610713 206.373863 217.201649 
C 208.964799 219.792586 212.479357 221.248363 216.143495 221.248363 
z
" clip-path="url(#p1149933cf8)" style="fill: #fa8072; stroke: #000000; stroke-linejoin: miter"/>
   </g>
   <g id="patch_51">
    <path d="M 319.87104 38.37896 
L 314.54118 43.70882 
" clip-path="url(#p1149933cf8)" style="fill: #1f77b4; stroke: #000000; stroke-linejoin: miter"/>
   </g>
   <g id="patch_52">
    <path d="M 139.269954 200.133636 
C 142.934092 200.133636 146.448649 198.677858 149.039586 196.086922 
C 151.630523 193.495985 153.0863 189.981427 153.0863 186.31729 
C 153.0863 182.653152 151.630523 179.138594 149.039586 176.547658 
C 146.448649 173.956721 142.934092 172.500944 139.269954 172.500944 
C 135.605816 172.500944 132.091259 173.956721 129.500322 176.547658 
C 126.909386 179.138594 125.453608 182.653152 125.453608 186.31729 
C 125.453608 189.981427 126.909386 193.495985 129.500322 196.086922 
C 132.091259 198.677858 135.605816 200.133636 139.269954 200.133636 
z
" clip-path="url(#p1149933cf8)" style="fill: #fa8072; stroke: #000000; stroke-linejoin: miter"/>
   </g>
   <g id="patch_53">
    <path d="M 171.93271 232.796392 
C 175.596848 232.796392 179.111406 231.340614 181.702342 228.749678 
C 184.293279 226.158741 185.749056 222.644184 185.749056 218.980046 
C 185.749056 215.315908 184.293279 211.801351 181.702342 209.210414 
C 179.111406 206.619477 175.596848 205.1637 171.93271 205.1637 
C 168.268573 205.1637 164.754015 206.619477 162.163078 209.210414 
C 159.572142 211.801351 158.116364 215.315908 158.116364 218.980046 
C 158.116364 222.644184 159.572142 226.158741 162.163078 228.749678 
C 164.754015 231.340614 168.268573 232.796392 171.93271 232.796392 
z
" clip-path="url(#p1149933cf8)" style="fill: #fa8072; stroke: #000000; stroke-linejoin: miter"/>
   </g>
   <g id="patch_54">
    <path d="M 176.578968 83.682763 
L 171.249109 89.012622 
" clip-path="url(#p1149933cf8)" style="fill: #1f77b4; stroke: #000000; stroke-linejoin: miter"/>
   </g>
   <g id="patch_55">
    <path d="M 274.567237 181.671032 
L 269.237378 187.000891 
" clip-path="url(#p1149933cf8)" style="fill: #1f77b4; stroke: #000000; stroke-linejoin: miter"/>
   </g>
   <g id="patch_56">
    <path d="M 127.721926 244.34442 
C 131.386064 244.34442 134.900621 242.888642 137.491558 240.297706 
C 140.082494 237.706769 141.538272 234.192212 141.538272 230.528074 
C 141.538272 226.863936 140.082494 223.349379 137.491558 220.758442 
C 134.900621 218.167506 131.386064 216.711728 127.721926 216.711728 
C 124.057788 216.711728 120.543231 218.167506 117.952294 220.758442 
C 115.361358 223.349379 113.90558 226.863936 113.90558 230.528074 
C 113.90558 234.192212 115.361358 237.706769 117.952294 240.297706 
C 120.543231 242.888642 124.057788 244.34442 127.721926 244.34442 
z
" clip-path="url(#p1149933cf8)" style="fill: #fa8072; stroke: #000000; stroke-linejoin: miter"/>
   </g>
   <g id="patch_57">
    <path d="M 262.335607 109.730738 
C 265.999745 109.730738 269.514303 108.274961 272.105239 105.684024 
C 274.696176 103.093088 276.151953 99.57853 276.151953 95.914393 
C 276.151953 92.250255 274.696176 88.735697 272.105239 86.144761 
C 269.514303 83.553824 265.999745 82.098047 262.335607 82.098047 
C 258.67147 82.098047 255.156912 83.553824 252.565976 86.144761 
C 249.975039 88.735697 248.519262 92.250255 248.519262 95.914393 
C 248.519262 99.57853 249.975039 103.093088 252.565976 105.684024 
C 255.156912 108.274961 258.67147 109.730738 262.335607 109.730738 
z
" clip-path="url(#p1149933cf8)" style="fill: #fa8072; stroke: #000000; stroke-linejoin: miter"/>
   </g>
   <g id="patch_58">
    <path d="M 330.530758 27.719242 
L 325.200899 33.049101 
" clip-path="url(#p1149933cf8)" style="fill: #1f77b4; stroke: #000000; stroke-linejoin: miter"/>
   </g>
   <g id="patch_59">
    <path d="M 187.238687 73.023045 
L 181.908827 78.352904 
" clip-path="url(#p1149933cf8)" style="fill: #1f77b4; stroke: #000000; stroke-linejoin: miter"/>
   </g>
   <g id="patch_60">
    <path d="M 285.226955 171.011313 
L 279.897096 176.341173 
" clip-path="url(#p1149933cf8)" style="fill: #1f77b4; stroke: #000000; stroke-linejoin: miter"/>
   </g>
   <g id="patch_61">
    <path d="M 218.124823 121.278767 
C 221.788961 121.278767 225.303518 119.822989 227.894455 117.232053 
C 230.485392 114.641116 231.941169 111.126559 231.941169 107.462421 
C 231.941169 103.798283 230.485392 100.283726 227.894455 97.692789 
C 225.303518 95.101852 221.788961 93.646075 218.124823 93.646075 
C 214.460685 93.646075 210.946128 95.101852 208.355191 97.692789 
C 205.764255 100.283726 204.308477 103.798283 204.308477 107.462421 
C 204.308477 111.126559 205.764255 114.641116 208.355191 117.232053 
C 210.946128 119.822989 214.460685 121.278767 218.124823 121.278767 
z
" clip-path="url(#p1149933cf8)" style="fill: #fa8072; stroke: #000000; stroke-linejoin: miter"/>
   </g>
   <g id="patch_62">
    <path d="M 250.787579 153.941523 
C 254.451717 153.941523 257.966274 152.485745 260.557211 149.894809 
C 263.148148 147.303872 264.603925 143.789315 264.603925 140.125177 
C 264.603925 136.461039 263.148148 132.946482 260.557211 130.355545 
C 257.966274 127.764608 254.451717 126.308831 250.787579 126.308831 
C 247.123441 126.308831 243.608884 127.764608 241.017947 130.355545 
C 238.427011 132.946482 236.971233 136.461039 236.971233 140.125177 
C 236.971233 143.789315 238.427011 147.303872 241.017947 149.894809 
C 243.608884 152.485745 247.123441 153.941523 250.787579 153.941523 
z
" clip-path="url(#p1149933cf8)" style="fill: #fa8072; stroke: #000000; stroke-linejoin: miter"/>
   </g>
   <g id="patch_63">
    <path d="M 141.934884 216.315116 
L 136.605025 221.644975 
" clip-path="url(#p1149933cf8)" style="fill: #1f77b4; stroke: #000000; stroke-linejoin: miter"/>
   </g>
   <g id="patch_64">
    <path d="M 173.914039 132.826795 
C 177.578176 132.826795 181.092734 131.371017 183.683671 128.780081 
C 186.274607 126.189144 187.730385 122.674587 187.730385 119.010449 
C 187.730385 115.346311 186.274607 111.831754 183.683671 109.240817 
C 181.092734 106.649881 177.578176 105.194103 173.914039 105.194103 
C 170.249901 105.194103 166.735344 106.649881 164.144407 109.240817 
C 161.55347 111.831754 160.097693 115.346311 160.097693 119.010449 
C 160.097693 122.674587 161.55347 126.189144 164.144407 128.780081 
C 166.735344 131.371017 170.249901 132.826795 173.914039 132.826795 
z
" clip-path="url(#p1149933cf8)" style="fill: #fa8072; stroke: #000000; stroke-linejoin: miter"/>
   </g>
   <g id="patch_65">
    <path d="M 206.576795 165.489551 
C 210.240933 165.489551 213.75549 164.033774 216.346427 161.442837 
C 218.937363 158.8519 220.393141 155.337343 220.393141 151.673205 
C 220.393141 148.009067 218.937363 144.49451 216.346427 141.903573 
C 213.75549 139.312637 210.240933 137.856859 206.576795 137.856859 
C 202.912657 137.856859 199.3981 139.312637 196.807163 141.903573 
C 194.216226 144.49451 192.760449 148.009067 192.760449 151.673205 
C 192.760449 155.337343 194.216226 158.8519 196.807163 161.442837 
C 199.3981 164.033774 202.912657 165.489551 206.576795 165.489551 
z
" clip-path="url(#p1149933cf8)" style="fill: #fa8072; stroke: #000000; stroke-linejoin: miter"/>
   </g>
   <g id="patch_66">
    <path d="M 239.239551 198.152307 
C 242.903689 198.152307 246.418246 196.69653 249.009183 194.105593 
C 251.600119 191.514656 253.055897 188.000099 253.055897 184.335961 
C 253.055897 180.671824 251.600119 177.157266 249.009183 174.566329 
C 246.418246 171.975393 242.903689 170.519615 239.239551 170.519615 
C 235.575413 170.519615 232.060856 171.975393 229.469919 174.566329 
C 226.878983 177.157266 225.423205 180.671824 225.423205 184.335961 
C 225.423205 188.000099 226.878983 191.514656 229.469919 194.105593 
C 232.060856 196.69653 235.575413 198.152307 239.239551 198.152307 
z
" clip-path="url(#p1149933cf8)" style="fill: #fa8072; stroke: #000000; stroke-linejoin: miter"/>
   </g>
   <g id="patch_67">
    <path d="M 341.190476 17.059524 
L 335.860617 22.389383 
" clip-path="url(#p1149933cf8)" style="fill: #1f77b4; stroke: #000000; stroke-linejoin: miter"/>
   </g>
   <g id="patch_68">
    <path d="M 341.190476 17.059524 
L 330.987988 19.724453 
" clip-path="url(#p1149933cf8)" style="fill: #1f77b4; stroke: #000000; stroke-linejoin: miter"/>
   </g>
   <g id="patch_69">
    <path d="M 341.190476 17.059524 
L 338.525547 27.262012 
" clip-path="url(#p1149933cf8)" style="fill: #1f77b4; stroke: #000000; stroke-linejoin: miter"/>
   </g>
   <g id="patch_70">
    <path d="M 162.366011 177.037579 
C 166.030148 177.037579 169.544706 175.581802 172.135642 172.990865 
C 174.726579 170.399929 176.182356 166.885371 176.182356 163.221233 
C 176.182356 159.557096 174.726579 156.042538 172.135642 153.451601 
C 169.544706 150.860665 166.030148 149.404887 162.366011 149.404887 
C 158.701873 149.404887 155.187315 150.860665 152.596379 153.451601 
C 150.005442 156.042538 148.549665 159.557096 148.549665 163.221233 
C 148.549665 166.885371 150.005442 170.399929 152.596379 172.990865 
C 155.187315 175.581802 158.701873 177.037579 162.366011 177.037579 
z
" clip-path="url(#p1149933cf8)" style="fill: #fa8072; stroke: #000000; stroke-linejoin: miter"/>
   </g>
   <g id="patch_71">
    <path d="M 195.028767 209.700335 
C 198.692904 209.700335 202.207462 208.244558 204.798399 205.653621 
C 207.389335 203.062685 208.845113 199.548127 208.845113 195.883989 
C 208.845113 192.219852 207.389335 188.705294 204.798399 186.114358 
C 202.207462 183.523421 198.692904 182.067644 195.028767 182.067644 
C 191.364629 182.067644 187.850071 183.523421 185.259135 186.114358 
C 182.668198 188.705294 181.212421 192.219852 181.212421 195.883989 
C 181.212421 199.548127 182.668198 203.062685 185.259135 205.653621 
C 187.850071 208.244558 191.364629 209.700335 195.028767 209.700335 
z
" clip-path="url(#p1149933cf8)" style="fill: #fa8072; stroke: #000000; stroke-linejoin: miter"/>
   </g>
   <g id="patch_72">
    <path d="M 197.898405 62.363327 
L 192.568546 67.693186 
" clip-path="url(#p1149933cf8)" style="fill: #1f77b4; stroke: #000000; stroke-linejoin: miter"/>
   </g>
   <g id="patch_73">
    <path d="M 295.886673 160.351595 
L 290.556814 165.681454 
" clip-path="url(#p1149933cf8)" style="fill: #1f77b4; stroke: #000000; stroke-linejoin: miter"/>
   </g>
   <g id="patch_74">
    <path d="M 335.860617 37.464501 
L 333.195687 47.66699 
" clip-path="url(#p1149933cf8)" style="fill: #1f77b4; stroke: #000000; stroke-linejoin: miter"/>
   </g>
   <g id="patch_75">
    <path d="M 320.785499 22.389383 
L 310.58301 25.054313 
" clip-path="url(#p1149933cf8)" style="fill: #1f77b4; stroke: #000000; stroke-linejoin: miter"/>
   </g>
   <g id="patch_76">
    <path d="M 300.380521 27.719242 
L 290.178033 30.384172 
" clip-path="url(#p1149933cf8)" style="fill: #1f77b4; stroke: #000000; stroke-linejoin: miter"/>
   </g>
   <g id="patch_77">
    <path d="M 330.530758 57.869479 
L 327.865828 68.071967 
" clip-path="url(#p1149933cf8)" style="fill: #1f77b4; stroke: #000000; stroke-linejoin: miter"/>
   </g>
   <g id="patch_78">
    <path d="M 150.817982 221.248363 
C 154.48212 221.248363 157.996678 219.792586 160.587614 217.201649 
C 163.178551 214.610713 164.634328 211.096155 164.634328 207.432018 
C 164.634328 203.76788 163.178551 200.253322 160.587614 197.662386 
C 157.996678 195.071449 154.48212 193.615672 150.817982 193.615672 
C 147.153845 193.615672 143.639287 195.071449 141.048351 197.662386 
C 138.457414 200.253322 137.001637 203.76788 137.001637 207.432018 
C 137.001637 211.096155 138.457414 214.610713 141.048351 217.201649 
C 143.639287 219.792586 147.153845 221.248363 150.817982 221.248363 
z
" clip-path="url(#p1149933cf8)" style="fill: #fa8072; stroke: #000000; stroke-linejoin: miter"/>
   </g>
   <g id="patch_79">
    <path d="M 279.975544 33.049101 
L 269.773055 35.714031 
" clip-path="url(#p1149933cf8)" style="fill: #1f77b4; stroke: #000000; stroke-linejoin: miter"/>
   </g>
   <g id="patch_80">
    <path d="M 325.200899 78.274456 
L 322.535969 88.476945 
" clip-path="url(#p1149933cf8)" style="fill: #1f77b4; stroke: #000000; stroke-linejoin: miter"/>
   </g>
   <g id="patch_81">
    <path d="M 259.570567 38.37896 
L 249.368078 41.04389 
" clip-path="url(#p1149933cf8)" style="fill: #1f77b4; stroke: #000000; stroke-linejoin: miter"/>
   </g>
   <g id="patch_82">
    <path d="M 319.87104 98.679433 
L 317.20611 108.881922 
" clip-path="url(#p1149933cf8)" style="fill: #1f77b4; stroke: #000000; stroke-linejoin: miter"/>
   </g>
   <g id="patch_83">
    <path d="M 239.165589 43.70882 
L 228.963101 46.373749 
" clip-path="url(#p1149933cf8)" style="fill: #1f77b4; stroke: #000000; stroke-linejoin: miter"/>
   </g>
   <g id="patch_84">
    <path d="M 314.54118 119.084411 
L 311.876251 129.286899 
" clip-path="url(#p1149933cf8)" style="fill: #1f77b4; stroke: #000000; stroke-linejoin: miter"/>
   </g>
   <g id="patch_85">
    <path d="M 208.558123 51.703608 
L 203.228264 57.033468 
" clip-path="url(#p1149933cf8)" style="fill: #1f77b4; stroke: #000000; stroke-linejoin: miter"/>
   </g>
   <g id="patch_86">
    <path d="M 306.546392 149.691877 
L 301.216532 155.021736 
" clip-path="url(#p1149933cf8)" style="fill: #1f77b4; stroke: #000000; stroke-linejoin: miter"/>
   </g>
   <g id="patch_87">
    <path d="M 218.760612 49.038679 
L 208.558123 51.703608 
" clip-path="url(#p1149933cf8)" style="fill: #1f77b4; stroke: #000000; stroke-linejoin: miter"/>
   </g>
   <g id="patch_88">
    <path d="M 309.211321 139.489388 
L 306.546392 149.691877 
" clip-path="url(#p1149933cf8)" style="fill: #1f77b4; stroke: #000000; stroke-linejoin: miter"/>
   </g>
   <g id="patch_89">
    <path d="M 306.546392 149.691877 
L 296.343903 152.356806 
" clip-path="url(#p1149933cf8)" style="fill: #1f77b4; stroke: #000000; stroke-linejoin: miter"/>
   </g>
   <g id="patch_90">
    <path d="M 208.558123 51.703608 
L 205.893194 61.906097 
" clip-path="url(#p1149933cf8)" style="fill: #1f77b4; stroke: #000000; stroke-linejoin: miter"/>
   </g>
   <g id="patch_91">
    <path d="M 163.25432 194.99568 
L 157.924461 200.325539 
" clip-path="url(#p1149933cf8)" style="fill: #1f77b4; stroke: #000000; stroke-linejoin: miter"/>
   </g>
   <g id="patch_92">
    <path d="M 203.228264 72.108586 
L 200.563335 82.311074 
" clip-path="url(#p1149933cf8)" style="fill: #1f77b4; stroke: #000000; stroke-linejoin: miter"/>
   </g>
   <g id="patch_93">
    <path d="M 286.141414 155.021736 
L 275.938926 157.686665 
" clip-path="url(#p1149933cf8)" style="fill: #1f77b4; stroke: #000000; stroke-linejoin: miter"/>
   </g>
   <g id="patch_94">
    <path d="M 197.898405 92.513563 
L 195.233475 102.716052 
" clip-path="url(#p1149933cf8)" style="fill: #1f77b4; stroke: #000000; stroke-linejoin: miter"/>
   </g>
   <g id="patch_95">
    <path d="M 265.736437 160.351595 
L 255.533948 163.016525 
" clip-path="url(#p1149933cf8)" style="fill: #1f77b4; stroke: #000000; stroke-linejoin: miter"/>
   </g>
   <g id="patch_96">
    <path d="M 192.568546 112.91854 
L 189.903616 123.121029 
" clip-path="url(#p1149933cf8)" style="fill: #1f77b4; stroke: #000000; stroke-linejoin: miter"/>
   </g>
   <g id="patch_97">
    <path d="M 245.33146 165.681454 
L 235.128971 168.346384 
" clip-path="url(#p1149933cf8)" style="fill: #1f77b4; stroke: #000000; stroke-linejoin: miter"/>
   </g>
   <g id="patch_98">
    <path d="M 224.926482 171.011313 
L 214.723993 173.676243 
" clip-path="url(#p1149933cf8)" style="fill: #1f77b4; stroke: #000000; stroke-linejoin: miter"/>
   </g>
   <g id="patch_99">
    <path d="M 187.238687 133.323518 
L 184.573757 143.526007 
" clip-path="url(#p1149933cf8)" style="fill: #1f77b4; stroke: #000000; stroke-linejoin: miter"/>
   </g>
   <g id="patch_100">
    <path d="M 181.908827 153.728495 
L 179.243898 163.930984 
" clip-path="url(#p1149933cf8)" style="fill: #1f77b4; stroke: #000000; stroke-linejoin: miter"/>
   </g>
   <g id="patch_101">
    <path d="M 204.521505 176.341173 
L 194.319016 179.006102 
" clip-path="url(#p1149933cf8)" style="fill: #1f77b4; stroke: #000000; stroke-linejoin: miter"/>
   </g>
   <g id="patch_102">
    <path d="M 173.914039 184.335961 
L 168.58418 189.66582 
" clip-path="url(#p1149933cf8)" style="fill: #1f77b4; stroke: #000000; stroke-linejoin: miter"/>
   </g>
   <g id="patch_103">
    <path d="M 184.116527 181.671032 
L 173.914039 184.335961 
" clip-path="url(#p1149933cf8)" style="fill: #1f77b4; stroke: #000000; stroke-linejoin: miter"/>
   </g>
   <g id="patch_104">
    <path d="M 176.578968 174.133473 
L 173.914039 184.335961 
" clip-path="url(#p1149933cf8)" style="fill: #1f77b4; stroke: #000000; stroke-linejoin: miter"/>
   </g>
   <g id="matplotlib.axis_1"/>
   <g id="matplotlib.axis_2"/>
   <g id="patch_105">
    <path d="M 84.55 273.7 
L 84.55 10.8 
" style="fill: none; stroke: #000000; stroke-width: 0.8; stroke-linejoin: miter; stroke-linecap: square"/>
   </g>
   <g id="patch_106">
    <path d="M 347.45 273.7 
L 347.45 10.8 
" style="fill: none; stroke: #000000; stroke-width: 0.8; stroke-linejoin: miter; stroke-linecap: square"/>
   </g>
   <g id="patch_107">
    <path d="M 84.55 273.7 
L 347.45 273.7 
" style="fill: none; stroke: #000000; stroke-width: 0.8; stroke-linejoin: miter; stroke-linecap: square"/>
   </g>
   <g id="patch_108">
    <path d="M 84.55 10.8 
L 347.45 10.8 
" style="fill: none; stroke: #000000; stroke-width: 0.8; stroke-linejoin: miter; stroke-linecap: square"/>
   </g>
  </g>
 </g>
 <defs>
  <clipPath id="p1149933cf8">
   <rect x="84.55" y="10.8" width="262.9" height="262.9"/>
  </clipPath>
 </defs>
</svg>
