<?xml version="1.0" encoding="utf-8" standalone="no"?>
<!DOCTYPE svg PUBLIC "-//W3C//DTD SVG 1.1//EN"
  "http://www.w3.org/Graphics/SVG/1.1/DTD/svg11.dtd">
<svg xmlns:xlink="http://www.w3.org/1999/xlink" width="432pt" height="288pt" viewBox="0 0 432 288" xmlns="http://www.w3.org/2000/svg" version="1.1">
 <metadata>
  <rdf:RDF xmlns:dc="http://purl.org/dc/elements/1.1/" xmlns:cc="http://creativecommons.org/ns#" xmlns:rdf="http://www.w3.org/1999/02/22-rdf-syntax-ns#">
   <cc:Work>
    <dc:type rdf:resource="http://purl.org/dc/dcmitype/StillImage"/>
    <dc:date>2022-04-24T21:02:06.558072</dc:date>
    <dc:format>image/svg+xml</dc:format>
    <dc:creator>
     <cc:Agent>
      <dc:title>Matplotlib v3.5.1, https://matplotlib.org/</dc:title>
     </cc:Agent>
    </dc:creator>
   </cc:Work>
  </rdf:RDF>
 </metadata>
 <defs>
  <style type="text/css">*{stroke-linejoin: round; stroke-linecap: butt}</style>
 </defs>
 <g id="figure_1">
  <g id="patch_1">
   <path d="M 0 288 
L 432 288 
L 432 0 
L 0 0 
L 0 288 
z
" style="fill: none"/>
  </g>
  <g id="axes_1">
   <g id="patch_2">
    <path d="M 14.3 272.769481 
L 421.2 272.769481 
L 421.2 13.986243 
L 14.3 13.986243 
z
" style="fill: #ffffff"/>
   </g>
   <g id="patch_3">
    <path d="M 222.621686 126.915089 
L 212.127785 125.114621 
" clip-path="url(#p4079dde9c3)" style="fill: #1f77b4; stroke: #000000; stroke-linejoin: miter"/>
   </g>
   <g id="patch_4">
    <path d="M 212.127785 125.114621 
L 206.481236 130.761171 
" clip-path="url(#p4079dde9c3)" style="fill: #1f77b4; stroke: #000000; stroke-linejoin: miter"/>
   </g>
   <g id="patch_5">
    <path d="M 207.872246 119.590048 
L 212.127785 125.114621 
" clip-path="url(#p4079dde9c3)" style="fill: #1f77b4; stroke: #000000; stroke-linejoin: miter"/>
   </g>
   <g id="patch_6">
    <path d="M 243.609488 130.516027 
L 233.115587 128.715558 
" clip-path="url(#p4079dde9c3)" style="fill: #1f77b4; stroke: #000000; stroke-linejoin: miter"/>
   </g>
   <g id="patch_7">
    <path d="M 200.834686 136.40772 
L 195.188136 142.05427 
" clip-path="url(#p4079dde9c3)" style="fill: #1f77b4; stroke: #000000; stroke-linejoin: miter"/>
   </g>
   <g id="patch_8">
    <path d="M 199.361168 108.540904 
L 203.616707 114.065476 
" clip-path="url(#p4079dde9c3)" style="fill: #1f77b4; stroke: #000000; stroke-linejoin: miter"/>
   </g>
   <g id="patch_9">
    <path d="M 264.59729 134.116965 
L 254.103389 132.316496 
" clip-path="url(#p4079dde9c3)" style="fill: #1f77b4; stroke: #000000; stroke-linejoin: miter"/>
   </g>
   <g id="patch_10">
    <path d="M 189.541586 147.70082 
L 183.895036 153.34737 
" clip-path="url(#p4079dde9c3)" style="fill: #1f77b4; stroke: #000000; stroke-linejoin: miter"/>
   </g>
   <g id="patch_11">
    <path d="M 285.585093 137.717902 
L 275.091192 135.917433 
" clip-path="url(#p4079dde9c3)" style="fill: #1f77b4; stroke: #000000; stroke-linejoin: miter"/>
   </g>
   <g id="patch_12">
    <path d="M 190.85009 97.49176 
L 195.105629 103.016332 
" clip-path="url(#p4079dde9c3)" style="fill: #1f77b4; stroke: #000000; stroke-linejoin: miter"/>
   </g>
   <g id="patch_13">
    <path d="M 176.366303 176.00321 
C 180.378059 176.00321 184.226043 174.409323 187.062783 171.572583 
C 189.899523 168.735844 191.49341 164.887859 191.49341 160.876103 
C 191.49341 156.864348 189.899523 153.016363 187.062783 150.179623 
C 184.226043 147.342884 180.378059 145.748996 176.366303 145.748996 
C 172.354547 145.748996 168.506562 147.342884 165.669823 150.179623 
C 162.833083 153.016363 161.239196 156.864348 161.239196 160.876103 
C 161.239196 164.887859 162.833083 168.735844 165.669823 171.572583 
C 168.506562 174.409323 172.354547 176.00321 176.366303 176.00321 
z
" clip-path="url(#p4079dde9c3)" style="fill: #fa8072; stroke: #000000; stroke-linejoin: miter"/>
   </g>
   <g id="patch_14">
    <path d="M 306.572895 141.31884 
L 296.078994 139.518371 
" clip-path="url(#p4079dde9c3)" style="fill: #1f77b4; stroke: #000000; stroke-linejoin: miter"/>
   </g>
   <g id="patch_15">
    <path d="M 182.339012 86.442615 
L 186.594551 91.967187 
" clip-path="url(#p4079dde9c3)" style="fill: #1f77b4; stroke: #000000; stroke-linejoin: miter"/>
   </g>
   <g id="patch_16">
    <path d="M 327.560697 144.919777 
L 317.066796 143.119308 
" clip-path="url(#p4079dde9c3)" style="fill: #1f77b4; stroke: #000000; stroke-linejoin: miter"/>
   </g>
   <g id="patch_17">
    <path d="M 166.955386 170.28702 
L 161.308836 175.93357 
" clip-path="url(#p4079dde9c3)" style="fill: #1f77b4; stroke: #000000; stroke-linejoin: miter"/>
   </g>
   <g id="patch_18">
    <path d="M 173.827934 75.393471 
L 178.083473 80.918043 
" clip-path="url(#p4079dde9c3)" style="fill: #1f77b4; stroke: #000000; stroke-linejoin: miter"/>
   </g>
   <g id="patch_19">
    <path d="M 348.548499 148.520715 
L 338.054598 146.720246 
" clip-path="url(#p4079dde9c3)" style="fill: #1f77b4; stroke: #000000; stroke-linejoin: miter"/>
   </g>
   <g id="patch_20">
    <path d="M 155.662287 181.580119 
L 150.015737 187.226669 
" clip-path="url(#p4079dde9c3)" style="fill: #1f77b4; stroke: #000000; stroke-linejoin: miter"/>
   </g>
   <g id="patch_21">
    <path d="M 369.536301 152.121652 
L 359.0424 150.321183 
" clip-path="url(#p4079dde9c3)" style="fill: #1f77b4; stroke: #000000; stroke-linejoin: miter"/>
   </g>
   <g id="patch_22">
    <path d="M 165.316856 64.344326 
L 169.572395 69.868899 
" clip-path="url(#p4079dde9c3)" style="fill: #1f77b4; stroke: #000000; stroke-linejoin: miter"/>
   </g>
   <g id="patch_23">
    <path d="M 220.164995 149.308971 
C 224.176751 149.308971 228.024736 147.715084 230.861475 144.878344 
C 233.698215 142.041605 235.292102 138.19362 235.292102 134.181864 
C 235.292102 130.170108 233.698215 126.322124 230.861475 123.485384 
C 228.024736 120.648645 224.176751 119.054757 220.164995 119.054757 
C 216.15324 119.054757 212.305255 120.648645 209.468515 123.485384 
C 206.631776 126.322124 205.037888 130.170108 205.037888 134.181864 
C 205.037888 138.19362 206.631776 142.041605 209.468515 144.878344 
C 212.305255 147.715084 216.15324 149.308971 220.164995 149.308971 
z
" clip-path="url(#p4079dde9c3)" style="fill: #fa8072; stroke: #000000; stroke-linejoin: miter"/>
   </g>
   <g id="patch_24">
    <path d="M 140.60482 211.764693 
C 144.616576 211.764693 148.464561 210.170806 151.3013 207.334066 
C 154.13804 204.497326 155.731927 200.649342 155.731927 196.637586 
C 155.731927 192.62583 154.13804 188.777845 151.3013 185.941106 
C 148.464561 183.104366 144.616576 181.510479 140.60482 181.510479 
C 136.593065 181.510479 132.74508 183.104366 129.90834 185.941106 
C 127.071601 188.777845 125.477713 192.62583 125.477713 196.637586 
C 125.477713 200.649342 127.071601 204.497326 129.90834 207.334066 
C 132.74508 210.170806 136.593065 211.764693 140.60482 211.764693 
z
" clip-path="url(#p4079dde9c3)" style="fill: #fa8072; stroke: #000000; stroke-linejoin: miter"/>
   </g>
   <g id="patch_25">
    <path d="M 390.524103 155.72259 
L 380.030202 153.922121 
" clip-path="url(#p4079dde9c3)" style="fill: #1f77b4; stroke: #000000; stroke-linejoin: miter"/>
   </g>
   <g id="patch_26">
    <path d="M 149.414555 141.014253 
C 153.426311 141.014253 157.274296 139.420366 160.111035 136.583626 
C 162.947775 133.746886 164.541662 129.898902 164.541662 125.887146 
C 164.541662 121.87539 162.947775 118.027406 160.111035 115.190666 
C 157.274296 112.353926 153.426311 110.760039 149.414555 110.760039 
C 145.4028 110.760039 141.554815 112.353926 138.718075 115.190666 
C 135.881336 118.027406 134.287448 121.87539 134.287448 125.887146 
C 134.287448 129.898902 135.881336 133.746886 138.718075 136.583626 
C 141.554815 139.420366 145.4028 141.014253 149.414555 141.014253 
z
" clip-path="url(#p4079dde9c3)" style="fill: #fa8072; stroke: #000000; stroke-linejoin: miter"/>
   </g>
   <g id="patch_27">
    <path d="M 276.058363 193.107664 
C 280.070118 193.107664 283.918103 191.513776 286.754843 188.677037 
C 289.591582 185.840297 291.18547 181.992312 291.18547 177.980557 
C 291.18547 173.968801 289.591582 170.120816 286.754843 167.284077 
C 283.918103 164.447337 280.070118 162.853449 276.058363 162.853449 
C 272.046607 162.853449 268.198622 164.447337 265.361882 167.284077 
C 262.525143 170.120816 260.931255 173.968801 260.931255 177.980557 
C 260.931255 181.992312 262.525143 185.840297 265.361882 188.677037 
C 268.198622 191.513776 272.046607 193.107664 276.058363 193.107664 
z
" clip-path="url(#p4079dde9c3)" style="fill: #fa8072; stroke: #000000; stroke-linejoin: miter"/>
   </g>
   <g id="patch_28">
    <path d="M 156.805777 53.295182 
L 161.061316 58.819754 
" clip-path="url(#p4079dde9c3)" style="fill: #1f77b4; stroke: #000000; stroke-linejoin: miter"/>
   </g>
   <g id="patch_29">
    <path d="M 411.511905 159.323527 
L 401.018004 157.523059 
" clip-path="url(#p4079dde9c3)" style="fill: #1f77b4; stroke: #000000; stroke-linejoin: miter"/>
   </g>
   <g id="patch_30">
    <path d="M 133.076087 204.166319 
L 127.429537 209.812869 
" clip-path="url(#p4079dde9c3)" style="fill: #1f77b4; stroke: #000000; stroke-linejoin: miter"/>
   </g>
   <g id="patch_31">
    <path d="M 411.511905 159.323527 
L 405.865355 164.970077 
" clip-path="url(#p4079dde9c3)" style="fill: #1f77b4; stroke: #000000; stroke-linejoin: miter"/>
   </g>
   <g id="patch_32">
    <path d="M 407.256366 153.798955 
L 411.511905 159.323527 
" clip-path="url(#p4079dde9c3)" style="fill: #1f77b4; stroke: #000000; stroke-linejoin: miter"/>
   </g>
   <g id="patch_33">
    <path d="M 148.294699 42.246038 
L 152.550238 47.77061 
" clip-path="url(#p4079dde9c3)" style="fill: #1f77b4; stroke: #000000; stroke-linejoin: miter"/>
   </g>
   <g id="patch_34">
    <path d="M 121.782987 215.459419 
L 116.136437 221.105969 
" clip-path="url(#p4079dde9c3)" style="fill: #1f77b4; stroke: #000000; stroke-linejoin: miter"/>
   </g>
   <g id="patch_35">
    <path d="M 400.218805 170.616627 
L 394.572255 176.263177 
" clip-path="url(#p4079dde9c3)" style="fill: #1f77b4; stroke: #000000; stroke-linejoin: miter"/>
   </g>
   <g id="patch_36">
    <path d="M 398.745288 142.749811 
L 403.000827 148.274383 
" clip-path="url(#p4079dde9c3)" style="fill: #1f77b4; stroke: #000000; stroke-linejoin: miter"/>
   </g>
   <g id="patch_37">
    <path d="M 139.783621 31.196893 
L 144.03916 36.721465 
" clip-path="url(#p4079dde9c3)" style="fill: #1f77b4; stroke: #000000; stroke-linejoin: miter"/>
   </g>
   <g id="patch_38">
    <path d="M 184.403513 185.070454 
C 188.415268 185.070454 192.263253 183.476566 195.099993 180.639827 
C 197.936732 177.803087 199.53062 173.955102 199.53062 169.943347 
C 199.53062 165.931591 197.936732 162.083606 195.099993 159.246867 
C 192.263253 156.410127 188.415268 154.81624 184.403513 154.81624 
C 180.391757 154.81624 176.543772 156.410127 173.707033 159.246867 
C 170.870293 162.083606 169.276406 165.931591 169.276406 169.943347 
C 169.276406 173.955102 170.870293 177.803087 173.707033 180.639827 
C 176.543772 183.476566 180.391757 185.070454 184.403513 185.070454 
z
" clip-path="url(#p4079dde9c3)" style="fill: #fa8072; stroke: #000000; stroke-linejoin: miter"/>
   </g>
   <g id="patch_39">
    <path d="M 104.843338 247.526176 
C 108.855093 247.526176 112.703078 245.932288 115.539818 243.095548 
C 118.376557 240.258809 119.970445 236.410824 119.970445 232.399068 
C 119.970445 228.387313 118.376557 224.539328 115.539818 221.702588 
C 112.703078 218.865849 108.855093 217.271961 104.843338 217.271961 
C 100.831582 217.271961 96.983597 218.865849 94.146858 221.702588 
C 91.310118 224.539328 89.716231 228.387313 89.716231 232.399068 
C 89.716231 236.410824 91.310118 240.258809 94.146858 243.095548 
C 96.983597 245.932288 100.831582 247.526176 104.843338 247.526176 
z
" clip-path="url(#p4079dde9c3)" style="fill: #fa8072; stroke: #000000; stroke-linejoin: miter"/>
   </g>
   <g id="patch_40">
    <path d="M 388.925705 181.909727 
L 383.279155 187.556277 
" clip-path="url(#p4079dde9c3)" style="fill: #1f77b4; stroke: #000000; stroke-linejoin: miter"/>
   </g>
   <g id="patch_41">
    <path d="M 193.213248 114.320014 
C 197.225003 114.320014 201.072988 112.726127 203.909728 109.889387 
C 206.746467 107.052647 208.340355 103.204663 208.340355 99.192907 
C 208.340355 95.181151 206.746467 91.333167 203.909728 88.496427 
C 201.072988 85.659687 197.225003 84.0658 193.213248 84.0658 
C 189.201492 84.0658 185.353507 85.659687 182.516768 88.496427 
C 179.680028 91.333167 178.086141 95.181151 178.086141 99.192907 
C 178.086141 103.204663 179.680028 107.052647 182.516768 109.889387 
C 185.353507 112.726127 189.201492 114.320014 193.213248 114.320014 
z
" clip-path="url(#p4079dde9c3)" style="fill: #fa8072; stroke: #000000; stroke-linejoin: miter"/>
   </g>
   <g id="patch_42">
    <path d="M 390.234209 131.700666 
L 394.489748 137.225239 
" clip-path="url(#p4079dde9c3)" style="fill: #1f77b4; stroke: #000000; stroke-linejoin: miter"/>
   </g>
   <g id="patch_43">
    <path d="M 113.653073 176.775736 
C 117.664828 176.775736 121.512813 175.181848 124.349553 172.345109 
C 127.186292 169.508369 128.78018 165.660384 128.78018 161.648629 
C 128.78018 157.636873 127.186292 153.788888 124.349553 150.952149 
C 121.512813 148.115409 117.664828 146.521521 113.653073 146.521521 
C 109.641317 146.521521 105.793332 148.115409 102.956593 150.952149 
C 100.119853 153.788888 98.525966 157.636873 98.525966 161.648629 
C 98.525966 165.660384 100.119853 169.508369 102.956593 172.345109 
C 105.793332 175.181848 109.641317 176.775736 113.653073 176.775736 
z
" clip-path="url(#p4079dde9c3)" style="fill: #fa8072; stroke: #000000; stroke-linejoin: miter"/>
   </g>
   <g id="patch_44">
    <path d="M 319.857055 166.413425 
C 323.868811 166.413425 327.716795 164.819537 330.553535 161.982798 
C 333.390275 159.146058 334.984162 155.298073 334.984162 151.286318 
C 334.984162 147.274562 333.390275 143.426577 330.553535 140.589837 
C 327.716795 137.753098 323.868811 136.15921 319.857055 136.15921 
C 315.845299 136.15921 311.997315 137.753098 309.160575 140.589837 
C 306.323835 143.426577 304.729948 147.274562 304.729948 151.286318 
C 304.729948 155.298073 306.323835 159.146058 309.160575 161.982798 
C 311.997315 164.819537 315.845299 166.413425 319.857055 166.413425 
z
" clip-path="url(#p4079dde9c3)" style="fill: #fa8072; stroke: #000000; stroke-linejoin: miter"/>
   </g>
   <g id="patch_45">
    <path d="M 240.29688 228.869146 
C 244.308636 228.869146 248.15662 227.275259 250.99336 224.438519 
C 253.8301 221.60178 255.423987 217.753795 255.423987 213.742039 
C 255.423987 209.730283 253.8301 205.882299 250.99336 203.045559 
C 248.15662 200.208819 244.308636 198.614932 240.29688 198.614932 
C 236.285124 198.614932 232.43714 200.208819 229.6004 203.045559 
C 226.76366 205.882299 225.169773 209.730283 225.169773 213.742039 
C 225.169773 217.753795 226.76366 221.60178 229.6004 224.438519 
C 232.43714 227.275259 236.285124 228.869146 240.29688 228.869146 
z
" clip-path="url(#p4079dde9c3)" style="fill: #fa8072; stroke: #000000; stroke-linejoin: miter"/>
   </g>
   <g id="patch_46">
    <path d="M 122.462808 106.025296 
C 126.474564 106.025296 130.322548 104.431408 133.159288 101.594669 
C 135.996028 98.757929 137.589915 94.909944 137.589915 90.898189 
C 137.589915 86.886433 135.996028 83.038448 133.159288 80.201709 
C 130.322548 77.364969 126.474564 75.771082 122.462808 75.771082 
C 118.451052 75.771082 114.603067 77.364969 111.766328 80.201709 
C 108.929588 83.038448 107.335701 86.886433 107.335701 90.898189 
C 107.335701 94.909944 108.929588 98.757929 111.766328 101.594669 
C 114.603067 104.431408 118.451052 106.025296 122.462808 106.025296 
z
" clip-path="url(#p4079dde9c3)" style="fill: #fa8072; stroke: #000000; stroke-linejoin: miter"/>
   </g>
   <g id="patch_47">
    <path d="M 131.272543 20.147749 
L 135.528082 25.672321 
" clip-path="url(#p4079dde9c3)" style="fill: #1f77b4; stroke: #000000; stroke-linejoin: miter"/>
   </g>
   <g id="patch_48">
    <path d="M 249.106615 158.118706 
C 253.118371 158.118706 256.966355 156.524819 259.803095 153.688079 
C 262.639835 150.85134 264.233722 147.003355 264.233722 142.991599 
C 264.233722 138.979844 262.639835 135.131859 259.803095 132.295119 
C 256.966355 129.45838 253.118371 127.864492 249.106615 127.864492 
C 245.094859 127.864492 241.246875 129.45838 238.410135 132.295119 
C 235.573395 135.131859 233.979508 138.979844 233.979508 142.991599 
C 233.979508 147.003355 235.573395 150.85134 238.410135 153.688079 
C 241.246875 156.524819 245.094859 158.118706 249.106615 158.118706 
z
" clip-path="url(#p4079dde9c3)" style="fill: #fa8072; stroke: #000000; stroke-linejoin: miter"/>
   </g>
   <g id="patch_49">
    <path d="M 136.325041 237.800475 
L 125.83114 236.000006 
" clip-path="url(#p4079dde9c3)" style="fill: #1f77b4; stroke: #000000; stroke-linejoin: miter"/>
   </g>
   <g id="patch_50">
    <path d="M 377.632605 193.202827 
L 371.986056 198.849376 
" clip-path="url(#p4079dde9c3)" style="fill: #1f77b4; stroke: #000000; stroke-linejoin: miter"/>
   </g>
   <g id="patch_51">
    <path d="M 141.766444 21.948218 
L 131.272543 20.147749 
" clip-path="url(#p4079dde9c3)" style="fill: #1f77b4; stroke: #000000; stroke-linejoin: miter"/>
   </g>
   <g id="patch_52">
    <path d="M 131.272543 20.147749 
L 125.625993 25.794299 
" clip-path="url(#p4079dde9c3)" style="fill: #1f77b4; stroke: #000000; stroke-linejoin: miter"/>
   </g>
   <g id="patch_53">
    <path d="M 92.07672 215.825352 
L 96.33226 221.349924 
" clip-path="url(#p4079dde9c3)" style="fill: #1f77b4; stroke: #000000; stroke-linejoin: miter"/>
   </g>
   <g id="patch_54">
    <path d="M 381.723131 120.651522 
L 385.97867 126.176094 
" clip-path="url(#p4079dde9c3)" style="fill: #1f77b4; stroke: #000000; stroke-linejoin: miter"/>
   </g>
   <g id="patch_55">
    <path d="M 157.312843 241.401412 
L 146.818942 239.600943 
" clip-path="url(#p4079dde9c3)" style="fill: #1f77b4; stroke: #000000; stroke-linejoin: miter"/>
   </g>
   <g id="patch_56">
    <path d="M 162.754246 25.549155 
L 152.260345 23.748686 
" clip-path="url(#p4079dde9c3)" style="fill: #1f77b4; stroke: #000000; stroke-linejoin: miter"/>
   </g>
   <g id="patch_57">
    <path d="M 366.339506 204.495926 
L 360.692956 210.142476 
" clip-path="url(#p4079dde9c3)" style="fill: #1f77b4; stroke: #000000; stroke-linejoin: miter"/>
   </g>
   <g id="patch_58">
    <path d="M 119.979443 31.440849 
L 114.332893 37.087398 
" clip-path="url(#p4079dde9c3)" style="fill: #1f77b4; stroke: #000000; stroke-linejoin: miter"/>
   </g>
   <g id="patch_59">
    <path d="M 178.300645 245.00235 
L 167.806744 243.201881 
" clip-path="url(#p4079dde9c3)" style="fill: #1f77b4; stroke: #000000; stroke-linejoin: miter"/>
   </g>
   <g id="patch_60">
    <path d="M 83.565642 204.776207 
L 87.821181 210.30078 
" clip-path="url(#p4079dde9c3)" style="fill: #1f77b4; stroke: #000000; stroke-linejoin: miter"/>
   </g>
   <g id="patch_61">
    <path d="M 373.212053 109.602377 
L 377.467592 115.12695 
" clip-path="url(#p4079dde9c3)" style="fill: #1f77b4; stroke: #000000; stroke-linejoin: miter"/>
   </g>
   <g id="patch_62">
    <path d="M 183.742048 29.150093 
L 173.248147 27.349624 
" clip-path="url(#p4079dde9c3)" style="fill: #1f77b4; stroke: #000000; stroke-linejoin: miter"/>
   </g>
   <g id="patch_63">
    <path d="M 355.046406 215.789026 
L 349.399856 221.435576 
" clip-path="url(#p4079dde9c3)" style="fill: #1f77b4; stroke: #000000; stroke-linejoin: miter"/>
   </g>
   <g id="patch_64">
    <path d="M 148.64203 220.831936 
C 152.653786 220.831936 156.50177 219.238049 159.33851 216.401309 
C 162.17525 213.56457 163.769137 209.716585 163.769137 205.704829 
C 163.769137 201.693074 162.17525 197.845089 159.33851 195.008349 
C 156.50177 192.17161 152.653786 190.577722 148.64203 190.577722 
C 144.630274 190.577722 140.78229 192.17161 137.94555 195.008349 
C 135.10881 197.845089 133.514923 201.693074 133.514923 205.704829 
C 133.514923 209.716585 135.10881 213.56457 137.94555 216.401309 
C 140.78229 219.238049 144.630274 220.831936 148.64203 220.831936 
z
" clip-path="url(#p4079dde9c3)" style="fill: #fa8072; stroke: #000000; stroke-linejoin: miter"/>
   </g>
   <g id="patch_65">
    <path d="M 199.288447 248.603287 
L 188.794546 246.802819 
" clip-path="url(#p4079dde9c3)" style="fill: #1f77b4; stroke: #000000; stroke-linejoin: miter"/>
   </g>
   <g id="patch_66">
    <path d="M 108.686343 42.733948 
L 103.039794 48.380498 
" clip-path="url(#p4079dde9c3)" style="fill: #1f77b4; stroke: #000000; stroke-linejoin: miter"/>
   </g>
   <g id="patch_67">
    <path d="M 157.451765 150.081497 
C 161.463521 150.081497 165.311506 148.487609 168.148245 145.65087 
C 170.984985 142.81413 172.578872 138.966145 172.578872 134.954389 
C 172.578872 130.942634 170.984985 127.094649 168.148245 124.257909 
C 165.311506 121.42117 161.463521 119.827282 157.451765 119.827282 
C 153.440009 119.827282 149.592025 121.42117 146.755285 124.257909 
C 143.918545 127.094649 142.324658 130.942634 142.324658 134.954389 
C 142.324658 138.966145 143.918545 142.81413 146.755285 145.65087 
C 149.592025 148.487609 153.440009 150.081497 157.451765 150.081497 
z
" clip-path="url(#p4079dde9c3)" style="fill: #fa8072; stroke: #000000; stroke-linejoin: miter"/>
   </g>
   <g id="patch_68">
    <path d="M 77.89159 212.537218 
C 81.903346 212.537218 85.751331 210.943331 88.58807 208.106591 
C 91.42481 205.269851 93.018697 201.421867 93.018697 197.410111 
C 93.018697 193.398355 91.42481 189.550371 88.58807 186.713631 
C 85.751331 183.876891 81.903346 182.283004 77.89159 182.283004 
C 73.879835 182.283004 70.03185 183.876891 67.19511 186.713631 
C 64.358371 189.550371 62.764483 193.398355 62.764483 197.410111 
C 62.764483 201.421867 64.358371 205.269851 67.19511 208.106591 
C 70.03185 210.943331 73.879835 212.537218 77.89159 212.537218 
z
" clip-path="url(#p4079dde9c3)" style="fill: #fa8072; stroke: #000000; stroke-linejoin: miter"/>
   </g>
   <g id="patch_69">
    <path d="M 204.72985 32.75103 
L 194.235949 30.950561 
" clip-path="url(#p4079dde9c3)" style="fill: #1f77b4; stroke: #000000; stroke-linejoin: miter"/>
   </g>
   <g id="patch_70">
    <path d="M 284.095572 202.174907 
C 288.107328 202.174907 291.955313 200.58102 294.792052 197.74428 
C 297.628792 194.90754 299.222679 191.059556 299.222679 187.0478 
C 299.222679 183.036044 297.628792 179.18806 294.792052 176.35132 
C 291.955313 173.51458 288.107328 171.920693 284.095572 171.920693 
C 280.083817 171.920693 276.235832 173.51458 273.399092 176.35132 
C 270.562353 179.18806 268.968465 183.036044 268.968465 187.0478 
C 268.968465 191.059556 270.562353 194.90754 273.399092 197.74428 
C 276.235832 200.58102 280.083817 202.174907 284.095572 202.174907 
z
" clip-path="url(#p4079dde9c3)" style="fill: #fa8072; stroke: #000000; stroke-linejoin: miter"/>
   </g>
   <g id="patch_71">
    <path d="M 364.700975 98.553233 
L 368.956514 104.077805 
" clip-path="url(#p4079dde9c3)" style="fill: #1f77b4; stroke: #000000; stroke-linejoin: miter"/>
   </g>
   <g id="patch_72">
    <path d="M 204.535397 264.630629 
C 208.547153 264.630629 212.395138 263.036741 215.231877 260.200002 
C 218.068617 257.363262 219.662504 253.515277 219.662504 249.503522 
C 219.662504 245.491766 218.068617 241.643781 215.231877 238.807042 
C 212.395138 235.970302 208.547153 234.376415 204.535397 234.376415 
C 200.523642 234.376415 196.675657 235.970302 193.838917 238.807042 
C 191.002178 241.643781 189.40829 245.491766 189.40829 249.503522 
C 189.40829 253.515277 191.002178 257.363262 193.838917 260.200002 
C 196.675657 263.036741 200.523642 264.630629 204.535397 264.630629 
z
" clip-path="url(#p4079dde9c3)" style="fill: #fa8072; stroke: #000000; stroke-linejoin: miter"/>
   </g>
   <g id="patch_73">
    <path d="M 166.2615 79.331057 
C 170.273256 79.331057 174.121241 77.737169 176.95798 74.90043 
C 179.79472 72.06369 181.388607 68.215705 181.388607 64.20395 
C 181.388607 60.192194 179.79472 56.344209 176.95798 53.50747 
C 174.121241 50.67073 170.273256 49.076842 166.2615 49.076842 
C 162.249745 49.076842 158.40176 50.67073 155.56502 53.50747 
C 152.728281 56.344209 151.134393 60.192194 151.134393 64.20395 
C 151.134393 68.215705 152.728281 72.06369 155.56502 74.90043 
C 158.40176 77.737169 162.249745 79.331057 166.2615 79.331057 
z
" clip-path="url(#p4079dde9c3)" style="fill: #fa8072; stroke: #000000; stroke-linejoin: miter"/>
   </g>
   <g id="patch_74">
    <path d="M 86.701325 141.786778 
C 90.713081 141.786778 94.561066 140.192891 97.397805 137.356151 
C 100.234545 134.519412 101.828432 130.671427 101.828432 126.659671 
C 101.828432 122.647916 100.234545 118.799931 97.397805 115.963191 
C 94.561066 113.126452 90.713081 111.532564 86.701325 111.532564 
C 82.68957 111.532564 78.841585 113.126452 76.004845 115.963191 
C 73.168106 118.799931 71.574218 122.647916 71.574218 126.659671 
C 71.574218 130.671427 73.168106 134.519412 76.004845 137.356151 
C 78.841585 140.192891 82.68957 141.786778 86.701325 141.786778 
z
" clip-path="url(#p4079dde9c3)" style="fill: #fa8072; stroke: #000000; stroke-linejoin: miter"/>
   </g>
   <g id="patch_75">
    <path d="M 292.905307 131.424467 
C 296.917063 131.424467 300.765048 129.83058 303.601787 126.99384 
C 306.438527 124.157101 308.032415 120.309116 308.032415 116.29736 
C 308.032415 112.285605 306.438527 108.43762 303.601787 105.60088 
C 300.765048 102.764141 296.917063 101.170253 292.905307 101.170253 
C 288.893552 101.170253 285.045567 102.764141 282.208827 105.60088 
C 279.372088 108.43762 277.7782 112.285605 277.7782 116.29736 
C 277.7782 120.309116 279.372088 124.157101 282.208827 126.99384 
C 285.045567 129.83058 288.893552 131.424467 292.905307 131.424467 
z
" clip-path="url(#p4079dde9c3)" style="fill: #fa8072; stroke: #000000; stroke-linejoin: miter"/>
   </g>
   <g id="patch_76">
    <path d="M 213.345132 193.880189 
C 217.356888 193.880189 221.204873 192.286302 224.041612 189.449562 
C 226.878352 186.612822 228.47224 182.764838 228.47224 178.753082 
C 228.47224 174.741326 226.878352 170.893341 224.041612 168.056602 
C 221.204873 165.219862 217.356888 163.625975 213.345132 163.625975 
C 209.333377 163.625975 205.485392 165.219862 202.648652 168.056602 
C 199.811913 170.893341 198.218025 174.741326 198.218025 178.753082 
C 198.218025 182.764838 199.811913 186.612822 202.648652 189.449562 
C 205.485392 192.286302 209.333377 193.880189 213.345132 193.880189 
z
" clip-path="url(#p4079dde9c3)" style="fill: #fa8072; stroke: #000000; stroke-linejoin: miter"/>
   </g>
   <g id="patch_77">
    <path d="M 220.276249 252.204225 
L 209.782348 250.403756 
" clip-path="url(#p4079dde9c3)" style="fill: #1f77b4; stroke: #000000; stroke-linejoin: miter"/>
   </g>
   <g id="patch_78">
    <path d="M 343.753306 227.082126 
L 338.106756 232.728676 
" clip-path="url(#p4079dde9c3)" style="fill: #1f77b4; stroke: #000000; stroke-linejoin: miter"/>
   </g>
   <g id="patch_79">
    <path d="M 97.393244 54.027048 
L 91.746694 59.673598 
" clip-path="url(#p4079dde9c3)" style="fill: #1f77b4; stroke: #000000; stroke-linejoin: miter"/>
   </g>
   <g id="patch_80">
    <path d="M 225.717652 36.351968 
L 215.223751 34.551499 
" clip-path="url(#p4079dde9c3)" style="fill: #1f77b4; stroke: #000000; stroke-linejoin: miter"/>
   </g>
   <g id="patch_81">
    <path d="M 222.154868 123.129749 
C 226.166623 123.129749 230.014608 121.535862 232.851348 118.699122 
C 235.688087 115.862382 237.281975 112.014398 237.281975 108.002642 
C 237.281975 103.990886 235.688087 100.142902 232.851348 97.306162 
C 230.014608 94.469422 226.166623 92.875535 222.154868 92.875535 
C 218.143112 92.875535 214.295127 94.469422 211.458388 97.306162 
C 208.621648 100.142902 207.02776 103.990886 207.02776 108.002642 
C 207.02776 112.014398 208.621648 115.862382 211.458388 118.699122 
C 214.295127 121.535862 218.143112 123.129749 222.154868 123.129749 
z
" clip-path="url(#p4079dde9c3)" style="fill: #fa8072; stroke: #000000; stroke-linejoin: miter"/>
   </g>
   <g id="patch_82">
    <path d="M 66.543486 182.677919 
L 70.799025 188.202491 
" clip-path="url(#p4079dde9c3)" style="fill: #1f77b4; stroke: #000000; stroke-linejoin: miter"/>
   </g>
   <g id="patch_83">
    <path d="M 356.189897 87.504089 
L 360.445436 93.028661 
" clip-path="url(#p4079dde9c3)" style="fill: #1f77b4; stroke: #000000; stroke-linejoin: miter"/>
   </g>
   <g id="patch_84">
    <path d="M 241.264051 255.805162 
L 230.77015 254.004694 
" clip-path="url(#p4079dde9c3)" style="fill: #1f77b4; stroke: #000000; stroke-linejoin: miter"/>
   </g>
   <g id="patch_85">
    <path d="M 332.460206 238.375226 
L 326.813657 244.021776 
" clip-path="url(#p4079dde9c3)" style="fill: #1f77b4; stroke: #000000; stroke-linejoin: miter"/>
   </g>
   <g id="patch_86">
    <path d="M 246.705454 39.952905 
L 236.211553 38.152437 
" clip-path="url(#p4079dde9c3)" style="fill: #1f77b4; stroke: #000000; stroke-linejoin: miter"/>
   </g>
   <g id="patch_87">
    <path d="M 86.100144 65.320148 
L 80.453594 70.966698 
" clip-path="url(#p4079dde9c3)" style="fill: #1f77b4; stroke: #000000; stroke-linejoin: miter"/>
   </g>
   <g id="patch_88">
    <path d="M 262.251853 259.4061 
L 251.757952 257.605631 
" clip-path="url(#p4079dde9c3)" style="fill: #1f77b4; stroke: #000000; stroke-linejoin: miter"/>
   </g>
   <g id="patch_89">
    <path d="M 58.032408 171.628774 
L 62.287947 177.153346 
" clip-path="url(#p4079dde9c3)" style="fill: #1f77b4; stroke: #000000; stroke-linejoin: miter"/>
   </g>
   <g id="patch_90">
    <path d="M 347.678819 76.454944 
L 351.934358 81.979516 
" clip-path="url(#p4079dde9c3)" style="fill: #1f77b4; stroke: #000000; stroke-linejoin: miter"/>
   </g>
   <g id="patch_91">
    <path d="M 267.693256 43.553843 
L 257.199355 41.753374 
" clip-path="url(#p4079dde9c3)" style="fill: #1f77b4; stroke: #000000; stroke-linejoin: miter"/>
   </g>
   <g id="patch_92">
    <path d="M 321.167107 249.668325 
L 315.520557 255.314875 
" clip-path="url(#p4079dde9c3)" style="fill: #1f77b4; stroke: #000000; stroke-linejoin: miter"/>
   </g>
   <g id="patch_93">
    <path d="M 74.807044 76.613248 
L 69.160494 82.259798 
" clip-path="url(#p4079dde9c3)" style="fill: #1f77b4; stroke: #000000; stroke-linejoin: miter"/>
   </g>
   <g id="patch_94">
    <path d="M 283.239655 263.007037 
L 272.745754 261.206569 
" clip-path="url(#p4079dde9c3)" style="fill: #1f77b4; stroke: #000000; stroke-linejoin: miter"/>
   </g>
   <g id="patch_95">
    <path d="M 121.690283 185.842979 
C 125.702038 185.842979 129.550023 184.249092 132.386763 181.412352 
C 135.223502 178.575612 136.81739 174.727628 136.81739 170.715872 
C 136.81739 166.704116 135.223502 162.856132 132.386763 160.019392 
C 129.550023 157.182652 125.702038 155.588765 121.690283 155.588765 
C 117.678527 155.588765 113.830542 157.182652 110.993803 160.019392 
C 108.157063 162.856132 106.563175 166.704116 106.563175 170.715872 
C 106.563175 174.727628 108.157063 178.575612 110.993803 181.412352 
C 113.830542 184.249092 117.678527 185.842979 121.690283 185.842979 
z
" clip-path="url(#p4079dde9c3)" style="fill: #fa8072; stroke: #000000; stroke-linejoin: miter"/>
   </g>
   <g id="patch_96">
    <path d="M 288.681058 47.15478 
L 278.187157 45.354312 
" clip-path="url(#p4079dde9c3)" style="fill: #1f77b4; stroke: #000000; stroke-linejoin: miter"/>
   </g>
   <g id="patch_97">
    <path d="M 248.33409 237.93639 
C 252.345845 237.93639 256.19383 236.342502 259.03057 233.505763 
C 261.867309 230.669023 263.461197 226.821038 263.461197 222.809283 
C 263.461197 218.797527 261.867309 214.949542 259.03057 212.112803 
C 256.19383 209.276063 252.345845 207.682176 248.33409 207.682176 
C 244.322334 207.682176 240.474349 209.276063 237.63761 212.112803 
C 234.80087 214.949542 233.206983 218.797527 233.206983 222.809283 
C 233.206983 226.821038 234.80087 230.669023 237.63761 233.505763 
C 240.474349 236.342502 244.322334 237.93639 248.33409 237.93639 
z
" clip-path="url(#p4079dde9c3)" style="fill: #fa8072; stroke: #000000; stroke-linejoin: miter"/>
   </g>
   <g id="patch_98">
    <path d="M 339.16774 65.4058 
L 343.42328 70.930372 
" clip-path="url(#p4079dde9c3)" style="fill: #1f77b4; stroke: #000000; stroke-linejoin: miter"/>
   </g>
   <g id="patch_99">
    <path d="M 130.500018 115.092539 
C 134.511773 115.092539 138.359758 113.498652 141.196498 110.661912 
C 144.033237 107.825173 145.627125 103.977188 145.627125 99.965432 
C 145.627125 95.953676 144.033237 92.105692 141.196498 89.268952 
C 138.359758 86.432213 134.511773 84.838325 130.500018 84.838325 
C 126.488262 84.838325 122.640277 86.432213 119.803538 89.268952 
C 116.966798 92.105692 115.372911 95.953676 115.372911 99.965432 
C 115.372911 103.977188 116.966798 107.825173 119.803538 110.661912 
C 122.640277 113.498652 126.488262 115.092539 130.500018 115.092539 
z
" clip-path="url(#p4079dde9c3)" style="fill: #fa8072; stroke: #000000; stroke-linejoin: miter"/>
   </g>
   <g id="patch_100">
    <path d="M 50.939843 177.548261 
C 54.951598 177.548261 58.799583 175.954374 61.636323 173.117634 
C 64.473062 170.280894 66.06695 166.43291 66.06695 162.421154 
C 66.06695 158.409398 64.473062 154.561413 61.636323 151.724674 
C 58.799583 148.887934 54.951598 147.294047 50.939843 147.294047 
C 46.928087 147.294047 43.080102 148.887934 40.243363 151.724674 
C 37.406623 154.561413 35.812736 158.409398 35.812736 162.421154 
C 35.812736 166.43291 37.406623 170.280894 40.243363 173.117634 
C 43.080102 175.954374 46.928087 177.548261 50.939843 177.548261 
z
" clip-path="url(#p4079dde9c3)" style="fill: #fa8072; stroke: #000000; stroke-linejoin: miter"/>
   </g>
   <g id="patch_101">
    <path d="M 309.874007 260.961425 
L 304.227457 266.607975 
" clip-path="url(#p4079dde9c3)" style="fill: #1f77b4; stroke: #000000; stroke-linejoin: miter"/>
   </g>
   <g id="patch_102">
    <path d="M 304.227457 266.607975 
L 293.733556 264.807506 
" clip-path="url(#p4079dde9c3)" style="fill: #1f77b4; stroke: #000000; stroke-linejoin: miter"/>
   </g>
   <g id="patch_103">
    <path d="M 257.143825 167.18595 
C 261.155581 167.18595 265.003565 165.592062 267.840305 162.755323 
C 270.677045 159.918583 272.270932 156.070599 272.270932 152.058843 
C 272.270932 148.047087 270.677045 144.199102 267.840305 141.362363 
C 265.003565 138.525623 261.155581 136.931736 257.143825 136.931736 
C 253.132069 136.931736 249.284084 138.525623 246.447345 141.362363 
C 243.610605 144.199102 242.016718 148.047087 242.016718 152.058843 
C 242.016718 156.070599 243.610605 159.918583 246.447345 162.755323 
C 249.284084 165.592062 253.132069 167.18595 257.143825 167.18595 
z
" clip-path="url(#p4079dde9c3)" style="fill: #fa8072; stroke: #000000; stroke-linejoin: miter"/>
   </g>
   <g id="patch_104">
    <path d="M 177.58365 229.641672 
C 181.595406 229.641672 185.44339 228.047784 188.28013 225.211044 
C 191.11687 222.374305 192.710757 218.52632 192.710757 214.514564 
C 192.710757 210.502809 191.11687 206.654824 188.28013 203.818084 
C 185.44339 200.981345 181.595406 199.387457 177.58365 199.387457 
C 173.571894 199.387457 169.72391 200.981345 166.88717 203.818084 
C 164.05043 206.654824 162.456543 210.502809 162.456543 214.514564 
C 162.456543 218.52632 164.05043 222.374305 166.88717 225.211044 
C 169.72391 228.047784 173.571894 229.641672 177.58365 229.641672 
z
" clip-path="url(#p4079dde9c3)" style="fill: #fa8072; stroke: #000000; stroke-linejoin: miter"/>
   </g>
   <g id="patch_105">
    <path d="M 63.513944 87.906347 
L 57.867395 93.552897 
" clip-path="url(#p4079dde9c3)" style="fill: #1f77b4; stroke: #000000; stroke-linejoin: miter"/>
   </g>
   <g id="patch_106">
    <path d="M 309.66886 50.755718 
L 299.174959 48.955249 
" clip-path="url(#p4079dde9c3)" style="fill: #1f77b4; stroke: #000000; stroke-linejoin: miter"/>
   </g>
   <g id="patch_107">
    <path d="M 265.95356 96.43551 
C 269.965316 96.43551 273.8133 94.841623 276.65004 92.004883 
C 279.48678 89.168143 281.080667 85.320159 281.080667 81.308403 
C 281.080667 77.296647 279.48678 73.448663 276.65004 70.611923 
C 273.8133 67.775183 269.965316 66.181296 265.95356 66.181296 
C 261.941804 66.181296 258.09382 67.775183 255.25708 70.611923 
C 252.42034 73.448663 250.826453 77.296647 250.826453 81.308403 
C 250.826453 85.320159 252.42034 89.168143 255.25708 92.004883 
C 258.09382 94.841623 261.941804 96.43551 265.95356 96.43551 
z
" clip-path="url(#p4079dde9c3)" style="fill: #fa8072; stroke: #000000; stroke-linejoin: miter"/>
   </g>
   <g id="patch_108">
    <path d="M 186.393385 158.891232 
C 190.405141 158.891232 194.253125 157.297344 197.089865 154.460605 
C 199.926605 151.623865 201.520492 147.77588 201.520492 143.764125 
C 201.520492 139.752369 199.926605 135.904384 197.089865 133.067645 
C 194.253125 130.230905 190.405141 128.637017 186.393385 128.637017 
C 182.381629 128.637017 178.533645 130.230905 175.696905 133.067645 
C 172.860165 135.904384 171.266278 139.752369 171.266278 143.764125 
C 171.266278 147.77588 172.860165 151.623865 175.696905 154.460605 
C 178.533645 157.297344 182.381629 158.891232 186.393385 158.891232 
z
" clip-path="url(#p4079dde9c3)" style="fill: #fa8072; stroke: #000000; stroke-linejoin: miter"/>
   </g>
   <g id="patch_109">
    <path d="M 299.971918 261.083403 
L 304.227457 266.607975 
" clip-path="url(#p4079dde9c3)" style="fill: #1f77b4; stroke: #000000; stroke-linejoin: miter"/>
   </g>
   <g id="patch_110">
    <path d="M 41.010252 149.530485 
L 45.265791 155.055058 
" clip-path="url(#p4079dde9c3)" style="fill: #1f77b4; stroke: #000000; stroke-linejoin: miter"/>
   </g>
   <g id="patch_111">
    <path d="M 330.656662 54.356655 
L 334.912201 59.881228 
" clip-path="url(#p4079dde9c3)" style="fill: #1f77b4; stroke: #000000; stroke-linejoin: miter"/>
   </g>
   <g id="patch_112">
    <path d="M 330.656662 54.356655 
L 320.162761 52.556187 
" clip-path="url(#p4079dde9c3)" style="fill: #1f77b4; stroke: #000000; stroke-linejoin: miter"/>
   </g>
   <g id="patch_113">
    <path d="M 52.220845 99.199447 
L 46.574295 104.845997 
" clip-path="url(#p4079dde9c3)" style="fill: #1f77b4; stroke: #000000; stroke-linejoin: miter"/>
   </g>
   <g id="patch_114">
    <path d="M 330.656662 54.356655 
L 325.010112 60.003205 
" clip-path="url(#p4079dde9c3)" style="fill: #1f77b4; stroke: #000000; stroke-linejoin: miter"/>
   </g>
   <g id="patch_115">
    <path d="M 291.46084 250.034258 
L 295.716379 255.558831 
" clip-path="url(#p4079dde9c3)" style="fill: #1f77b4; stroke: #000000; stroke-linejoin: miter"/>
   </g>
   <g id="patch_116">
    <path d="M 32.499173 138.481341 
L 36.754712 144.005913 
" clip-path="url(#p4079dde9c3)" style="fill: #1f77b4; stroke: #000000; stroke-linejoin: miter"/>
   </g>
   <g id="patch_117">
    <path d="M 40.927745 110.492547 
L 35.281195 116.139097 
" clip-path="url(#p4079dde9c3)" style="fill: #1f77b4; stroke: #000000; stroke-linejoin: miter"/>
   </g>
   <g id="patch_118">
    <path d="M 319.363563 65.649755 
L 313.717013 71.296305 
" clip-path="url(#p4079dde9c3)" style="fill: #1f77b4; stroke: #000000; stroke-linejoin: miter"/>
   </g>
   <g id="patch_119">
    <path d="M 282.949762 238.985114 
L 287.205301 244.509686 
" clip-path="url(#p4079dde9c3)" style="fill: #1f77b4; stroke: #000000; stroke-linejoin: miter"/>
   </g>
   <g id="patch_120">
    <path d="M 94.738535 150.854022 
C 98.750291 150.854022 102.598275 149.260134 105.435015 146.423395 
C 108.271755 143.586655 109.865642 139.73867 109.865642 135.726915 
C 109.865642 131.715159 108.271755 127.867174 105.435015 125.030435 
C 102.598275 122.193695 98.750291 120.599808 94.738535 120.599808 
C 90.726779 120.599808 86.878795 122.193695 84.042055 125.030435 
C 81.205315 127.867174 79.611428 131.715159 79.611428 135.726915 
C 79.611428 139.73867 81.205315 143.586655 84.042055 146.423395 
C 86.878795 149.260134 90.726779 150.854022 94.738535 150.854022 
z
" clip-path="url(#p4079dde9c3)" style="fill: #fa8072; stroke: #000000; stroke-linejoin: miter"/>
   </g>
   <g id="patch_121">
    <path d="M 23.988095 127.432197 
L 28.243634 132.956769 
" clip-path="url(#p4079dde9c3)" style="fill: #1f77b4; stroke: #000000; stroke-linejoin: miter"/>
   </g>
   <g id="patch_122">
    <path d="M 221.382342 202.947433 
C 225.394098 202.947433 229.242083 201.353545 232.078822 198.516805 
C 234.915562 195.680066 236.509449 191.832081 236.509449 187.820325 
C 236.509449 183.80857 234.915562 179.960585 232.078822 177.123845 
C 229.242083 174.287106 225.394098 172.693218 221.382342 172.693218 
C 217.370587 172.693218 213.522602 174.287106 210.685862 177.123845 
C 207.849123 179.960585 206.255235 183.80857 206.255235 187.820325 
C 206.255235 191.832081 207.849123 195.680066 210.685862 198.516805 
C 213.522602 201.353545 217.370587 202.947433 221.382342 202.947433 
z
" clip-path="url(#p4079dde9c3)" style="fill: #fa8072; stroke: #000000; stroke-linejoin: miter"/>
   </g>
   <g id="patch_123">
    <path d="M 29.634645 121.785647 
L 23.988095 127.432197 
" clip-path="url(#p4079dde9c3)" style="fill: #1f77b4; stroke: #000000; stroke-linejoin: miter"/>
   </g>
   <g id="patch_124">
    <path d="M 308.070463 76.942855 
L 302.423913 82.589405 
" clip-path="url(#p4079dde9c3)" style="fill: #1f77b4; stroke: #000000; stroke-linejoin: miter"/>
   </g>
   <g id="patch_125">
    <path d="M 230.192077 132.196993 
C 234.203833 132.196993 238.051818 130.603105 240.888557 127.766366 
C 243.725297 124.929626 245.319184 121.081641 245.319184 117.069886 
C 245.319184 113.05813 243.725297 109.210145 240.888557 106.373405 
C 238.051818 103.536666 234.203833 101.942778 230.192077 101.942778 
C 226.180322 101.942778 222.332337 103.536666 219.495597 106.373405 
C 216.658858 109.210145 215.06497 113.05813 215.06497 117.069886 
C 215.06497 121.081641 216.658858 124.929626 219.495597 127.766366 
C 222.332337 130.603105 226.180322 132.196993 230.192077 132.196993 
z
" clip-path="url(#p4079dde9c3)" style="fill: #fa8072; stroke: #000000; stroke-linejoin: miter"/>
   </g>
   <g id="patch_126">
    <path d="M 150.631902 194.652714 
C 154.643658 194.652714 158.491643 193.058827 161.328382 190.222087 
C 164.165122 187.385348 165.75901 183.537363 165.75901 179.525607 
C 165.75901 175.513851 164.165122 171.665867 161.328382 168.829127 
C 158.491643 165.992387 154.643658 164.3985 150.631902 164.3985 
C 146.620147 164.3985 142.772162 165.992387 139.935422 168.829127 
C 137.098683 171.665867 135.504795 175.513851 135.504795 179.525607 
C 135.504795 183.537363 137.098683 187.385348 139.935422 190.222087 
C 142.772162 193.058827 146.620147 194.652714 150.631902 194.652714 
z
" clip-path="url(#p4079dde9c3)" style="fill: #fa8072; stroke: #000000; stroke-linejoin: miter"/>
   </g>
   <g id="patch_127">
    <path d="M 34.481996 129.232665 
L 23.988095 127.432197 
" clip-path="url(#p4079dde9c3)" style="fill: #1f77b4; stroke: #000000; stroke-linejoin: miter"/>
   </g>
   <g id="patch_128">
    <path d="M 274.438684 227.93597 
L 278.694223 233.460542 
" clip-path="url(#p4079dde9c3)" style="fill: #1f77b4; stroke: #000000; stroke-linejoin: miter"/>
   </g>
   <g id="patch_129">
    <path d="M 55.469798 132.833603 
L 44.975897 131.033134 
" clip-path="url(#p4079dde9c3)" style="fill: #1f77b4; stroke: #000000; stroke-linejoin: miter"/>
   </g>
   <g id="patch_130">
    <path d="M 296.777363 88.235955 
L 291.130813 93.882505 
" clip-path="url(#p4079dde9c3)" style="fill: #1f77b4; stroke: #000000; stroke-linejoin: miter"/>
   </g>
   <g id="patch_131">
    <path d="M 265.927605 216.886825 
L 270.183144 222.411397 
" clip-path="url(#p4079dde9c3)" style="fill: #1f77b4; stroke: #000000; stroke-linejoin: miter"/>
   </g>
   <g id="patch_132">
    <path d="M 76.4576 136.43454 
L 65.963699 134.634072 
" clip-path="url(#p4079dde9c3)" style="fill: #1f77b4; stroke: #000000; stroke-linejoin: miter"/>
   </g>
   <g id="patch_133">
    <path d="M 285.484263 99.529055 
L 279.837713 105.175604 
" clip-path="url(#p4079dde9c3)" style="fill: #1f77b4; stroke: #000000; stroke-linejoin: miter"/>
   </g>
   <g id="patch_134">
    <path d="M 97.445402 140.035478 
L 86.951501 138.235009 
" clip-path="url(#p4079dde9c3)" style="fill: #1f77b4; stroke: #000000; stroke-linejoin: miter"/>
   </g>
   <g id="patch_135">
    <path d="M 257.416527 205.837681 
L 261.672066 211.362253 
" clip-path="url(#p4079dde9c3)" style="fill: #1f77b4; stroke: #000000; stroke-linejoin: miter"/>
   </g>
   <g id="patch_136">
    <path d="M 274.191164 110.822154 
L 268.544614 116.468704 
" clip-path="url(#p4079dde9c3)" style="fill: #1f77b4; stroke: #000000; stroke-linejoin: miter"/>
   </g>
   <g id="patch_137">
    <path d="M 194.430595 167.958475 
C 198.44235 167.958475 202.290335 166.364588 205.127075 163.527848 
C 207.963814 160.691108 209.557702 156.843124 209.557702 152.831368 
C 209.557702 148.819612 207.963814 144.971628 205.127075 142.134888 
C 202.290335 139.298148 198.44235 137.704261 194.430595 137.704261 
C 190.418839 137.704261 186.570854 139.298148 183.734115 142.134888 
C 180.897375 144.971628 179.303488 148.819612 179.303488 152.831368 
C 179.303488 156.843124 180.897375 160.691108 183.734115 163.527848 
C 186.570854 166.364588 190.418839 167.958475 194.430595 167.958475 
z
" clip-path="url(#p4079dde9c3)" style="fill: #fa8072; stroke: #000000; stroke-linejoin: miter"/>
   </g>
   <g id="patch_138">
    <path d="M 118.433204 143.636415 
L 107.939303 141.835947 
" clip-path="url(#p4079dde9c3)" style="fill: #1f77b4; stroke: #000000; stroke-linejoin: miter"/>
   </g>
   <g id="patch_139">
    <path d="M 248.905449 194.788536 
L 253.160988 200.313109 
" clip-path="url(#p4079dde9c3)" style="fill: #1f77b4; stroke: #000000; stroke-linejoin: miter"/>
   </g>
   <g id="patch_140">
    <path d="M 139.421006 147.237353 
L 128.927105 145.436884 
" clip-path="url(#p4079dde9c3)" style="fill: #1f77b4; stroke: #000000; stroke-linejoin: miter"/>
   </g>
   <g id="patch_141">
    <path d="M 262.898064 122.115254 
L 257.251514 127.761804 
" clip-path="url(#p4079dde9c3)" style="fill: #1f77b4; stroke: #000000; stroke-linejoin: miter"/>
   </g>
   <g id="patch_142">
    <path d="M 240.394371 183.739392 
L 244.64991 189.263964 
" clip-path="url(#p4079dde9c3)" style="fill: #1f77b4; stroke: #000000; stroke-linejoin: miter"/>
   </g>
   <g id="patch_143">
    <path d="M 160.408808 150.838291 
L 149.914907 149.037822 
" clip-path="url(#p4079dde9c3)" style="fill: #1f77b4; stroke: #000000; stroke-linejoin: miter"/>
   </g>
   <g id="patch_144">
    <path d="M 251.604964 133.408354 
L 245.958414 139.054904 
" clip-path="url(#p4079dde9c3)" style="fill: #1f77b4; stroke: #000000; stroke-linejoin: miter"/>
   </g>
   <g id="patch_145">
    <path d="M 181.396611 154.439228 
L 170.90271 152.638759 
" clip-path="url(#p4079dde9c3)" style="fill: #1f77b4; stroke: #000000; stroke-linejoin: miter"/>
   </g>
   <g id="patch_146">
    <path d="M 231.883293 172.690248 
L 236.138832 178.21482 
" clip-path="url(#p4079dde9c3)" style="fill: #1f77b4; stroke: #000000; stroke-linejoin: miter"/>
   </g>
   <g id="patch_147">
    <path d="M 240.311864 144.701454 
L 234.665314 150.348003 
" clip-path="url(#p4079dde9c3)" style="fill: #1f77b4; stroke: #000000; stroke-linejoin: miter"/>
   </g>
   <g id="patch_148">
    <path d="M 202.384413 158.040166 
L 191.890512 156.239697 
" clip-path="url(#p4079dde9c3)" style="fill: #1f77b4; stroke: #000000; stroke-linejoin: miter"/>
   </g>
   <g id="patch_149">
    <path d="M 223.372215 161.641103 
L 227.627754 167.165675 
" clip-path="url(#p4079dde9c3)" style="fill: #1f77b4; stroke: #000000; stroke-linejoin: miter"/>
   </g>
   <g id="patch_150">
    <path d="M 229.018764 155.994553 
L 223.372215 161.641103 
" clip-path="url(#p4079dde9c3)" style="fill: #1f77b4; stroke: #000000; stroke-linejoin: miter"/>
   </g>
   <g id="patch_151">
    <path d="M 223.372215 161.641103 
L 212.878314 159.840634 
" clip-path="url(#p4079dde9c3)" style="fill: #1f77b4; stroke: #000000; stroke-linejoin: miter"/>
   </g>
   <g id="matplotlib.axis_1"/>
   <g id="matplotlib.axis_2"/>
   <g id="patch_152">
    <path d="M 14.3 272.769481 
L 14.3 13.986243 
" style="fill: none; stroke: #000000; stroke-width: 0.8; stroke-linejoin: miter; stroke-linecap: square"/>
   </g>
   <g id="patch_153">
    <path d="M 421.2 272.769481 
L 421.2 13.986243 
" style="fill: none; stroke: #000000; stroke-width: 0.8; stroke-linejoin: miter; stroke-linecap: square"/>
   </g>
   <g id="patch_154">
    <path d="M 14.3 272.769481 
L 421.2 272.769481 
" style="fill: none; stroke: #000000; stroke-width: 0.8; stroke-linejoin: miter; stroke-linecap: square"/>
   </g>
   <g id="patch_155">
    <path d="M 14.3 13.986243 
L 421.2 13.986243 
" style="fill: none; stroke: #000000; stroke-width: 0.8; stroke-linejoin: miter; stroke-linecap: square"/>
   </g>
  </g>
 </g>
 <defs>
  <clipPath id="p4079dde9c3">
   <rect x="14.3" y="13.986243" width="406.9" height="258.783238"/>
  </clipPath>
 </defs>
</svg>
