<?xml version="1.0" encoding="utf-8" standalone="no"?>
<!DOCTYPE svg PUBLIC "-//W3C//DTD SVG 1.1//EN"
  "http://www.w3.org/Graphics/SVG/1.1/DTD/svg11.dtd">
<svg xmlns:xlink="http://www.w3.org/1999/xlink" width="432pt" height="288pt" viewBox="0 0 432 288" xmlns="http://www.w3.org/2000/svg" version="1.1">
 <metadata>
  <rdf:RDF xmlns:dc="http://purl.org/dc/elements/1.1/" xmlns:cc="http://creativecommons.org/ns#" xmlns:rdf="http://www.w3.org/1999/02/22-rdf-syntax-ns#">
   <cc:Work>
    <dc:type rdf:resource="http://purl.org/dc/dcmitype/StillImage"/>
    <dc:date>2022-04-23T15:55:34.643188</dc:date>
    <dc:format>image/svg+xml</dc:format>
    <dc:creator>
     <cc:Agent>
      <dc:title>Matplotlib v3.5.1, https://matplotlib.org/</dc:title>
     </cc:Agent>
    </dc:creator>
   </cc:Work>
  </rdf:RDF>
 </metadata>
 <defs>
  <style type="text/css">*{stroke-linejoin: round; stroke-linecap: butt}</style>
 </defs>
 <g id="figure_1">
  <g id="patch_1">
   <path d="M 0 288 
L 432 288 
L 432 0 
L 0 0 
L 0 288 
z
" style="fill: none"/>
  </g>
  <g id="axes_1">
   <g id="patch_2">
    <path d="M 76.295246 273.7 
L 355.704754 273.7 
L 355.704754 10.8 
L 76.295246 10.8 
z
" style="fill: #ffffff"/>
   </g>
   <g id="patch_3">
    <path d="M 243.791671 100.519841 
L 233.265623 102.325826 
" clip-path="url(#paf122578f1)" style="fill: #1f77b4; stroke: #000000; stroke-linejoin: miter"/>
   </g>
   <g id="patch_4">
    <path d="M 330.992304 187.720475 
L 329.18632 198.246522 
" clip-path="url(#paf122578f1)" style="fill: #1f77b4; stroke: #000000; stroke-linejoin: miter"/>
   </g>
   <g id="patch_5">
    <path d="M 222.739576 104.13181 
L 212.213528 105.937794 
" clip-path="url(#paf122578f1)" style="fill: #1f77b4; stroke: #000000; stroke-linejoin: miter"/>
   </g>
   <g id="patch_6">
    <path d="M 201.68748 107.743778 
L 191.161433 109.549763 
" clip-path="url(#paf122578f1)" style="fill: #1f77b4; stroke: #000000; stroke-linejoin: miter"/>
   </g>
   <g id="patch_7">
    <path d="M 321.962383 240.350712 
L 311.436335 242.156697 
" clip-path="url(#paf122578f1)" style="fill: #1f77b4; stroke: #000000; stroke-linejoin: miter"/>
   </g>
   <g id="patch_8">
    <path d="M 300.910288 243.962681 
L 290.38424 245.768665 
" clip-path="url(#paf122578f1)" style="fill: #1f77b4; stroke: #000000; stroke-linejoin: miter"/>
   </g>
   <g id="patch_9">
    <path d="M 279.858192 247.574649 
L 269.332145 249.380634 
" clip-path="url(#paf122578f1)" style="fill: #1f77b4; stroke: #000000; stroke-linejoin: miter"/>
   </g>
   <g id="patch_10">
    <path d="M 183.937496 151.653953 
L 182.131512 162.18 
" clip-path="url(#paf122578f1)" style="fill: #1f77b4; stroke: #000000; stroke-linejoin: miter"/>
   </g>
   <g id="patch_11">
    <path d="M 187.549464 130.601858 
L 185.74348 141.127905 
" clip-path="url(#paf122578f1)" style="fill: #1f77b4; stroke: #000000; stroke-linejoin: miter"/>
   </g>
   <g id="patch_12">
    <path d="M 180.325527 172.706048 
L 178.519543 183.232096 
" clip-path="url(#paf122578f1)" style="fill: #1f77b4; stroke: #000000; stroke-linejoin: miter"/>
   </g>
   <g id="patch_13">
    <path d="M 173.10159 214.810238 
L 171.295606 225.336286 
" clip-path="url(#paf122578f1)" style="fill: #1f77b4; stroke: #000000; stroke-linejoin: miter"/>
   </g>
   <g id="patch_14">
    <path d="M 169.489622 235.862333 
L 167.683638 246.388381 
" clip-path="url(#paf122578f1)" style="fill: #1f77b4; stroke: #000000; stroke-linejoin: miter"/>
   </g>
   <g id="patch_15">
    <path d="M 165.877653 256.914429 
L 164.071669 267.440476 
" clip-path="url(#paf122578f1)" style="fill: #1f77b4; stroke: #000000; stroke-linejoin: miter"/>
   </g>
   <g id="patch_16">
    <path d="M 258.806097 251.186618 
L 248.28005 252.992602 
" clip-path="url(#paf122578f1)" style="fill: #1f77b4; stroke: #000000; stroke-linejoin: miter"/>
   </g>
   <g id="patch_17">
    <path d="M 237.754002 254.798586 
L 227.227955 256.604571 
" clip-path="url(#paf122578f1)" style="fill: #1f77b4; stroke: #000000; stroke-linejoin: miter"/>
   </g>
   <g id="patch_18">
    <path d="M 216.701907 258.410555 
L 206.175859 260.216539 
" clip-path="url(#paf122578f1)" style="fill: #1f77b4; stroke: #000000; stroke-linejoin: miter"/>
   </g>
   <g id="patch_19">
    <path d="M 195.649812 262.022523 
L 185.123764 263.828508 
" clip-path="url(#paf122578f1)" style="fill: #1f77b4; stroke: #000000; stroke-linejoin: miter"/>
   </g>
   <g id="patch_20">
    <path d="M 176.713559 193.758143 
L 174.907575 204.284191 
" clip-path="url(#paf122578f1)" style="fill: #1f77b4; stroke: #000000; stroke-linejoin: miter"/>
   </g>
   <g id="patch_21">
    <path d="M 191.161433 109.549763 
L 189.355449 120.07581 
" clip-path="url(#paf122578f1)" style="fill: #1f77b4; stroke: #000000; stroke-linejoin: miter"/>
   </g>
   <g id="patch_22">
    <path d="M 349.052146 82.459999 
L 347.246162 92.986046 
" clip-path="url(#paf122578f1)" style="fill: #1f77b4; stroke: #000000; stroke-linejoin: miter"/>
   </g>
   <g id="patch_23">
    <path d="M 264.843766 96.907873 
L 254.317718 98.713857 
" clip-path="url(#paf122578f1)" style="fill: #1f77b4; stroke: #000000; stroke-linejoin: miter"/>
   </g>
   <g id="patch_24">
    <path d="M 341.828209 124.564189 
L 340.022225 135.090237 
" clip-path="url(#paf122578f1)" style="fill: #1f77b4; stroke: #000000; stroke-linejoin: miter"/>
   </g>
   <g id="patch_25">
    <path d="M 338.216241 145.616284 
L 336.410257 156.142332 
" clip-path="url(#paf122578f1)" style="fill: #1f77b4; stroke: #000000; stroke-linejoin: miter"/>
   </g>
   <g id="patch_26">
    <path d="M 323.768367 229.824665 
L 321.962383 240.350712 
" clip-path="url(#paf122578f1)" style="fill: #1f77b4; stroke: #000000; stroke-linejoin: miter"/>
   </g>
   <g id="patch_27">
    <path d="M 345.440178 103.512094 
L 343.634194 114.038142 
" clip-path="url(#paf122578f1)" style="fill: #1f77b4; stroke: #000000; stroke-linejoin: miter"/>
   </g>
   <g id="patch_28">
    <path d="M 334.604272 166.668379 
L 332.798288 177.194427 
" clip-path="url(#paf122578f1)" style="fill: #1f77b4; stroke: #000000; stroke-linejoin: miter"/>
   </g>
   <g id="patch_29">
    <path d="M 327.380336 208.77257 
L 325.574351 219.298617 
" clip-path="url(#paf122578f1)" style="fill: #1f77b4; stroke: #000000; stroke-linejoin: miter"/>
   </g>
   <g id="patch_30">
    <path d="M 174.597717 265.634492 
L 164.071669 267.440476 
" clip-path="url(#paf122578f1)" style="fill: #1f77b4; stroke: #000000; stroke-linejoin: miter"/>
   </g>
   <g id="patch_31">
    <path d="M 349.052146 82.459999 
L 338.526099 84.265983 
" clip-path="url(#paf122578f1)" style="fill: #1f77b4; stroke: #000000; stroke-linejoin: miter"/>
   </g>
   <g id="patch_32">
    <path d="M 328.000051 86.071967 
L 317.474004 87.877952 
" clip-path="url(#paf122578f1)" style="fill: #1f77b4; stroke: #000000; stroke-linejoin: miter"/>
   </g>
   <g id="patch_33">
    <path d="M 306.947956 89.683936 
L 296.421909 91.48992 
" clip-path="url(#paf122578f1)" style="fill: #1f77b4; stroke: #000000; stroke-linejoin: miter"/>
   </g>
   <g id="patch_34">
    <path d="M 285.895861 93.295904 
L 275.369813 95.101889 
" clip-path="url(#paf122578f1)" style="fill: #1f77b4; stroke: #000000; stroke-linejoin: miter"/>
   </g>
   <g id="patch_35">
    <path d="M 164.071669 267.440476 
L 159.711637 263.080445 
" clip-path="url(#paf122578f1)" style="fill: #1f77b4; stroke: #000000; stroke-linejoin: miter"/>
   </g>
   <g id="patch_36">
    <path d="M 349.052146 82.459999 
L 344.692115 78.099967 
" clip-path="url(#paf122578f1)" style="fill: #1f77b4; stroke: #000000; stroke-linejoin: miter"/>
   </g>
   <g id="patch_37">
    <path d="M 191.161433 109.549763 
L 186.801401 105.189731 
" clip-path="url(#paf122578f1)" style="fill: #1f77b4; stroke: #000000; stroke-linejoin: miter"/>
   </g>
   <g id="patch_38">
    <path d="M 321.962383 240.350712 
L 317.602351 235.990681 
" clip-path="url(#paf122578f1)" style="fill: #1f77b4; stroke: #000000; stroke-linejoin: miter"/>
   </g>
   <g id="patch_39">
    <path d="M 155.351606 258.720413 
L 150.991574 254.360381 
" clip-path="url(#paf122578f1)" style="fill: #1f77b4; stroke: #000000; stroke-linejoin: miter"/>
   </g>
   <g id="patch_40">
    <path d="M 340.332083 73.739935 
L 335.972051 69.379904 
" clip-path="url(#paf122578f1)" style="fill: #1f77b4; stroke: #000000; stroke-linejoin: miter"/>
   </g>
   <g id="patch_41">
    <path d="M 182.441369 100.829699 
L 178.081338 96.469668 
" clip-path="url(#paf122578f1)" style="fill: #1f77b4; stroke: #000000; stroke-linejoin: miter"/>
   </g>
   <g id="patch_42">
    <path d="M 313.242319 231.630649 
L 308.882288 227.270617 
" clip-path="url(#paf122578f1)" style="fill: #1f77b4; stroke: #000000; stroke-linejoin: miter"/>
   </g>
   <g id="patch_43">
    <path d="M 304.522256 222.910586 
L 300.162224 218.550554 
" clip-path="url(#paf122578f1)" style="fill: #1f77b4; stroke: #000000; stroke-linejoin: miter"/>
   </g>
   <g id="patch_44">
    <path d="M 173.721306 92.109636 
L 169.361274 87.749604 
" clip-path="url(#paf122578f1)" style="fill: #1f77b4; stroke: #000000; stroke-linejoin: miter"/>
   </g>
   <g id="patch_45">
    <path d="M 331.61202 65.019872 
L 327.251988 60.65984 
" clip-path="url(#paf122578f1)" style="fill: #1f77b4; stroke: #000000; stroke-linejoin: miter"/>
   </g>
   <g id="patch_46">
    <path d="M 212.961591 147.073261 
C 217.13147 147.073261 221.131122 145.416551 224.079672 142.468002 
C 227.028221 139.519452 228.684932 135.5198 228.684932 131.349921 
C 228.684932 127.180042 227.028221 123.18039 224.079672 120.23184 
C 221.131122 117.283291 217.13147 115.62658 212.961591 115.62658 
C 208.791712 115.62658 204.79206 117.283291 201.84351 120.23184 
C 198.894961 123.18039 197.238251 127.180042 197.238251 131.349921 
C 197.238251 135.5198 198.894961 139.519452 201.84351 142.468002 
C 204.79206 145.416551 208.791712 147.073261 212.961591 147.073261 
z
" clip-path="url(#paf122578f1)" style="fill: #fa8072; stroke: #000000; stroke-linejoin: miter"/>
   </g>
   <g id="patch_47">
    <path d="M 160.331353 156.103183 
C 164.501232 156.103183 168.500884 154.446472 171.449434 151.497923 
C 174.397983 148.549373 176.054694 144.549721 176.054694 140.379842 
C 176.054694 136.209963 174.397983 132.210311 171.449434 129.261761 
C 168.500884 126.313212 164.501232 124.656501 160.331353 124.656501 
C 156.161475 124.656501 152.161822 126.313212 149.213272 129.261761 
C 146.264723 132.210311 144.608013 136.209963 144.608013 140.379842 
C 144.608013 144.549721 146.264723 148.549373 149.213272 151.497923 
C 152.161822 154.446472 156.161475 156.103183 160.331353 156.103183 
z
" clip-path="url(#paf122578f1)" style="fill: #fa8072; stroke: #000000; stroke-linejoin: miter"/>
   </g>
   <g id="patch_48">
    <path d="M 194.901749 252.333737 
C 199.071627 252.333737 203.07128 250.677027 206.019829 247.728477 
C 208.968379 244.779928 210.625089 240.780275 210.625089 236.610397 
C 210.625089 232.440518 208.968379 228.440865 206.019829 225.492316 
C 203.07128 222.543766 199.071627 220.887056 194.901749 220.887056 
C 190.73187 220.887056 186.732217 222.543766 183.783668 225.492316 
C 180.835118 228.440865 179.178408 232.440518 179.178408 236.610397 
C 179.178408 240.780275 180.835118 244.779928 183.783668 247.728477 
C 186.732217 250.677027 190.73187 252.333737 194.901749 252.333737 
z
" clip-path="url(#paf122578f1)" style="fill: #fa8072; stroke: #000000; stroke-linejoin: miter"/>
   </g>
   <g id="patch_49">
    <path d="M 203.93167 199.703499 
C 208.101549 199.703499 212.101201 198.046789 215.049751 195.098239 
C 217.9983 192.14969 219.65501 188.150037 219.65501 183.980159 
C 219.65501 179.81028 217.9983 175.810627 215.049751 172.862078 
C 212.101201 169.913529 208.101549 168.256818 203.93167 168.256818 
C 199.761791 168.256818 195.762139 169.913529 192.813589 172.862078 
C 189.86504 175.810627 188.208329 179.81028 188.208329 183.980159 
C 188.208329 188.150037 189.86504 192.14969 192.813589 195.098239 
C 195.762139 198.046789 199.761791 199.703499 203.93167 199.703499 
z
" clip-path="url(#paf122578f1)" style="fill: #fa8072; stroke: #000000; stroke-linejoin: miter"/>
   </g>
   <g id="patch_50">
    <path d="M 151.301432 208.733421 
C 155.471311 208.733421 159.470963 207.07671 162.419513 204.128161 
C 165.368062 201.179611 167.024773 197.179959 167.024773 193.01008 
C 167.024773 188.840201 165.368062 184.840549 162.419513 181.891999 
C 159.470963 178.94345 155.471311 177.286739 151.301432 177.286739 
C 147.131553 177.286739 143.131901 178.94345 140.183351 181.891999 
C 137.234802 184.840549 135.578091 188.840201 135.578091 193.01008 
C 135.578091 197.179959 137.234802 201.179611 140.183351 204.128161 
C 143.131901 207.07671 147.131553 208.733421 151.301432 208.733421 
z
" clip-path="url(#paf122578f1)" style="fill: #fa8072; stroke: #000000; stroke-linejoin: miter"/>
   </g>
   <g id="patch_51">
    <path d="M 247.531987 243.303816 
C 251.701865 243.303816 255.701518 241.647106 258.650067 238.698556 
C 261.598617 235.750007 263.255327 231.750354 263.255327 227.580475 
C 263.255327 223.410597 261.598617 219.410944 258.650067 216.462395 
C 255.701518 213.513845 251.701865 211.857135 247.531987 211.857135 
C 243.362108 211.857135 239.362455 213.513845 236.413906 216.462395 
C 233.465356 219.410944 231.808646 223.410597 231.808646 227.580475 
C 231.808646 231.750354 233.465356 235.750007 236.413906 238.698556 
C 239.362455 241.647106 243.362108 243.303816 247.531987 243.303816 
z
" clip-path="url(#paf122578f1)" style="fill: #fa8072; stroke: #000000; stroke-linejoin: miter"/>
   </g>
   <g id="patch_52">
    <path d="M 142.271511 261.363658 
C 146.441389 261.363658 150.441042 259.706948 153.389591 256.758399 
C 156.338141 253.809849 157.994851 249.810197 157.994851 245.640318 
C 157.994851 241.470439 156.338141 237.470787 153.389591 234.522237 
C 150.441042 231.573688 146.441389 229.916977 142.271511 229.916977 
C 138.101632 229.916977 134.101979 231.573688 131.15343 234.522237 
C 128.204881 237.470787 126.54817 241.470439 126.54817 245.640318 
C 126.54817 249.810197 128.204881 253.809849 131.15343 256.758399 
C 134.101979 259.706948 138.101632 261.363658 142.271511 261.363658 
z
" clip-path="url(#paf122578f1)" style="fill: #fa8072; stroke: #000000; stroke-linejoin: miter"/>
   </g>
   <g id="patch_53">
    <path d="M 265.591829 138.04334 
C 269.761708 138.04334 273.76136 136.38663 276.70991 133.43808 
C 279.658459 130.489531 281.31517 126.489878 281.31517 122.32 
C 281.31517 118.150121 279.658459 114.150468 276.70991 111.201919 
C 273.76136 108.253369 269.761708 106.596659 265.591829 106.596659 
C 261.42195 106.596659 257.422298 108.253369 254.473748 111.201919 
C 251.525199 114.150468 249.868488 118.150121 249.868488 122.32 
C 249.868488 126.489878 251.525199 130.489531 254.473748 133.43808 
C 257.422298 136.38663 261.42195 138.04334 265.591829 138.04334 
z
" clip-path="url(#paf122578f1)" style="fill: #fa8072; stroke: #000000; stroke-linejoin: miter"/>
   </g>
   <g id="patch_54">
    <path d="M 256.561908 190.673578 
C 260.731786 190.673578 264.731439 189.016868 267.679989 186.068318 
C 270.628538 183.119769 272.285248 179.120116 272.285248 174.950237 
C 272.285248 170.780359 270.628538 166.780706 267.679989 163.832157 
C 264.731439 160.883607 260.731786 159.226897 256.561908 159.226897 
C 252.392029 159.226897 248.392377 160.883607 245.443827 163.832157 
C 242.495278 166.780706 240.838567 170.780359 240.838567 174.950237 
C 240.838567 179.120116 242.495278 183.119769 245.443827 186.068318 
C 248.392377 189.016868 252.392029 190.673578 256.561908 190.673578 
z
" clip-path="url(#paf122578f1)" style="fill: #fa8072; stroke: #000000; stroke-linejoin: miter"/>
   </g>
   <g id="patch_55">
    <path d="M 137.911479 241.280286 
L 133.551447 236.920255 
" clip-path="url(#paf122578f1)" style="fill: #1f77b4; stroke: #000000; stroke-linejoin: miter"/>
   </g>
   <g id="patch_56">
    <path d="M 295.802193 214.190522 
L 291.442161 209.830491 
" clip-path="url(#paf122578f1)" style="fill: #1f77b4; stroke: #000000; stroke-linejoin: miter"/>
   </g>
   <g id="patch_57">
    <path d="M 322.891956 56.299809 
L 318.531925 51.939777 
" clip-path="url(#paf122578f1)" style="fill: #1f77b4; stroke: #000000; stroke-linejoin: miter"/>
   </g>
   <g id="patch_58">
    <path d="M 165.001243 83.389573 
L 160.641211 79.029541 
" clip-path="url(#paf122578f1)" style="fill: #1f77b4; stroke: #000000; stroke-linejoin: miter"/>
   </g>
   <g id="patch_59">
    <path d="M 129.191416 232.560223 
L 124.831384 228.200191 
" clip-path="url(#paf122578f1)" style="fill: #1f77b4; stroke: #000000; stroke-linejoin: miter"/>
   </g>
   <g id="patch_60">
    <path d="M 156.281179 74.669509 
L 151.921148 70.309478 
" clip-path="url(#paf122578f1)" style="fill: #1f77b4; stroke: #000000; stroke-linejoin: miter"/>
   </g>
   <g id="patch_61">
    <path d="M 287.082129 205.470459 
L 282.722098 201.110427 
" clip-path="url(#paf122578f1)" style="fill: #1f77b4; stroke: #000000; stroke-linejoin: miter"/>
   </g>
   <g id="patch_62">
    <path d="M 314.171893 47.579745 
L 309.811861 43.219714 
" clip-path="url(#paf122578f1)" style="fill: #1f77b4; stroke: #000000; stroke-linejoin: miter"/>
   </g>
   <g id="patch_63">
    <path d="M 120.471352 239.5635 
C 124.641231 239.5635 128.640884 237.90679 131.589433 234.95824 
C 134.537983 232.009691 136.194693 228.010038 136.194693 223.84016 
C 136.194693 219.670281 134.537983 215.670628 131.589433 212.722079 
C 128.640884 209.773529 124.641231 208.116819 120.471352 208.116819 
C 116.301474 208.116819 112.301821 209.773529 109.353272 212.722079 
C 106.404722 215.670628 104.748012 219.670281 104.748012 223.84016 
C 104.748012 228.010038 106.404722 232.009691 109.353272 234.95824 
C 112.301821 237.90679 116.301474 239.5635 120.471352 239.5635 
z
" clip-path="url(#paf122578f1)" style="fill: #fa8072; stroke: #000000; stroke-linejoin: miter"/>
   </g>
   <g id="patch_64">
    <path d="M 129.501274 186.933262 
C 133.671152 186.933262 137.670805 185.276552 140.619354 182.328002 
C 143.567904 179.379453 145.224614 175.3798 145.224614 171.209922 
C 145.224614 167.040043 143.567904 163.04039 140.619354 160.091841 
C 137.670805 157.143291 133.671152 155.486581 129.501274 155.486581 
C 125.331395 155.486581 121.331742 157.143291 118.383193 160.091841 
C 115.434643 163.04039 113.777933 167.040043 113.777933 171.209922 
C 113.777933 175.3798 115.434643 179.379453 118.383193 182.328002 
C 121.331742 185.276552 125.331395 186.933262 129.501274 186.933262 
z
" clip-path="url(#paf122578f1)" style="fill: #fa8072; stroke: #000000; stroke-linejoin: miter"/>
   </g>
   <g id="patch_65">
    <path d="M 138.531195 134.303024 
C 142.701074 134.303024 146.700726 132.646314 149.649276 129.697764 
C 152.597825 126.749215 154.254535 122.749562 154.254535 118.579684 
C 154.254535 114.409805 152.597825 110.410152 149.649276 107.461603 
C 146.700726 104.513054 142.701074 102.856343 138.531195 102.856343 
C 134.361316 102.856343 130.361664 104.513054 127.413114 107.461603 
C 124.464565 110.410152 122.807854 114.409805 122.807854 118.579684 
C 122.807854 122.749562 124.464565 126.749215 127.413114 129.697764 
C 130.361664 132.646314 134.361316 134.303024 138.531195 134.303024 
z
" clip-path="url(#paf122578f1)" style="fill: #fa8072; stroke: #000000; stroke-linejoin: miter"/>
   </g>
   <g id="patch_66">
    <path d="M 182.131512 177.903341 
C 186.30139 177.903341 190.301043 176.246631 193.249592 173.298081 
C 196.198142 170.349532 197.854852 166.349879 197.854852 162.18 
C 197.854852 158.010122 196.198142 154.010469 193.249592 151.06192 
C 190.301043 148.11337 186.30139 146.45666 182.131512 146.45666 
C 177.961633 146.45666 173.96198 148.11337 171.013431 151.06192 
C 168.064881 154.010469 166.408171 158.010122 166.408171 162.18 
C 166.408171 166.349879 168.064881 170.349532 171.013431 173.298081 
C 173.96198 176.246631 177.961633 177.903341 182.131512 177.903341 
z
" clip-path="url(#paf122578f1)" style="fill: #fa8072; stroke: #000000; stroke-linejoin: miter"/>
   </g>
   <g id="patch_67">
    <path d="M 173.10159 230.533579 
C 177.271469 230.533579 181.271122 228.876869 184.219671 225.928319 
C 187.168221 222.97977 188.824931 218.980117 188.824931 214.810238 
C 188.824931 210.64036 187.168221 206.640707 184.219671 203.692158 
C 181.271122 200.743608 177.271469 199.086898 173.10159 199.086898 
C 168.931712 199.086898 164.932059 200.743608 161.98351 203.692158 
C 159.03496 206.640707 157.37825 210.64036 157.37825 214.810238 
C 157.37825 218.980117 159.03496 222.97977 161.98351 225.928319 
C 164.932059 228.876869 168.931712 230.533579 173.10159 230.533579 
z
" clip-path="url(#paf122578f1)" style="fill: #fa8072; stroke: #000000; stroke-linejoin: miter"/>
   </g>
   <g id="patch_68">
    <path d="M 191.161433 125.273103 
C 195.331311 125.273103 199.330964 123.616393 202.279514 120.667843 
C 205.228063 117.719294 206.884773 113.719641 206.884773 109.549763 
C 206.884773 105.379884 205.228063 101.380231 202.279514 98.431682 
C 199.330964 95.483132 195.331311 93.826422 191.161433 93.826422 
C 186.991554 93.826422 182.991902 95.483132 180.043352 98.431682 
C 177.094803 101.380231 175.438092 105.379884 175.438092 109.549763 
C 175.438092 113.719641 177.094803 117.719294 180.043352 120.667843 
C 182.991902 123.616393 186.991554 125.273103 191.161433 125.273103 
z
" clip-path="url(#paf122578f1)" style="fill: #fa8072; stroke: #000000; stroke-linejoin: miter"/>
   </g>
   <g id="patch_69">
    <path d="M 234.761749 168.87342 
C 238.931628 168.87342 242.931281 167.216709 245.87983 164.26816 
C 248.82838 161.31961 250.48509 157.319958 250.48509 153.150079 
C 250.48509 148.9802 248.82838 144.980548 245.87983 142.031998 
C 242.931281 139.083449 238.931628 137.426739 234.761749 137.426739 
C 230.591871 137.426739 226.592218 139.083449 223.643669 142.031998 
C 220.695119 144.980548 219.038409 148.9802 219.038409 153.150079 
C 219.038409 157.319958 220.695119 161.31961 223.643669 164.26816 
C 226.592218 167.216709 230.591871 168.87342 234.761749 168.87342 
z
" clip-path="url(#paf122578f1)" style="fill: #fa8072; stroke: #000000; stroke-linejoin: miter"/>
   </g>
   <g id="patch_70">
    <path d="M 225.731828 221.503658 
C 229.901707 221.503658 233.901359 219.846947 236.849909 216.898398 
C 239.798458 213.949848 241.455169 209.950196 241.455169 205.780317 
C 241.455169 201.610438 239.798458 197.610786 236.849909 194.662236 
C 233.901359 191.713687 229.901707 190.056976 225.731828 190.056976 
C 221.56195 190.056976 217.562297 191.713687 214.613747 194.662236 
C 211.665198 197.610786 210.008488 201.610438 210.008488 205.780317 
C 210.008488 209.950196 211.665198 213.949848 214.613747 216.898398 
C 217.562297 219.846947 221.56195 221.503658 225.731828 221.503658 
z
" clip-path="url(#paf122578f1)" style="fill: #fa8072; stroke: #000000; stroke-linejoin: miter"/>
   </g>
   <g id="patch_71">
    <path d="M 243.791671 116.243182 
C 247.961549 116.243182 251.961202 114.586471 254.909751 111.637922 
C 257.858301 108.689373 259.515011 104.68972 259.515011 100.519841 
C 259.515011 96.349963 257.858301 92.35031 254.909751 89.401761 
C 251.961202 86.453211 247.961549 84.796501 243.791671 84.796501 
C 239.621792 84.796501 235.622139 86.453211 232.67359 89.401761 
C 229.72504 92.35031 228.06833 96.349963 228.06833 100.519841 
C 228.06833 104.68972 229.72504 108.689373 232.67359 111.637922 
C 235.622139 114.586471 239.621792 116.243182 243.791671 116.243182 
z
" clip-path="url(#paf122578f1)" style="fill: #fa8072; stroke: #000000; stroke-linejoin: miter"/>
   </g>
   <g id="patch_72">
    <path d="M 305.45183 38.859682 
L 301.091798 34.49965 
" clip-path="url(#paf122578f1)" style="fill: #1f77b4; stroke: #000000; stroke-linejoin: miter"/>
   </g>
   <g id="patch_73">
    <path d="M 147.561116 65.949446 
L 143.201084 61.589414 
" clip-path="url(#paf122578f1)" style="fill: #1f77b4; stroke: #000000; stroke-linejoin: miter"/>
   </g>
   <g id="patch_74">
    <path d="M 278.362066 196.750396 
L 274.002034 192.390364 
" clip-path="url(#paf122578f1)" style="fill: #1f77b4; stroke: #000000; stroke-linejoin: miter"/>
   </g>
   <g id="patch_75">
    <path d="M 111.751289 215.120096 
L 107.391257 210.760065 
" clip-path="url(#paf122578f1)" style="fill: #1f77b4; stroke: #000000; stroke-linejoin: miter"/>
   </g>
   <g id="patch_76">
    <path d="M 138.841053 57.229383 
L 134.481021 52.869351 
" clip-path="url(#paf122578f1)" style="fill: #1f77b4; stroke: #000000; stroke-linejoin: miter"/>
   </g>
   <g id="patch_77">
    <path d="M 296.731766 30.139619 
L 292.371735 25.779587 
" clip-path="url(#paf122578f1)" style="fill: #1f77b4; stroke: #000000; stroke-linejoin: miter"/>
   </g>
   <g id="patch_78">
    <path d="M 269.642003 188.030332 
L 265.281971 183.670301 
" clip-path="url(#paf122578f1)" style="fill: #1f77b4; stroke: #000000; stroke-linejoin: miter"/>
   </g>
   <g id="patch_79">
    <path d="M 130.120989 48.509319 
L 125.760958 44.149288 
" clip-path="url(#paf122578f1)" style="fill: #1f77b4; stroke: #000000; stroke-linejoin: miter"/>
   </g>
   <g id="patch_80">
    <path d="M 260.921939 179.310269 
L 256.561908 174.950237 
" clip-path="url(#paf122578f1)" style="fill: #1f77b4; stroke: #000000; stroke-linejoin: miter"/>
   </g>
   <g id="patch_81">
    <path d="M 288.011703 21.419555 
L 283.651672 17.059524 
" clip-path="url(#paf122578f1)" style="fill: #1f77b4; stroke: #000000; stroke-linejoin: miter"/>
   </g>
   <g id="patch_82">
    <path d="M 98.671194 217.763342 
C 102.841073 217.763342 106.840725 216.106631 109.789275 213.158082 
C 112.737824 210.209532 114.394535 206.20988 114.394535 202.040001 
C 114.394535 197.870123 112.737824 193.87047 109.789275 190.92192 
C 106.840725 187.973371 102.841073 186.316661 98.671194 186.316661 
C 94.501315 186.316661 90.501663 187.973371 87.553113 190.92192 
C 84.604564 193.87047 82.947854 197.870123 82.947854 202.040001 
C 82.947854 206.20988 84.604564 210.209532 87.553113 213.158082 
C 90.501663 216.106631 94.501315 217.763342 98.671194 217.763342 
z
" clip-path="url(#paf122578f1)" style="fill: #fa8072; stroke: #000000; stroke-linejoin: miter"/>
   </g>
   <g id="patch_83">
    <path d="M 104.089147 170.461858 
L 102.283163 180.987906 
" clip-path="url(#paf122578f1)" style="fill: #1f77b4; stroke: #000000; stroke-linejoin: miter"/>
   </g>
   <g id="patch_84">
    <path d="M 114.925052 107.305573 
L 113.119068 117.831621 
" clip-path="url(#paf122578f1)" style="fill: #1f77b4; stroke: #000000; stroke-linejoin: miter"/>
   </g>
   <g id="patch_85">
    <path d="M 107.701115 165.133104 
C 111.870994 165.133104 115.870647 163.476394 118.819196 160.527844 
C 121.767746 157.579295 123.424456 153.579642 123.424456 149.409763 
C 123.424456 145.239885 121.767746 141.240232 118.819196 138.291683 
C 115.870647 135.343133 111.870994 133.686423 107.701115 133.686423 
C 103.531237 133.686423 99.531584 135.343133 96.583035 138.291683 
C 93.634485 141.240232 91.977775 145.239885 91.977775 149.409763 
C 91.977775 153.579642 93.634485 157.579295 96.583035 160.527844 
C 99.531584 163.476394 103.531237 165.133104 107.701115 165.133104 
z
" clip-path="url(#paf122578f1)" style="fill: #fa8072; stroke: #000000; stroke-linejoin: miter"/>
   </g>
   <g id="patch_86">
    <path d="M 111.313084 128.357668 
L 109.5071 138.883716 
" clip-path="url(#paf122578f1)" style="fill: #1f77b4; stroke: #000000; stroke-linejoin: miter"/>
   </g>
   <g id="patch_87">
    <path d="M 130.249337 196.622048 
L 119.723289 198.428033 
" clip-path="url(#paf122578f1)" style="fill: #1f77b4; stroke: #000000; stroke-linejoin: miter"/>
   </g>
   <g id="patch_88">
    <path d="M 116.731037 112.502866 
C 120.900915 112.502866 124.900568 110.846156 127.849117 107.897606 
C 130.797667 104.949057 132.454377 100.949404 132.454377 96.779525 
C 132.454377 92.609647 130.797667 88.609994 127.849117 85.661445 
C 124.900568 82.712895 120.900915 81.056185 116.731037 81.056185 
C 112.561158 81.056185 108.561505 82.712895 105.612956 85.661445 
C 102.664406 88.609994 101.007696 92.609647 101.007696 96.779525 
C 101.007696 100.949404 102.664406 104.949057 105.612956 107.897606 
C 108.561505 110.846156 112.561158 112.502866 116.731037 112.502866 
z
" clip-path="url(#paf122578f1)" style="fill: #fa8072; stroke: #000000; stroke-linejoin: miter"/>
   </g>
   <g id="patch_89">
    <path d="M 178.391196 35.119366 
L 167.865148 36.925351 
" clip-path="url(#paf122578f1)" style="fill: #1f77b4; stroke: #000000; stroke-linejoin: miter"/>
   </g>
   <g id="patch_90">
    <path d="M 151.301432 208.733421 
C 155.471311 208.733421 159.470963 207.07671 162.419513 204.128161 
C 165.368062 201.179611 167.024773 197.179959 167.024773 193.01008 
C 167.024773 188.840201 165.368062 184.840549 162.419513 181.891999 
C 159.470963 178.94345 155.471311 177.286739 151.301432 177.286739 
C 147.131553 177.286739 143.131901 178.94345 140.183351 181.891999 
C 137.234802 184.840549 135.578091 188.840201 135.578091 193.01008 
C 135.578091 197.179959 137.234802 201.179611 140.183351 204.128161 
C 143.131901 207.07671 147.131553 208.733421 151.301432 208.733421 
z
" clip-path="url(#paf122578f1)" style="fill: #fa8072; stroke: #000000; stroke-linejoin: miter"/>
   </g>
   <g id="patch_91">
    <path d="M 122.148989 65.201383 
L 120.343005 75.72743 
" clip-path="url(#paf122578f1)" style="fill: #1f77b4; stroke: #000000; stroke-linejoin: miter"/>
   </g>
   <g id="patch_92">
    <path d="M 172.353527 189.398111 
L 161.82748 191.204096 
" clip-path="url(#paf122578f1)" style="fill: #1f77b4; stroke: #000000; stroke-linejoin: miter"/>
   </g>
   <g id="patch_93">
    <path d="M 193.405622 185.786143 
L 182.879575 187.592127 
" clip-path="url(#paf122578f1)" style="fill: #1f77b4; stroke: #000000; stroke-linejoin: miter"/>
   </g>
   <g id="patch_94">
    <path d="M 160.331353 156.103183 
C 164.501232 156.103183 168.500884 154.446472 171.449434 151.497923 
C 174.397983 148.549373 176.054694 144.549721 176.054694 140.379842 
C 176.054694 136.209963 174.397983 132.210311 171.449434 129.261761 
C 168.500884 126.313212 164.501232 124.656501 160.331353 124.656501 
C 156.161475 124.656501 152.161822 126.313212 149.213272 129.261761 
C 146.264723 132.210311 144.608013 136.209963 144.608013 140.379842 
C 144.608013 144.549721 146.264723 148.549373 149.213272 151.497923 
C 152.161822 154.446472 156.161475 156.103183 160.331353 156.103183 
z
" clip-path="url(#paf122578f1)" style="fill: #fa8072; stroke: #000000; stroke-linejoin: miter"/>
   </g>
   <g id="patch_95">
    <path d="M 199.443291 31.507398 
L 188.917243 33.313382 
" clip-path="url(#paf122578f1)" style="fill: #1f77b4; stroke: #000000; stroke-linejoin: miter"/>
   </g>
   <g id="patch_96">
    <path d="M 169.361274 103.472945 
C 173.531153 103.472945 177.530806 101.816234 180.479355 98.867685 
C 183.427905 95.919135 185.084615 91.919483 185.084615 87.749604 
C 185.084615 83.579726 183.427905 79.580073 180.479355 76.631523 
C 177.530806 73.682974 173.531153 72.026264 169.361274 72.026264 
C 165.191396 72.026264 161.191743 73.682974 158.243194 76.631523 
C 155.294644 79.580073 153.637934 83.579726 153.637934 87.749604 
C 153.637934 91.919483 155.294644 95.919135 158.243194 98.867685 
C 161.191743 101.816234 165.191396 103.472945 169.361274 103.472945 
z
" clip-path="url(#paf122578f1)" style="fill: #fa8072; stroke: #000000; stroke-linejoin: miter"/>
   </g>
   <g id="patch_97">
    <path d="M 203.93167 199.703499 
C 208.101549 199.703499 212.101201 198.046789 215.049751 195.098239 
C 217.9983 192.14969 219.65501 188.150037 219.65501 183.980159 
C 219.65501 179.81028 217.9983 175.810627 215.049751 172.862078 
C 212.101201 169.913529 208.101549 168.256818 203.93167 168.256818 
C 199.761791 168.256818 195.762139 169.913529 192.813589 172.862078 
C 189.86504 175.810627 188.208329 179.81028 188.208329 183.980159 
C 188.208329 188.150037 189.86504 192.14969 192.813589 195.098239 
C 195.762139 198.046789 199.761791 199.703499 203.93167 199.703499 
z
" clip-path="url(#paf122578f1)" style="fill: #fa8072; stroke: #000000; stroke-linejoin: miter"/>
   </g>
   <g id="patch_98">
    <path d="M 125.760958 44.149288 
L 123.954974 54.675335 
" clip-path="url(#paf122578f1)" style="fill: #1f77b4; stroke: #000000; stroke-linejoin: miter"/>
   </g>
   <g id="patch_99">
    <path d="M 265.591829 122.32 
L 263.785845 132.846047 
" clip-path="url(#paf122578f1)" style="fill: #1f77b4; stroke: #000000; stroke-linejoin: miter"/>
   </g>
   <g id="patch_100">
    <path d="M 212.961591 147.073261 
C 217.13147 147.073261 221.131122 145.416551 224.079672 142.468002 
C 227.028221 139.519452 228.684932 135.5198 228.684932 131.349921 
C 228.684932 127.180042 227.028221 123.18039 224.079672 120.23184 
C 221.131122 117.283291 217.13147 115.62658 212.961591 115.62658 
C 208.791712 115.62658 204.79206 117.283291 201.84351 120.23184 
C 198.894961 123.18039 197.238251 127.180042 197.238251 131.349921 
C 197.238251 135.5198 198.894961 139.519452 201.84351 142.468002 
C 204.79206 145.416551 208.791712 147.073261 212.961591 147.073261 
z
" clip-path="url(#paf122578f1)" style="fill: #fa8072; stroke: #000000; stroke-linejoin: miter"/>
   </g>
   <g id="patch_101">
    <path d="M 269.203798 101.267904 
L 267.397813 111.793952 
" clip-path="url(#paf122578f1)" style="fill: #1f77b4; stroke: #000000; stroke-linejoin: miter"/>
   </g>
   <g id="patch_102">
    <path d="M 235.509813 178.562206 
L 224.983765 180.36819 
" clip-path="url(#paf122578f1)" style="fill: #1f77b4; stroke: #000000; stroke-linejoin: miter"/>
   </g>
   <g id="patch_103">
    <path d="M 241.547481 24.283461 
L 231.021434 26.089445 
" clip-path="url(#paf122578f1)" style="fill: #1f77b4; stroke: #000000; stroke-linejoin: miter"/>
   </g>
   <g id="patch_104">
    <path d="M 136.287005 42.343303 
L 125.760958 44.149288 
" clip-path="url(#paf122578f1)" style="fill: #1f77b4; stroke: #000000; stroke-linejoin: miter"/>
   </g>
   <g id="patch_105">
    <path d="M 221.991512 94.443024 
C 226.161391 94.443024 230.161044 92.786313 233.109593 89.837764 
C 236.058143 86.889214 237.714853 82.889562 237.714853 78.719683 
C 237.714853 74.549804 236.058143 70.550152 233.109593 67.601602 
C 230.161044 64.653053 226.161391 62.996342 221.991512 62.996342 
C 217.821634 62.996342 213.821981 64.653053 210.873432 67.601602 
C 207.924882 70.550152 206.268172 74.549804 206.268172 78.719683 
C 206.268172 82.889562 207.924882 86.889214 210.873432 89.837764 
C 213.821981 92.786313 217.821634 94.443024 221.991512 94.443024 
z
" clip-path="url(#paf122578f1)" style="fill: #fa8072; stroke: #000000; stroke-linejoin: miter"/>
   </g>
   <g id="patch_106">
    <path d="M 276.427735 59.163714 
L 274.62175 69.689762 
" clip-path="url(#paf122578f1)" style="fill: #1f77b4; stroke: #000000; stroke-linejoin: miter"/>
   </g>
   <g id="patch_107">
    <path d="M 157.339101 38.731335 
L 146.813053 40.537319 
" clip-path="url(#paf122578f1)" style="fill: #1f77b4; stroke: #000000; stroke-linejoin: miter"/>
   </g>
   <g id="patch_108">
    <path d="M 256.561908 174.950237 
L 246.03586 176.756222 
" clip-path="url(#paf122578f1)" style="fill: #1f77b4; stroke: #000000; stroke-linejoin: miter"/>
   </g>
   <g id="patch_109">
    <path d="M 220.495386 27.895429 
L 209.969338 29.701414 
" clip-path="url(#paf122578f1)" style="fill: #1f77b4; stroke: #000000; stroke-linejoin: miter"/>
   </g>
   <g id="patch_110">
    <path d="M 258.367892 164.42419 
L 256.561908 174.950237 
" clip-path="url(#paf122578f1)" style="fill: #1f77b4; stroke: #000000; stroke-linejoin: miter"/>
   </g>
   <g id="patch_111">
    <path d="M 261.979861 143.372095 
L 260.173876 153.898142 
" clip-path="url(#paf122578f1)" style="fill: #1f77b4; stroke: #000000; stroke-linejoin: miter"/>
   </g>
   <g id="patch_112">
    <path d="M 272.815766 80.215809 
L 271.009782 90.741857 
" clip-path="url(#paf122578f1)" style="fill: #1f77b4; stroke: #000000; stroke-linejoin: miter"/>
   </g>
   <g id="patch_113">
    <path d="M 283.651672 17.059524 
L 273.125624 18.865508 
" clip-path="url(#paf122578f1)" style="fill: #1f77b4; stroke: #000000; stroke-linejoin: miter"/>
   </g>
   <g id="patch_114">
    <path d="M 283.651672 17.059524 
L 281.845687 27.585571 
" clip-path="url(#paf122578f1)" style="fill: #1f77b4; stroke: #000000; stroke-linejoin: miter"/>
   </g>
   <g id="patch_115">
    <path d="M 262.599576 20.671492 
L 252.073529 22.477477 
" clip-path="url(#paf122578f1)" style="fill: #1f77b4; stroke: #000000; stroke-linejoin: miter"/>
   </g>
   <g id="patch_116">
    <path d="M 280.039703 38.111619 
L 278.233719 48.637667 
" clip-path="url(#paf122578f1)" style="fill: #1f77b4; stroke: #000000; stroke-linejoin: miter"/>
   </g>
   <g id="matplotlib.axis_1"/>
   <g id="matplotlib.axis_2"/>
   <g id="patch_117">
    <path d="M 76.295246 273.7 
L 76.295246 10.8 
" style="fill: none; stroke: #000000; stroke-width: 0.8; stroke-linejoin: miter; stroke-linecap: square"/>
   </g>
   <g id="patch_118">
    <path d="M 355.704754 273.7 
L 355.704754 10.8 
" style="fill: none; stroke: #000000; stroke-width: 0.8; stroke-linejoin: miter; stroke-linecap: square"/>
   </g>
   <g id="patch_119">
    <path d="M 76.295246 273.7 
L 355.704754 273.7 
" style="fill: none; stroke: #000000; stroke-width: 0.8; stroke-linejoin: miter; stroke-linecap: square"/>
   </g>
   <g id="patch_120">
    <path d="M 76.295246 10.8 
L 355.704754 10.8 
" style="fill: none; stroke: #000000; stroke-width: 0.8; stroke-linejoin: miter; stroke-linecap: square"/>
   </g>
  </g>
 </g>
 <defs>
  <clipPath id="paf122578f1">
   <rect x="76.295246" y="10.8" width="279.409508" height="262.9"/>
  </clipPath>
 </defs>
</svg>
